<svg xmlns="http://www.w3.org/2000/svg" viewBox="0 0 450 390.12"><title>Asset 2</title><g id="Layer_2" data-name="Layer 2"><g id="Layer_1-2" data-name="Layer 1"><path d="M0,115.06S116.31,45.93,151.3,49.93s64.66,78,95.48,78c30.21,0,53-35.95,90.15-26.18C356.46,106.89,450,149.65,450,149.65V232L0,235Z" style="fill:#c9edd7"/><path d="M322.21,238.44c-22.38-6.72-45.82-11.34-66.57-22.43-9.39-5-21.92-11.77-26.17-22.16-5.07-12.43,17.06-56.46,23.53-66.38l-6.22.47c-6.7,10.26-33,42.69-34.36,55.08-1.34,12.19,4,23.34,12.84,31.51,15.22,14.07,46.9,27.46,67.16,33.25,50.4,14.38,42.2,33.24-58.09,20C184.67,261.3,76.1,253.54,0,256.39v67.27c80.73-2.35,127.62-6.22,231,4.29C367.74,341.84,410.05,264.84,322.21,238.44Z" style="fill:#ffe4b3"/><path d="M375.76,46.46s-77.78,29.61-141,9.47c-15.62-5-44.15-19.84-60.41-22.07-71.38-9.77-109.53,31-109.53,31s55.69-39.06,114.62-21.3c15.15,4.56,27.14,11.39,42.36,15.77s39.91,8.84,55.86,8C350,63.35,379.53,44.3,375.76,46.46Z" style="fill:#c9edd7"/><circle cx="271.85" cy="10.52" r="10.52" transform="translate(72.18 195.31) rotate(-45)" style="fill:#ffe4b3"/><path d="M223,28C137.78-13.87,39.63,30.75,6.09,45.81c0,0,60.44-31.54,147.53-26.91,40.37,2.15,75,20.09,92.84,24.81,39,10.28,60.26-9.85,60.26-9.85S280.14,56,223,28Z" style="fill:#c9edd7"/><path d="M449.67,49.87c-16.29-3.46-41.57,1.76-53.35,5.78C269.89,98.79,220.51,66.08,217.94,65.1c77.53,46.64,174.84-12,229.35-7.58l2.38.19Z" style="fill:#c9edd7"/><path d="M194.92,83.64a11.67,11.67,0,0,1-5.91,5c-5.2,2-11.15.66-16.16-1.27-9.13-3.5-17-8.44-26.87-9.81-17.63-2.43-39.15,3.36-53.69-9.77a2.54,2.54,0,0,0-.89-.54l-3.21,1.44a2.14,2.14,0,0,0,.57,2.63c18.67,16.87,44.83,5.69,66.41,13.58,10.38,3.8,20.2,11.39,31.89,9.38a17.72,17.72,0,0,0,11.15-6.72Z" style="fill:#fff"/><path d="M369.8,114.3a12.86,12.86,0,0,1-4.31,4.24c-8.9,5.45-20.12-.19-29.06-2.54-9.09-2.39-16.79-1.17-25.61,1.66-8,2.55-21.86,6.31-25.72-4.15L280.72,116c4,9,14.69,10.71,23.72,8.73,7-1.54,13.62-5,20.86-5.28,7.51-.25,14.52,3.1,21.67,4.89,10,2.5,21.85,1.78,27.39-8.11Z" style="fill:#fff"/><path d="M211.84,205.88c.08-1.26,5.08-11.94,5.28-22.38.19-9.3-1.59-17.25-4.4-26.16-1.12-3.54-1.08-7.18,2.39-7.77,3.08-.52,4.89,2.88,5.62,5.33,1,3.37,2.47,8.39,3.08,11.86,1.64,9.27,1,17.16-1.78,24.05a174.78,174.78,0,0,1-8,16S212.2,206,211.84,205.88Z" style="fill:#6acc8f"/><path d="M211.78,205.55s-2.07,2.14-3.63,3.65c-.42.93-1.06,4-.35,4.17,1.47.27,1.25-2.56,1.25-2.56a10.07,10.07,0,0,1-.72,2.75c-.82,2.38,1.32,4,3.54,4.17s-.1-1.93.32-3.31c1.08-3.57,1.88-7.64,1.88-7.64Z" style="fill:#fcc490"/><path d="M211.59,141.11a15.47,15.47,0,0,0,5,.78.49.49,0,0,1,.51.38c.37,1.58,1.44,5.95,1.63,6.64a2.4,2.4,0,0,0,4.69-1c-.11-1.87-.3-4.67-.28-5.58.78-.13,3,.33,3.74.08a6,6,0,0,0,4-4.63c.85-3.3,1.73-6.61,2.27-10A11,11,0,0,0,229.05,117a19.64,19.64,0,0,0-8.74-4.13,7.35,7.35,0,0,0-6.33,1.78c-4.21,3.42-9.71,10.38-8.91,17.71A10.51,10.51,0,0,0,211.59,141.11Z" style="fill:#fcc490"/><path d="M213.26,151.8c.28-2.77,10.91-4.64,15-4s5.53,4.1,7.1,7.8c2.46,5.81,7.21,24.68,7,38.19,0,0-15.64-1.61-19.4-1.43C220.83,183.6,211.38,170.55,213.26,151.8Z" style="fill:#6acc8f"/><path d="M214.14,130a.68.68,0,0,0,.53.78.67.67,0,1,0-.53-.78Z" style="fill:#000200"/><path d="M207,128.68a.68.68,0,0,0,.55.79.66.66,0,0,0,.78-.56.67.67,0,1,0-1.33-.23Z" style="fill:#000200"/><path d="M208.12,134.71c1.76.76,4.08,1.22,5.52.76a3.06,3.06,0,0,1-.52,1.29c-.56.65-1.12.9-2.46.68a2.6,2.6,0,0,1-2.11-1.18A3.36,3.36,0,0,1,208.12,134.71Z" style="fill:#ed6129"/><path d="M209.73,134.67a10.12,10.12,0,0,0,2.35.39c.53,0,1.25.45,1.26.65a2.63,2.63,0,0,1-.27.39c-.53.61-1.07.84-2.37.63a2.42,2.42,0,0,1-2.34-1.81C208.29,134.66,209.21,134.52,209.73,134.67Z" style="fill:#c04d34"/><path d="M212.89,135.54c-.47.76-1.33.64-2.42.47s-1.58-.26-1.89-1.14A15.47,15.47,0,0,0,212.89,135.54Z" style="fill:#fbf8de"/><path d="M208.07,134.69c.69-.7,1.09-.23,2.44-.06a6.54,6.54,0,0,1,3.15.87,8.68,8.68,0,0,1-3.06-.13A13.25,13.25,0,0,1,208.07,134.69Z" style="fill:#ed6129"/><path d="M209.24,133.44l1.66.29a.75.75,0,0,0,.85-.91,1.13,1.13,0,0,1-.72.38,3.62,3.62,0,0,1-1.61-.22,1,1,0,0,1-.62-.77C208.54,132.67,208.58,133.32,209.24,133.44Z" style="fill:#dda078"/><path d="M214.85,129.93a.26.26,0,1,0,.51.09.26.26,0,0,0-.51-.09Z" style="fill:#fff"/><path d="M207.75,128.65a.26.26,0,0,0,.21.31.26.26,0,1,0,.09-.52A.25.25,0,0,0,207.75,128.65Z" style="fill:#fff"/><g style="opacity:0.6000000000000001"><path d="M214.38,133.8a2.11,2.11,0,1,0,4.15.74,2.15,2.15,0,0,0-1.72-2.49A2.11,2.11,0,0,0,214.38,133.8Z" style="fill:#f27034"/></g><g style="opacity:0.6000000000000001"><path d="M205.38,134.13a2.15,2.15,0,0,0,.06-4.24,2.83,2.83,0,0,0-.41,0A12.79,12.79,0,0,0,205.38,134.13Z" style="fill:#f27034"/></g><path d="M214.15,272.43,210,272.1s-3.38-17.76-.52-33.67c3.86-21.45,13.9-46.09,13.9-46.09l14,4s-9.33,22.6-14.19,38S214.15,272.43,214.15,272.43Z" style="fill:#37499b"/><path d="M214.15,272.43,210,272.1s-3.38-17.76-.52-33.67c3.86-21.45,13.9-46.09,13.9-46.09l14,4s-9.33,22.6-14.19,38S214.15,272.43,214.15,272.43Z" style="fill:#f27034"/><path d="M242.33,193.29c0,3.79.92,1.9,0,12.8s-11.09,19.42,0,35.54c9.24,13.43,19.39,25.58,19.39,25.58L259,269.58s-28.24-19.72-33.25-34.11c-6.93-19.91-2.54-43.36-2.54-43.36Z" style="fill:#ed6129"/><path d="M245.21,148.87s-1.73,0-2.42,9a70.18,70.18,0,0,0,.58,16.11,50.91,50.91,0,0,1-2.55-17.29c.14-3.69.81-7.23,2.43-8.41S245.21,148.87,245.21,148.87Z" style="fill:#010001"/><path d="M230.73,141.18c-6.51,1.82-8.55,5.73-7.34,6.44,1.38.81,5.65-5.63,9.9-5.5,5,.15,6.29,2.65,8.56,5.59,4,5.22,5.46,3.51,1.08-1.87C240.83,143.27,236.86,139.47,230.73,141.18Z" style="fill:#010001"/><path d="M225.58,147.32c8.3,1.2,10,9.25,13.26,19.86,3.59,11.84,2.08,12.91,3,19,1,6.59.37,12.66,1.2,14,2,3.15,6.77,2.16,9.41,1.63,2.85-.57,5.5,0,6.45-2.43.8-2,.85-5,.08-9.94-1.7-10.8-4.83-30.08-9.5-42,5.61,3.14,2-3.18-2.52-6.22-5.35-3.57-12.68.13-17.75,1.94C225.4,144.45,225.17,147.26,225.58,147.32Z" style="fill:#feb01f"/><path d="M237.17,158.74a69.21,69.21,0,0,0,8-1.43,65.44,65.44,0,0,0,7.24-2.41,1,1,0,0,0,.53-1.11c-.09-.48-.54-.76-.74-.66-4.53,2.3-15.43,4-15.43,4Z" style="fill:#010001"/><path d="M237.87,162.3s4.73-.65,8-1.42c5.63-1.31,7.9-2.53,7.24-2.42a1,1,0,0,0,.52-1.11c-.08-.48-.54-.76-.74-.65-4.52,2.3-15.43,4-15.43,4Z" style="fill:#010001"/><path d="M238.8,139c-6.61,1.42-9.41,5.93-9.87,8.77-.08.48,1.53.45,1.62.24,1.61-3.79,6.57-7.46,10.8-7.74a9.07,9.07,0,0,1,8.56,5.26c2.66,5.13,4.81,4,1.09-1.87C249.2,140.89,245.82,137.52,238.8,139Z" style="fill:#010001"/><path d="M242.31,191.4a87.18,87.18,0,0,0,8.95-1.62,73.88,73.88,0,0,0,7.74-2.53,1.05,1.05,0,0,0,.58-1.12c-.09-.48-.56-.76-.78-.65-4.85,2.38-16.58,4.29-16.58,4.29Z" style="fill:#010001"/><path d="M242.09,188.17a81.86,81.86,0,0,0,8.59-1.55,75.27,75.27,0,0,0,7.74-2.54A1.05,1.05,0,0,0,259,183c-.09-.48-.57-.75-.78-.65-4.85,2.38-16.35,4.24-16.35,4.24Z" style="fill:#010001"/><path d="M228.47,147.56s-2.49,0-3.6,3.89,7,12.25,7,12.25S222,160.36,222,150.88a4.88,4.88,0,0,1,4.93-4.66A1.8,1.8,0,0,1,228.47,147.56Z" style="fill:#010001"/><path d="M216.11,150s-2.19,1.84-2.42,7a41.88,41.88,0,0,0,.46,9s-2.54-3.08-2.77-9.72c-.13-3.69,1.2-5.48,2.73-6.78S216.11,150,216.11,150Z" style="fill:#010001"/><path d="M205.69,121.34c3.29-8,13.35-13.15,22.66-6.6,12.82,9,5.61,19.53,6.37,20,2.53,1.78,1,5.46-1.12,7.67-.34.36-2.81-.63-2.81-.63s1.21,1.8,1,1.91a6.24,6.24,0,0,1-.76.28,6,6,0,0,1-3.82.14c-1-.36-1.93-2-1.93-2s.49,1.58.19,1.47a11.2,11.2,0,0,1-1.71-.83c-3.9-2.31-.63-7.45-.11-11.5.35-2.75-2.76-5.09-3.65-4.27a4.48,4.48,0,0,1-2.7,1.13c-.26,0-1.73-1.25-2-1.25s1.19,1.31.95,1.29a4.61,4.61,0,0,1-2.34-.41,16.26,16.26,0,0,1-4.17-3.15c-.3-.32,1.07,1.93.69,1.73C207.45,124.8,205.2,122.56,205.69,121.34Z" style="fill:#000200"/><path d="M245.1,206.11c-.39-1.3.58-14.06-3.16-24.62-3.35-9.43-8.88-16.4-15.09-24.21-2.46-3.1-3.08-7.07.19-9.07,2.89-1.77,6,.91,7.67,3.08,2.29,3,5.66,7.42,7.6,10.66,5.16,8.65,7.49,16.85,7.34,24.89-.12,5.78-1.83,18.69-2,19.31C247.61,206.19,245.52,206.1,245.1,206.11Z" style="fill:#6acc8f"/><path d="M245,205.62a23.86,23.86,0,0,0-1.41,6.35,22.3,22.3,0,0,0,.09,2.75c0,.36.66,0,.93-.71a8,8,0,0,0,.38-2.29,9.57,9.57,0,0,1,.82,2.74c.53,2.48-1.28,6.1,1.19,4.23,2.8-2.13,3.26-4.08,2.9-5.49a76.08,76.08,0,0,0-2.32-7.27Z" style="fill:#fcc490"/><path d="M234.55,193.39s-8.36,25.83-4.29,38.14,29.87,36.77,29.87,36.77l.53-.55s-27.22-26.26-29.62-36.9c-2-8.79-.79-14.5.56-22.64a120.81,120.81,0,0,1,3.68-14.67Z" style="fill:#fff"/><path d="M214,272.57l-.41,6.76s-15.08-.68-15.22-2.38a1.41,1.41,0,0,1,.15-1c2.34-1.59,10.92-2,10.92-2l1.29-1.47Z" style="fill:#ffb42e"/><path d="M210.48,272l3.67.41-.51,6.15s-15.08-.67-15.22-2.37c-.13-1.48,11.07-3.06,11.07-3.06Z" style="fill:#000306"/><polygon points="207.1 275.98 206.6 276.09 206.1 273.68 206.6 273.61 207.1 275.98" style="fill:#fff"/><polygon points="208.12 275.82 207.62 275.93 207.12 273.52 207.62 273.41 208.12 275.82" style="fill:#fff"/><polygon points="209.16 275.67 208.66 275.77 208.16 273.36 208.66 273.25 209.16 275.67" style="fill:#fff"/><path d="M259.42,269.86l2.3-1.8,4.79,4.67S256.33,284.16,255,283.18c-.2-.14-.6-.38-.67-.77.31-2.86,5.49-9.9,5.49-9.9Z" style="fill:#ffb42e"/><path d="M258.9,269.34l2.29-1.79,4.8,4.66s-10.19,11.43-11.55,10.45c-1.18-.85,4.82-10.67,4.82-10.67Z"/><polygon points="259.85 275.68 259.6 276.15 257.48 274.99 257.75 274.56 259.85 275.68" style="fill:#fff"/><polygon points="260.38 274.78 260.14 275.25 258.02 274.09 258.26 273.62 260.38 274.78" style="fill:#fff"/><polygon points="260.93 273.86 260.69 274.33 258.57 273.17 258.81 272.71 260.93 273.86" style="fill:#fff"/><rect x="219.12" y="174.58" width="13.47" height="8.03" transform="translate(25.41 -28.11) rotate(7.55)" style="fill:#2d1c1f"/><path d="M226.32,175.08a3.55,3.55,0,1,0,3,4A3.55,3.55,0,0,0,226.32,175.08Zm-.8,6a2.5,2.5,0,1,1,2.8-2.15A2.5,2.5,0,0,1,225.52,181.07Z" style="fill:#8b7b6c"/><path d="M225.69,177.56a.44.44,0,0,1-.52.35.45.45,0,0,1-.42-.47.45.45,0,0,1,.53-.35A.45.45,0,0,1,225.69,177.56Z" style="fill:#fff"/><rect x="221" y="172.94" width="1.54" height="1.06" transform="translate(24.7 -27.62) rotate(7.55)" style="fill:#8b7b6c"/><path d="M218.17,148.81c-.13,0-.32-.82-.87.26-1.66,3.19,2.35,25,2.35,25h.85C216.75,150.86,218.17,148.81,218.17,148.81Z" style="fill:#2d1c1f"/><path d="M235.4,167.76c-2,4.73-4.11,9.7-4.39,10l.93.55,4.08-9.7Z" style="fill:#2d1c1f"/><path d="M39.42,206.46c.09-1.26,5.08-11.94,5.29-22.37.19-9.31-1.59-17.26-4.41-26.17-1.11-3.53-1.07-7.18,2.4-7.77,3.07-.52,4.89,2.89,5.62,5.34,1,3.36,2.46,8.38,3.07,11.85,1.64,9.27,1,17.17-1.77,24a176.84,176.84,0,0,1-8,16S39.79,206.59,39.42,206.46Z"/><path d="M39.37,206.13s-2.08,2.14-3.64,3.65c-.41.93-1,4.05-.34,4.17,1.47.27,1.24-2.56,1.24-2.56a10.17,10.17,0,0,1-.71,2.75c-.83,2.39,1.32,4,3.54,4.17s-.1-1.92.31-3.31c1.09-3.57,1.89-7.64,1.89-7.64Z" style="fill:#fcc490"/><path d="M39.17,141.69a15.28,15.28,0,0,0,5,.78.5.5,0,0,1,.52.38c.36,1.58,1.44,6,1.63,6.64a2.4,2.4,0,0,0,4.68-1c-.1-1.87-.3-4.67-.27-5.58.78-.13,3,.33,3.73.09a6.06,6.06,0,0,0,4-4.64c.84-3.3,1.73-6.61,2.27-10a11,11,0,0,0-4.18-10.77,19.67,19.67,0,0,0-8.75-4.13,7.36,7.36,0,0,0-6.33,1.78c-4.21,3.43-9.7,10.39-8.91,17.71A10.53,10.53,0,0,0,39.17,141.69Z" style="fill:#fcc490"/><path d="M40.85,152.38c.27-2.77,10.91-4.64,15-4s5.52,4.1,7.09,7.8c2.47,5.81,7.21,24.68,7,38.19,0,0-15.64-1.61-19.4-1.42C48.42,184.18,39,171.13,40.85,152.38Z"/><path d="M41.73,130.58a.66.66,0,1,0,1.29.23.68.68,0,0,0-.53-.78A.66.66,0,0,0,41.73,130.58Z"/><path d="M34.61,129.26a.68.68,0,1,0,1.33.24.69.69,0,0,0-.55-.8A.68.68,0,0,0,34.61,129.26Z"/><path d="M35.7,135.29c1.77.76,4.08,1.23,5.53.76a3.08,3.08,0,0,1-.53,1.29c-.55.65-1.11.9-2.46.68a2.57,2.57,0,0,1-2.1-1.17A3.57,3.57,0,0,1,35.7,135.29Z" style="fill:#ef6129"/><path d="M37.32,135.25a9.54,9.54,0,0,0,2.35.39c.52,0,1.25.45,1.25.65a1.88,1.88,0,0,1-.26.39c-.54.61-1.08.84-2.38.63a2.51,2.51,0,0,1-2-1.12,2.29,2.29,0,0,1-.3-.69C35.87,135.24,36.8,135.1,37.32,135.25Z" style="fill:#c04d34"/><path d="M40.48,136.12c-.47.76-1.34.64-2.42.47s-1.59-.26-1.89-1.14A15.42,15.42,0,0,0,40.48,136.12Z" style="fill:#fbf8de"/><path d="M35.66,135.27c.69-.7,1.08-.22,2.43-.06a6.51,6.51,0,0,1,3.15.87,8.62,8.62,0,0,1-3.05-.13A12.85,12.85,0,0,1,35.66,135.27Z" style="fill:#ef6129"/><path d="M36.82,134l1.67.3a.76.76,0,0,0,.85-.92,1.16,1.16,0,0,1-.72.38c-.67.1-1.66-.07-1.92-.48a1.57,1.57,0,0,1-.23-.7l-.17.28A.77.77,0,0,0,36.82,134Z" style="fill:#dda078"/><path d="M42.44,130.52a.27.27,0,0,0,.21.3.25.25,0,0,0,.29-.22.26.26,0,0,0-.2-.3A.27.27,0,0,0,42.44,130.52Z" style="fill:#fff"/><path d="M35.34,129.23a.26.26,0,0,0,.21.31.25.25,0,0,0,.3-.21.26.26,0,0,0-.21-.31A.25.25,0,0,0,35.34,129.23Z" style="fill:#fff"/><g style="opacity:0.4"><path d="M42,134.38a2.14,2.14,0,0,0,1.71,2.48,2.1,2.1,0,0,0,2.44-1.74,2.15,2.15,0,0,0-1.71-2.49A2.12,2.12,0,0,0,42,134.38Z" style="fill:#ef6129"/></g><g style="opacity:0.4"><path d="M33,134.71a2.15,2.15,0,0,0,.06-4.24l-.41,0A12.79,12.79,0,0,0,33,134.71Z" style="fill:#ef6129"/></g><path d="M36,250.07A75.89,75.89,0,0,1,37.08,239C40.93,217.56,51,192.93,51,192.93l14,4s-9.33,22.6-14.2,38c-1.63,5.16-3.19,11.14-4.53,16.81Z" style="fill:#ffb42e"/><path d="M76.43,251.32c-2.13-2.87-4.35-6-6.52-9.11-11.08-16.11-.92-24.64,0-35.54s0-9,0-12.8l-19.17-1.18s-4.38,23.46,2.54,43.36c2.25,6.43,9.13,13.94,16.06,20.27l4-2.8C73.61,253.25,76.43,251.32,76.43,251.32Z" style="fill:#ffb42e"/><path d="M72.8,149.45s-1.73,0-2.43,9A70.81,70.81,0,0,0,71,174.56a50.77,50.77,0,0,1-2.54-17.29c.14-3.69.81-7.23,2.43-8.41S72.8,149.45,72.8,149.45Z" style="fill:#010001"/><path d="M58.32,141.76c-6.52,1.82-8.56,5.73-7.34,6.45,1.38.81,5.65-5.64,9.89-5.51,5.05.15,6.3,2.65,8.56,5.59,4,5.22,5.46,3.51,1.09-1.86C68.42,143.85,64.44,140.05,58.32,141.76Z" style="fill:#ffb42f"/><path d="M59.38,148.19l3.42-.94c1.4-.38,2.13-2.24,1.64-4.13s-2-3.12-3.43-2.74l-3.42.94c-1.4.38-2.14,2.24-1.65,4.13S58,148.57,59.38,148.19Z" style="fill:#805365"/><path d="M53.17,147.9c9.73,1.44,10,9.25,13.26,19.86,3.58,11.84,2.08,12.91,3,19,1,6.59.36,12.67,1.19,14,2,3.15,6.77,2.16,9.42,1.63,2.85-.57,5.5-.05,6.45-2.43.79-2,.85-5,.07-9.94-1.7-10.8-4.83-30.08-9.49-42.05,5.61,3.14,2-3.18-2.53-6.22-5.34-3.57-12.7.45-17.77,2.27C53,145.35,52.76,147.84,53.17,147.9Z" style="fill:#7c8956"/><path d="M64.75,159.32a71,71,0,0,0,8-1.42A64.25,64.25,0,0,0,80,155.48a1,1,0,0,0,.53-1.11c-.09-.48-.54-.76-.75-.65-4.52,2.3-15.43,4-15.43,4Z" style="fill:#ffb42f"/><path d="M65.46,162.88s4.73-.65,8-1.42c5.64-1.31,7.91-2.52,7.24-2.42a1,1,0,0,0,.53-1.11c-.09-.47-.54-.76-.74-.65-4.53,2.3-15.43,4-15.43,4Z" style="fill:#ffb42f"/><path d="M66.38,139.61c-6.6,1.42-9.4,5.93-9.86,8.77-.08.48,1.52.45,1.61.24,1.62-3.79,6.57-7.45,10.81-7.74a9.09,9.09,0,0,1,8.56,5.26c2.66,5.13,4.81,4,1.08-1.87C76.79,141.47,73.41,138.1,66.38,139.61Z" style="fill:#ffb42f"/><path d="M69.9,192a89.49,89.49,0,0,0,8.95-1.61,75.27,75.27,0,0,0,7.74-2.54,1,1,0,0,0,.57-1.12c-.08-.48-.56-.75-.78-.65-4.85,2.38-16.58,4.29-16.58,4.29Z" style="fill:#ffb42f"/><path d="M69.68,188.75a81.87,81.87,0,0,0,8.58-1.55A75,75,0,0,0,86,184.66a1,1,0,0,0,.57-1.12c-.08-.48-.56-.75-.78-.64-4.85,2.37-16.34,4.23-16.34,4.23Z" style="fill:#ffb42f"/><path d="M56.06,148.15s-2.49,0-3.61,3.88,7,12.25,7,12.25-9.86-3.34-9.86-12.82a4.88,4.88,0,0,1,4.93-4.66A1.83,1.83,0,0,1,56.06,148.15Z" style="fill:#ffb42f"/><path d="M43.7,150.57s-2.19,1.84-2.42,7.05a41.1,41.1,0,0,0,.46,9s-2.54-3.08-2.77-9.72c-.13-3.68,1.2-5.48,2.73-6.78S43.7,150.57,43.7,150.57Z" style="fill:#ffb42f"/><path d="M33.28,121.92c3.28-8,13.35-13.15,22.66-6.6,12.82,9,5.61,19.53,6.36,20.06,2.54,1.77,1,5.46-1.11,7.66-.34.36-2.81-.63-2.81-.63s1.21,1.81,1,1.91a6.92,6.92,0,0,1-.76.28,6,6,0,0,1-3.82.14c-1-.36-1.94-2-1.94-2s.49,1.57.19,1.46a11.57,11.57,0,0,1-1.7-.83c-3.9-2.31-.63-7.45-.11-11.5.35-2.74-2.77-5.09-3.65-4.27a4.48,4.48,0,0,1-2.7,1.13c-.27,0-1.73-1.24-2-1.25s1.19,1.31,1,1.29a4.63,4.63,0,0,1-2.35-.41,16.26,16.26,0,0,1-4.17-3.15c-.3-.31,1.08,1.93.7,1.73C35,125.38,32.78,123.14,33.28,121.92Z" style="fill:#ef6129"/><path d="M72.69,206.7c-.39-1.31.58-14.06-3.17-24.63-3.34-9.43-8.87-16.4-15.08-24.21-2.46-3.1-3.08-7.07.19-9.07,2.89-1.77,6,.91,7.67,3.08,2.28,3,5.66,7.42,7.59,10.66,5.16,8.65,7.5,16.85,7.34,24.89a192.1,192.1,0,0,1-2,19.31S73.11,206.68,72.69,206.7Z"/><path d="M72.58,206.2a23.42,23.42,0,0,0-1.41,6.35,20.49,20.49,0,0,0,.09,2.75c0,.36.66,0,.93-.71a7.76,7.76,0,0,0,.37-2.28,9,9,0,0,1,.83,2.73c.53,2.48-1.28,6.1,1.18,4.23,2.8-2.13,3.27-4.08,2.91-5.49a75.66,75.66,0,0,0-2.33-7.27Z" style="fill:#fcc490"/><path d="M74,253.54c-7-7.82-14.23-16.87-15.42-22.11-2-8.78-.79-14.5.57-22.64a119.65,119.65,0,0,1,3.67-14.67l-.73-.14s-8.36,25.82-4.28,38.13C59.79,238,66.64,246.57,73.29,254Z" style="fill:#fff"/><path d="M41.59,273.15l-.41,6.76s-15.09-.67-15.23-2.38a1.47,1.47,0,0,1,.15-1c2.34-1.58,10.92-2,10.92-2l1.3-1.47Z" style="fill:#ffb42e"/><path d="M38.06,272.61l3.68.4-.51,6.15s-15.09-.67-15.23-2.37c-.12-1.48,11.07-3.06,11.07-3.06Z" style="fill:#000306"/><polygon points="34.69 276.56 34.19 276.67 33.69 274.26 34.18 274.2 34.69 276.56" style="fill:#fff"/><polygon points="35.71 276.4 35.2 276.51 34.71 274.1 35.21 273.99 35.71 276.4" style="fill:#fff"/><polygon points="36.74 276.25 36.24 276.36 35.74 273.94 36.25 273.84 36.74 276.25" style="fill:#fff"/><path d="M87,270.44l2.3-1.79,4.79,4.66s-10.19,11.43-11.55,10.45c-.2-.14-.59-.38-.67-.77.32-2.86,5.49-9.9,5.49-9.9Z" style="fill:#ffb42e"/><path d="M86.48,269.92l2.3-1.79,4.79,4.66S83.39,284.23,82,283.24c-1.18-.85,4.83-10.66,4.83-10.66Z" style="fill:#000306"/><polygon points="87.43 276.26 87.19 276.73 85.07 275.57 85.34 275.14 87.43 276.26" style="fill:#fff"/><polygon points="87.96 275.36 87.72 275.83 85.6 274.67 85.84 274.2 87.96 275.36" style="fill:#fff"/><polygon points="88.52 274.44 88.27 274.91 86.15 273.75 86.39 273.29 88.52 274.44" style="fill:#fff"/><polygon points="70.15 255.75 86.48 269.92 88.78 268.13 75.81 251.76 70.15 255.75" style="fill:#fcc490"/><polygon points="37.51 250.32 38.06 272.61 41.74 273.01 44.93 251.54 37.51 250.32" style="fill:#fcc490"/><polygon points="37.24 269.54 42.77 269.92 42.41 273.01 37.51 272.61 37.24 269.54" style="fill:#ef6129"/><polygon points="83.49 268.65 87.72 265.14 89.79 267.44 85.6 270.85 83.49 268.65" style="fill:#ef6129"/><path d="M35.59,118s7.37-10.22,16-5.68,13,7.65,12.1,15.6c-.77,6.5-16.92-4.46-16.87-4.46s-.56,3.42-7.36.25c-4.65-2.17-8.58-3.57-8.45-5.84C31.07,116.17,35.59,118,35.59,118Z" style="fill:#6acc8f"/><path d="M406.59,194.57H381.86c-3,0-4.94-2.51-5.48-5.49-1.39-7.68,0-34.37,0-34.37a5.48,5.48,0,0,1,5.48-5.48h24.73a5.48,5.48,0,0,1,5.48,5.48s1.34,25.43,0,34.37C411.63,192.08,409.62,194.57,406.59,194.57Z"/><path d="M387.09,137.76h14.5c1.69,0,4.57,2.22,5,3.85l2.59,10.26a3.68,3.68,0,0,1-3.6,4.55H382.2a3.67,3.67,0,0,1-3.55-4.72l3.4-11C382.53,139.16,385.45,137.76,387.09,137.76Z"/><rect x="376.71" y="190.4" width="41.08" height="15.7" transform="translate(-1.15 2.31) rotate(-0.33)" style="fill:#ef6129"/><path d="M425.52,198.08a7.74,7.74,0,1,1-7.78-7.8A7.79,7.79,0,0,1,425.52,198.08Z" style="fill:#ef6129"/><path d="M383.21,198.33a7.74,7.74,0,1,1-7.78-7.81A7.79,7.79,0,0,1,383.21,198.33Z" style="fill:#ef6129"/><g style="opacity:0.4"><path d="M424.05,198.09a6.27,6.27,0,1,1-6.3-6.23A6.27,6.27,0,0,1,424.05,198.09Z" style="fill:#000306"/></g><path d="M422.54,198.1a4.75,4.75,0,1,1-4.78-4.72A4.76,4.76,0,0,1,422.54,198.1Z" style="fill:#ef6129"/><g style="opacity:0.4"><path d="M420.37,198.11a2.59,2.59,0,1,1-2.6-2.57A2.58,2.58,0,0,1,420.37,198.11Z" style="fill:#000306"/></g><path d="M390.58,142s1.79-4.77-2-6.57a13.48,13.48,0,0,1-5.77-5.51c-1.58.92-1.73-2.45-2-4.45a12.1,12.1,0,0,1-.14-2c0-.27,0-.53,0-.78.45-7.16,6.85-11.91,14.11-11.59,8.05.35,11.74,5.6,12,11.9.13,3.4-.22,7-1.66,6.63a20,20,0,0,1-6,6c-2.19,1.25-1.72,4.22-1.57,6a1.2,1.2,0,0,0,.94,1.08s4.2,1.26,4,2.32c-.53,3.41-1.84,5.78-8.05,6-6.95.21-7.56-3.89-8.15-5.77a1.22,1.22,0,0,1,.88-1.57S390.58,142.52,390.58,142Z" style="fill:#fcc490"/><path d="M390.3,130.17c-.38.35,1.31,2.11,3.45,2.17,2.41.06,3.71-1.84,3.41-2.13s-1.21.19-3.21.25C391.76,130.53,390.61,129.89,390.3,130.17Z" style="fill:#cd3045"/><path d="M391.37,130.22a3.63,3.63,0,0,0,2.29,1,2.71,2.71,0,0,0,2.66-1A17.84,17.84,0,0,1,391.37,130.22Z" style="fill:#f3e6cf"/><path d="M389.9,125.28a.86.86,0,1,1-.85-.85A.85.85,0,0,1,389.9,125.28Z"/><path d="M399.34,125.23a.88.88,0,1,1-.88-.88A.88.88,0,0,1,399.34,125.23Z"/><circle cx="388.67" cy="125.05" r="0.33" style="fill:#fff"/><path d="M398.41,125a.34.34,0,1,1-.34-.34A.34.34,0,0,1,398.41,125Z" style="fill:#fff"/><path d="M392.92,129.17l1.7-.18a.75.75,0,0,0,.58-1.11,1.14,1.14,0,0,1-.59.56,2.08,2.08,0,0,1-1.89.08c-.32-.28.22-1.91.72-3.21-.33,0-.82,1-.92,1.35l-.42,1.58A.75.75,0,0,0,392.92,129.17Z" style="fill:#dda078"/><path d="M390.67,119.91c3-2.07,6.22-4.24,8-3.06s6,10,6,10,.52-2.89,2-2.36c.76-2.37.44-6.61-3.55-10.37-2.74-2.58-7-3.25-9.57-3s-6.94.57-9.71,3.81a11.82,11.82,0,0,0-3.24,9.18c1.45-.39,2.45.79,2.32,2.76A47.67,47.67,0,0,1,390.67,119.91Z"/><polygon points="394.32 275.36 391.32 275.36 390.66 270.58 394.05 270.58 394.32 275.36" style="fill:#fcc490"/><polygon points="411.28 275.01 408.36 275.05 407.92 269.97 411.59 269.97 411.28 275.01" style="fill:#fcc490"/><path d="M382,190.66a101.68,101.68,0,0,0-2.83,20.42c-.47,11.1,8,50.09,11,60.26,3.93.23,4.19.26,4.19.26l1.32-59.29L409.5,190.2l-11.56-5.09Z" style="fill:#38735f"/><path d="M396,216s8.54,46.68,11.72,57a47.36,47.36,0,0,1,5-.37s.62-49.05-.84-59.14-2.26-17.22-2.26-17.22l-15.79-8.41Z" style="fill:#38735f"/><path d="M409.26,138.45l3.56,14.64s-1.38-5.67-5.81-8.16c-1.82-1-7.34-2.94-7.21-2.94.39,9.57-13.17,8.7-11.42.13,0,0-5.15,2.59-5.73,2.84-3.23,1.39-3.51,8.13-3.51,8.13l2.67-14.36s-3.65-.07-4.27-1.53c-15.64,22.39-16.69,41-6.82,41.45,6.14.25,10.75-16.55,10.75-16.55l-2,37.44h30.43l-3.15-38s6.86,23.89,16.08,16.7c9-7-9.89-42.41-9.89-42.41Z" style="fill:#feb329"/><rect x="387.19" y="126.56" width="13.47" height="8.03" style="fill:#2d1c1f"/><path d="M393.92,127a3.55,3.55,0,1,0,3.55,3.54A3.55,3.55,0,0,0,393.92,127Zm0,6a2.5,2.5,0,1,1,2.5-2.5A2.5,2.5,0,0,1,393.92,133.07Z" style="fill:#8b7b6c"/><path d="M393.63,129.57a.48.48,0,1,1-.48-.42A.45.45,0,0,1,393.63,129.57Z" style="fill:#fff"/><rect x="388.43" y="125.49" width="1.54" height="1.06" style="fill:#8b7b6c"/><path d="M377.54,137.2c.33-1,3.16-5.9,5.26-7.32s5.63-3.32,5.63-3.32a2.62,2.62,0,0,1,1.06,3.72c-1.41,2.37-3.08,3.27-4.42,5.25s-2.34,3.2-4.48,3.56A2.68,2.68,0,0,1,377.54,137.2Z" style="fill:#fcc490"/><path d="M377.54,137.2c.33-1,3.16-5.9,5.26-7.32s5.63-3.32,5.63-3.32a2.62,2.62,0,0,1,1.06,3.72c-1.41,2.37-3.08,3.27-4.42,5.25s-2.34,3.2-4.48,3.56A2.68,2.68,0,0,1,377.54,137.2Z" style="fill:#fcc490"/><path d="M413,136.52c-.33-1-3.16-5.9-5.26-7.32s-5.63-3.33-5.63-3.33A2.63,2.63,0,0,0,401,129.6c1.41,2.36,3.09,3.27,4.42,5.24s2.35,3.21,4.48,3.56A2.67,2.67,0,0,0,413,136.52Z" style="fill:#fcc490"/><path d="M391.52,274.73l2.86,0,.87,6.54s-14.81,2.64-15.27,1a1.37,1.37,0,0,1-.05-1c2-2,10.25-4.32,10.25-4.32Z" style="fill:#ffb42e"/><path d="M391.42,274h2.87l.87,6.55s-14.82,2.64-15.27,1.05c-.4-1.38,10.2-5.33,10.2-5.33Z"/><polygon points="388.3 279.51 387.83 279.72 386.9 277.53 387.37 277.36 388.3 279.51" style="fill:#fff"/><polygon points="389.26 279.13 388.79 279.35 387.86 277.15 388.33 276.94 389.26 279.13" style="fill:#fff"/><polygon points="390.25 278.76 389.78 278.97 388.84 276.78 389.31 276.57 390.25 278.76" style="fill:#fff"/><path d="M411.12,275.79h-2.86l-.88,6.55s14.82,2.64,15.28,1a1.43,1.43,0,0,0,0-1c-2-2-10.25-4.32-10.25-4.32Z" style="fill:#ffb42e"/><path d="M411.21,275.07h-2.86l-.88,6.54s14.82,2.65,15.28,1.06c.4-1.39-10.21-5.33-10.21-5.33Z"/><polygon points="414.33 280.57 414.8 280.78 415.74 278.59 415.27 278.42 414.33 280.57" style="fill:#fff"/><polygon points="413.37 280.19 413.84 280.4 414.78 278.21 414.31 278 413.37 280.19" style="fill:#fff"/><polygon points="412.39 279.82 412.86 280.03 413.8 277.84 413.33 277.63 412.39 279.82" style="fill:#fff"/><path d="M387.08,142.22s-2-1.32-3.08,0-6.77,21.88-6.46,24.15a9.31,9.31,0,0,0,1.6,4Z"/><path d="M401.71,142.71s1.55-1.58,2.8-.92c1.57.83,7,21.64,6.65,24.4a13.92,13.92,0,0,1-1.76,5Z"/><path d="M386.34,124.43c0-.66.82-1.25,1.85-1.56a3.33,3.33,0,0,1,2.71.28c.22.14.67,1-.52.93a5,5,0,0,0-2.8.35C386.6,125,386.34,124.43,386.34,124.43Z"/><path d="M401.15,124.43c0-.66-.82-1.25-1.85-1.56a3.33,3.33,0,0,0-2.71.28c-.22.14-.67,1,.52.93a5,5,0,0,1,2.8.35C400.89,125,401.15,124.43,401.15,124.43Z"/><path d="M161.15,163.41c1.39,12.32,1.16,13,1.62,19.19.5,6.65.42,13.8,1.16,15.16,1.78,3.29,5.63,1.51,8.31,1.19,2.89-.36,5.49.36,6.6-1.95.94-1.93,1.21-4.93.79-9.9-.93-10.9-2.67-30.36-6.47-42.65,5.37,3.56,2.25-3-2.08-6.4-5.07-4-12.27-1-17.46.43a7.57,7.57,0,0,0-4.28,3.12C153.52,141.13,159.77,151.09,161.15,163.41Z" style="fill:#438068"/><path d="M160.23,154.61a75.2,75.2,0,0,0,8-.86,64.65,64.65,0,0,0,7.39-1.87,1,1,0,0,0,.6-1.07.74.74,0,0,0-1.08-.55c-4.78,2.05-15.15,2.67-15.15,2.67Z" style="fill:#ffb42e"/><path d="M160.94,158.43a73.53,73.53,0,0,0,8.34-.82,65.91,65.91,0,0,0,7.39-1.86,1,1,0,0,0,.61-1.07c-.05-.48-.5-.77-1.17-.52-4.91,1.84-15.44,2.65-15.44,2.65Z" style="fill:#ffb42e"/><path d="M163.12,135.21c-6.63,1.32-9.84,6.27-9.47,7,.22.42,1,.79,1.15.59,1.34-2.57,6.58-6.91,10.8-6.46,5,.53,7.71,5.19,9.45,8.89,1.06,2.27,2.45,1.6,1.33-.78a37.33,37.33,0,0,0-2.07-4C172.6,137.55,169.35,134,163.12,135.21Z" style="fill:#ffb42e"/><path d="M163.07,187.66a81.36,81.36,0,0,0,8.86-.9,72.88,72.88,0,0,0,7.9-1.95,1,1,0,0,0,.65-1.07c0-.48-.5-.79-.73-.7-5,2-16.75,3-16.75,3Z" style="fill:#ffb42e"/><path d="M162.89,184.18s5.46-.32,9-1a72.88,72.88,0,0,0,7.9-1.95,1,1,0,0,0,.65-1.07c0-.49-.5-.8-.73-.71-5,2-17,3-17,3Z" style="fill:#ffb42e"/><rect x="142.57" y="115.5" width="17.46" height="45.69" transform="translate(9.59 286.51) rotate(-88.71)" style="fill:#feb329"/><path d="M182.75,139.05a8.61,8.61,0,1,1-8.41-8.92A8.67,8.67,0,0,1,182.75,139.05Z" style="fill:#feb329"/><path d="M135.69,138a8.6,8.6,0,1,1-8.41-8.93A8.67,8.67,0,0,1,135.69,138Z" style="fill:#feb329"/><g style="opacity:0.30000000000000004"><circle cx="174.14" cy="138.86" r="6.97" transform="translate(-47.61 159.73) rotate(-43.95)" style="fill:#000306"/></g><path d="M179.43,139a5.29,5.29,0,1,1-5.17-5.4A5.3,5.3,0,0,1,179.43,139Z" style="fill:#feb329"/><g style="opacity:0.30000000000000004"><path d="M177,138.93a2.88,2.88,0,1,1-2.81-2.94A2.87,2.87,0,0,1,177,138.93Z" style="fill:#000306"/></g><path d="M109.24,184.62a17.08,17.08,0,0,0-4,.51c-3.82.89-5.19-2.51-6.24-1.72a21.22,21.22,0,0,0-3,2.44.87.87,0,0,0,.78,1.34c-.6.19-.26,1.69.64,1.55a.86.86,0,0,0,.62,1.48c-.35.66.61,1.16,1.39,1.2,1.61.07,6.27-2.16,7.43-3.42a15.09,15.09,0,0,1,3.78-1Z" style="fill:#fcc490"/><polygon points="149.11 268.62 150.62 267.64 97.31 181.61 95.8 182.59 149.11 268.62" style="fill:#1e183c"/><path d="M138.45,273.18,131.14,272s-3.37-17.77-.51-33.67c3.86-21.46,13.15-46,13.15-46l14.75,4s-9.33,22.6-14.2,38S138.45,273.18,138.45,273.18Z" style="fill:#6e4198"/><path d="M138.45,273.18,131.14,272s-3.37-17.77-.51-33.67c3.86-21.46,13.15-46,13.15-46l14.75,4s-9.33,22.6-14.2,38S138.45,273.18,138.45,273.18Z" style="fill:#000306"/><path d="M132.41,148.33c-.93,1.14-2,3.67-2.55,7.61-.85,6.29.2,8.85-5.42,16.58-6.12,8.41-17.79,12.32-17.79,12.32l.67,3.2a132.18,132.18,0,0,0,21.62-9.36c13.06-7.39,18.58-24.69,14.47-29.17S133,147.65,132.41,148.33Z" style="fill:#ef6129"/><path d="M163.45,193.15s0,0,0,0c-7.1,1.24-21.39,3.45-21.51,3-1.54-6.19-5-23.48-6.68-28.47-.53-1.62-5.84-18-2.37-19.73a37.54,37.54,0,0,1,5.57-1.75c3-1,5.65-2.79,8.69-3.55,6.5-1.61,9.61-.23,11.74,5.1C162.78,157.55,163.33,169,163.45,193.15Z" style="fill:#ef6129"/><path d="M151.72,126.12c-1.07,2.68-2.53,4.78-8,8.46-1.14.77,1.62,5.78,2.63,8.44.56,1.48-.66,3.15-1.3,3.73-1.33,1.22-5,1.95-6.29-.34s-2.56-6.72-2.82-6.94c-.61-.52-3.33-.15-6-1.54s-3.49-2.86-4.12-5.38c-.5-2-1.24-5.5-.66-8.23s2.17-5.56,4-9.43c2.79-5.73,10.22-5.32,16.25-1.21C152.13,118.26,152.53,124.07,151.72,126.12Z" style="fill:#fcc490"/><path d="M142.36,110c6.14,1.46,10.26,5.47,10.56,12.56.37,9-2.27,11.47-6.59,15.49-.07.06-4.42-5.16-3.3-6.11,5.05-4.31,1.29-7,.28-5.72-1.18,1.54-2.25,1.91-3,1.69-.37-.11,1.28-1.08,1.07-1.39-.12-.16-1.69,1.1-1.75.91a9.94,9.94,0,0,1-.1-1.85c-.21-2.62-1.8-2.87-4.07-3.93-1.64-.76-4.19-4.45-4.5-4.49s3.81,4.86,3.75,4.84a19.55,19.55,0,0,1-4.33-1.39c-1.54-.75-1.71-2.87-2-2.86-.15,0,1.54,3.33,1.34,3.28-1.17-.32-4.8.62-4.75.24C126.05,111.49,137.4,108.8,142.36,110Z" style="fill:#ef6129"/><path d="M133.38,126.76a.59.59,0,0,0,.55.68.68.68,0,0,0,.71-.59.61.61,0,0,0-.56-.68A.68.68,0,0,0,133.38,126.76Z" style="fill:#000200"/><path d="M126.81,126.24a.63.63,0,0,0,.58.72.72.72,0,0,0,.75-.62.64.64,0,0,0-.59-.72A.7.7,0,0,0,126.81,126.24Z" style="fill:#000200"/><path d="M127.73,132.85c1.8.67,4.13,1,5.53.27a4,4,0,0,1-.43,1.51,2.16,2.16,0,0,1-2.4,1,2.37,2.37,0,0,1-2.17-1.1A4.24,4.24,0,0,1,127.73,132.85Z" style="fill:#f8ae65"/><path d="M129.33,132.63a8.75,8.75,0,0,0,2.36.19c.52,0,1.26.37,1.28.61a3.27,3.27,0,0,1-.23.46,2.11,2.11,0,0,1-2.32,1,2.33,2.33,0,0,1-2.09-1.05,2.89,2.89,0,0,1-.35-.75C127.89,132.78,128.8,132.52,129.33,132.63Z" style="fill:#c04d34"/><path d="M132.52,133.27c-.42.92-1.28.88-2.37.8s-1.59-.13-2-1.09A13.29,13.29,0,0,0,132.52,133.27Z" style="fill:#fbf8de"/><path d="M127.68,132.83c.64-.87,1.06-.37,2.41-.33a5.67,5.67,0,0,1,3.19.65,7.59,7.59,0,0,1-3,.18A11.31,11.31,0,0,1,127.68,132.83Z" style="fill:#f8ae65"/><path d="M128.75,131.29a9,9,0,0,0,1.74.17.87.87,0,0,0,.72-1.14,1.32,1.32,0,0,1-.72.66c-.65.18-1.78,0-2-.37s-.12-1.06-.21-.79-.08.24-.08.24A.87.87,0,0,0,128.75,131.29Z" style="fill:#c4793b"/><path d="M134.07,126.68a.26.26,0,0,0,.22.3.27.27,0,0,0,.27-.26.25.25,0,0,0-.22-.29A.26.26,0,0,0,134.07,126.68Z" style="fill:#fff"/><path d="M127.53,126.19a.26.26,0,0,0,.23.3.29.29,0,0,0,.29-.26.27.27,0,0,0-.23-.3A.28.28,0,0,0,127.53,126.19Z" style="fill:#fff"/><path d="M132.54,125.21c0,.19.13.33.63.36.23,0,.7,0,1,0s.63.14.9.17c.52.08.72,0,.73-.23a.84.84,0,0,0-.65-.7,12.28,12.28,0,0,0-1.82-.13C132.82,124.73,132.55,125,132.54,125.21Z" style="fill:#ef6129"/><path d="M125.58,124.71c0,.19.14.33.64.36.23,0,.7,0,1,0s.64.14.91.17c.51.07.72-.06.73-.23a.84.84,0,0,0-.65-.7,12.38,12.38,0,0,0-1.82-.13A.81.81,0,0,0,125.58,124.71Z" style="fill:#ef6129"/><path d="M142.55,130.1c.43.22,1-.93,1.81-.58a2.55,2.55,0,0,0,.71-1.64c0-1.14-.62-1.54-1-1.52-.73,0-1.26,1.33-1,2.32C142.53,128.94,142.23,129.94,142.55,130.1Z" style="fill:#e59852"/><path d="M163.46,193.14c0,3.79.93,1.89,0,12.79s-11.08,19.43,0,35.54c9.25,13.44,19.4,25.59,19.4,25.59l-4.16,4.26s-26.28-21.84-31.86-36c-6.24-15.82.34-39.45.34-39.45Z" style="fill:#000306"/><path d="M151.92,142.2a3.13,3.13,0,0,0-3.33,2.13c-2.24,7.74,1.87,18.67,1.87,18.67s-7.08-7.75-4.55-17.72C147.67,138.36,151.92,142.2,151.92,142.2Z" style="fill:#ffb42e"/><path d="M157.46,170.86l-1.06,5.73a18.15,18.15,0,0,0,7,7.55c0-.71-.17-5.09-.17-5.09s-1.66.11-3.51-2.5A14.87,14.87,0,0,1,157.46,170.86Z" style="fill:#ffb42e"/><path d="M138.18,146.46s-1.57,1.91-2.43,9a96.48,96.48,0,0,0-.52,12.25,27.62,27.62,0,0,1-2.26-15c.6-3.64,1.63-5.68,3.24-6.86S138.18,146.46,138.18,146.46Z" style="fill:#ffb42e"/><path d="M154.91,194.59s-8.36,25.82-4.28,38.14,29.86,36.76,29.86,36.76l.54-.55S153.8,242.68,151.4,232c-2-8.78-.79-14.49.56-22.64a120.81,120.81,0,0,1,3.68-14.67Z" style="fill:#fff"/><path d="M132.69,272.88l3.12.51,0,7.42s-16.54.39-16.81-1.46a1.56,1.56,0,0,1,.09-1.13c2.44-1.91,11.79-3,11.79-3Z" style="fill:#ffb42e"/><path d="M132.69,272.06l3.12.51,0,7.42s-16.54.39-16.81-1.46c-.24-1.6,11.88-4.17,11.88-4.17Z" style="fill:#000306"/><polygon points="128.51 277.63 127.97 277.79 127.25 275.19 127.79 275.09 128.51 277.63" style="fill:#fff"/><polygon points="129.61 277.38 129.07 277.54 128.35 274.94 128.9 274.78 129.61 277.38" style="fill:#fff"/><polygon points="130.74 277.14 130.19 277.29 129.48 274.69 130.02 274.54 130.74 277.14" style="fill:#fff"/><path d="M178.91,271.1l2.68-1.72,4.77,5.58s-12.24,11.43-13.63,10.21a1.5,1.5,0,0,1-.65-.91c.63-3.09,7-10.23,7-10.23Z" style="fill:#ffb42e"/><path d="M178.39,270.48l2.68-1.72,4.77,5.58s-12.24,11.43-13.63,10.22c-1.21-1.06,6.31-11.15,6.31-11.15Z" style="fill:#000306"/><polygon points="178.79 277.5 178.49 277.98 176.28 276.5 176.62 276.06 178.79 277.5" style="fill:#fff"/><polygon points="179.47 276.57 179.16 277.05 176.96 275.57 177.26 275.09 179.47 276.57" style="fill:#fff"/><polygon points="180.16 275.63 179.85 276.11 177.65 274.63 177.96 274.14 180.16 275.63" style="fill:#fff"/><path d="M152.81,213.64c-.75.16-2.39-1.23-3.9-1.79.39-2.41,2-13.45,2.28-15.54,1.64-12.38,1.09-25.55-2.95-46.29-1.14-5.88,1.38-8.32,5.07-8,4.57.41,8.87,14.5,8.53,30.19C161.63,181.81,157.85,202.16,152.81,213.64Z" style="fill:#ef6129"/><path d="M150,212.39a15.72,15.72,0,0,0-4.06,5.26,25,25,0,0,0-1,2.85c-.11.38.68.25,1.22-.34A8.76,8.76,0,0,0,147.4,218a10.54,10.54,0,0,1-.26,3.14c-.45,2.76-3.72,5.72-.49,4.82,3.66-1,4.91-2.84,5.11-4.43a76.42,76.42,0,0,0,.53-8Z" style="fill:#fcc490"/><path d="M101.41,185.11a2.31,2.31,0,0,0-4.16,1.38,2.29,2.29,0,0,0,1.54,2.17A16.7,16.7,0,0,1,101.41,185.11Z" style="fill:#fcc490"/><path d="M277.84,185.12a17.29,17.29,0,0,0-4,.5c-3.82.9-5.19-2.5-6.24-1.71a22.07,22.07,0,0,0-3,2.43.87.87,0,0,0,.78,1.35c-.6.19-.27,1.68.64,1.55a.86.86,0,0,0,.62,1.48c-.36.65.6,1.16,1.38,1.19,1.62.08,6.28-2.15,7.44-3.42a14.85,14.85,0,0,1,3.77-1Z" style="fill:#f8ae65"/><polygon points="234.75 277.41 236.45 278.02 272.65 183.51 270.96 182.9 234.75 277.41" style="fill:#1e183c"/><rect x="309.17" y="193.77" width="45.69" height="17.46" transform="translate(83.76 -96.85) rotate(18.95)" style="fill:#6bcc96"/><path d="M361.76,212.71a8.6,8.6,0,1,1-5.3-11.05A8.66,8.66,0,0,1,361.76,212.71Z" style="fill:#6bcc96"/><ellipse cx="309.11" cy="194.63" rx="8.73" ry="8.61" transform="translate(24.63 423.76) rotate(-71.05)" style="fill:#6bcc96"/><g style="opacity:0.4"><path d="M360.22,212.18a7,7,0,1,1-4.33-8.86A7,7,0,0,1,360.22,212.18Z" style="fill:#000306"/></g><circle cx="353.62" cy="209.92" r="5.29" transform="translate(-47.66 119.98) rotate(-18.06)" style="fill:#6bcc96"/><g style="opacity:0.4"><path d="M356.34,210.85a2.87,2.87,0,1,1-1.78-3.65A2.87,2.87,0,0,1,356.34,210.85Z" style="fill:#000306"/></g><path d="M323.51,137.24c-6.62,1.32-9.83,6.28-9.46,7,.22.43,1,.8,1.15.59,1.34-2.56,6.58-6.9,10.8-6.45,5,.53,6.09,3.11,8.14,6.22,3.63,5.51,5.19,3.91,1.21-1.78C333.44,140.09,329.75,136,323.51,137.24Z" style="fill:#fff"/><path d="M290.44,235c.67-10.84,21.93-42.21,21.93-42.21l14.75,4S309.31,219.58,304.44,235Z" style="fill:#bab399"/><path d="M301,148.83c-.93,1.14-2,3.67-2.55,7.6-.85,6.3.2,8.86-5.43,16.59-6.12,8.41-17.78,12.32-17.78,12.32l.67,3.19a131.74,131.74,0,0,0,21.61-9.35c13.07-7.4,18.59-24.69,14.47-29.17S301.57,148.15,301,148.83Z" style="fill:#000306"/><path d="M332.05,193.65s0,0,0,0c-7.11,1.24-21.39,3.45-21.51,3-1.55-6.19-5.06-23.49-6.68-28.47-.53-1.62-5.84-18-2.38-19.73a38.3,38.3,0,0,1,5.57-1.75c3-1,5.66-2.8,8.69-3.55,6.51-1.61,9.61-.23,11.75,5.09C331.37,158.05,331.93,169.51,332.05,193.65Z" style="fill:#000306"/><path d="M320.31,126.62c-1.06,2.68-2.53,4.78-8,8.46-1.15.77,1.62,5.78,2.63,8.44.56,1.48-.66,3.14-1.3,3.73-1.34,1.22-5,1.95-6.29-.35s-2.56-6.71-2.83-6.93c-.61-.52-3.33-.16-6-1.54s-3.49-2.86-4.12-5.39c-.49-2-1.23-5.5-.66-8.22s2.17-5.56,4.06-9.43c2.78-5.74,10.21-5.32,16.25-1.21C320.73,118.76,321.12,124.57,320.31,126.62Z" style="fill:#f8ae65"/><path d="M311,110.48c6.15,1.46,9.77,7.1,9.67,14.19-.11,7.65-8.37,12.79-8.54,11.51-.18-1.44-1.06-3.25-.46-3.76,5.05-4.31,1.3-7,.28-5.72-1.17,1.53-2.24,1.9-3,1.68-.37-.1,1.27-1.07,1.06-1.38s-1.68,1.1-1.74.91a8.51,8.51,0,0,1-.1-1.85c-.21-2.62-1.8-2.87-4.08-3.93-1.63-.76-4.18-4.45-4.49-4.49s3.8,4.86,3.74,4.84a20,20,0,0,1-4.32-1.4c-1.54-.74-1.71-2.86-2-2.85-.15,0,1.54,3.33,1.33,3.27-1.16-.31-4.79.63-4.75.25C294.64,112,306,109.3,311,110.48Z" style="fill:#000200"/><path d="M302,127.26a.61.61,0,0,0,.56.68.67.67,0,0,0,.7-.59.59.59,0,0,0-.55-.68A.69.69,0,0,0,302,127.26Z" style="fill:#000200"/><path d="M295.4,126.74a.64.64,0,0,0,.59.72.72.72,0,0,0,.74-.63.62.62,0,0,0-.58-.71A.71.71,0,0,0,295.4,126.74Z" style="fill:#000200"/><path d="M296.32,133.35c1.81.66,4.14.94,5.54.27a4,4,0,0,1-.44,1.51,2.14,2.14,0,0,1-2.39,1,2.38,2.38,0,0,1-2.17-1.1A4.1,4.1,0,0,1,296.32,133.35Z" style="fill:#f8ae65"/><path d="M297.93,133.12a8.34,8.34,0,0,0,2.35.2c.52,0,1.27.37,1.29.6a2.56,2.56,0,0,1-.24.47,2.1,2.1,0,0,1-2.31,1,2.32,2.32,0,0,1-2.1-1,3.47,3.47,0,0,1-.34-.75C296.49,133.27,297.4,133,297.93,133.12Z" style="fill:#c04d34"/><path d="M301.12,133.77c-.42.91-1.28.87-2.37.79s-1.59-.12-1.95-1.09A13,13,0,0,0,301.12,133.77Z" style="fill:#fbf8de"/><path d="M296.27,133.33c.65-.87,1.07-.37,2.42-.33a5.64,5.64,0,0,1,3.18.65,7.59,7.59,0,0,1-3,.17A11.38,11.38,0,0,1,296.27,133.33Z" style="fill:#f8ae65"/><path d="M297.35,131.79a10,10,0,0,0,1.74.17.87.87,0,0,0,.71-1.14,1.29,1.29,0,0,1-.71.65c-.66.19-1.78.05-2-.36s-.11-1.06-.21-.8l-.07.25A.86.86,0,0,0,297.35,131.79Z" style="fill:#c4793b"/><path d="M302.66,127.18a.26.26,0,0,0,.22.29.27.27,0,0,0,.28-.25.26.26,0,0,0-.22-.29A.27.27,0,0,0,302.66,127.18Z" style="fill:#fff"/><path d="M296.13,126.68a.26.26,0,0,0,.23.31.28.28,0,0,0,.28-.26.27.27,0,0,0-.23-.31A.28.28,0,0,0,296.13,126.68Z" style="fill:#fff"/><path d="M301.13,125.71c0,.19.14.33.64.35.23,0,.69,0,1,0s.64.13.9.17c.52.07.72-.06.74-.23a.84.84,0,0,0-.65-.7,11.27,11.27,0,0,0-1.83-.13A.79.79,0,0,0,301.13,125.71Z" style="fill:#000200"/><path d="M294.18,125.2c0,.2.14.34.64.36.22,0,.69,0,1,0s.63.13.9.17c.52.07.72-.06.74-.23a.87.87,0,0,0-.65-.7,11.27,11.27,0,0,0-1.83-.13A.79.79,0,0,0,294.18,125.2Z" style="fill:#000200"/><path d="M311.15,130.6c.43.21,1-.93,1.81-.58a2.55,2.55,0,0,0,.71-1.64c0-1.14-.62-1.55-1-1.52-.72,0-1.26,1.32-1,2.32C311.12,129.44,310.83,130.44,311.15,130.6Z" style="fill:#e59852"/><path d="M332.06,193.63c0,3.79.92,1.9,0,12.8-.87,10.21-9.85,18.35-1.84,32.6l-10.17,6.48a62.89,62.89,0,0,1-4.62-9.7c-6.23-15.82.35-39.45.35-39.45Z" style="fill:#bab399"/><path d="M329.75,163.9c1.39,12.32,1.15,13,1.62,19.19.5,6.66.41,13.81,1.15,15.17,1.78,3.28,5.64,1.51,8.31,1.18,2.89-.35,5.49.36,6.61-1.94.94-1.93,1.21-4.93.78-9.9-.92-10.9-2.66-30.36-6.46-42.65,5.37,3.55,2.25-3-2.08-6.4-5.08-4-12.28-1-17.46.43a7.57,7.57,0,0,0-4.28,3.12C322.12,141.63,328.36,151.58,329.75,163.9Z" style="fill:#ef6129"/><path d="M328.82,155.11a76.46,76.46,0,0,0,8-.87,65.91,65.91,0,0,0,7.39-1.86,1,1,0,0,0,.61-1.07.74.74,0,0,0-1.09-.55c-4.78,2.05-15.14,2.67-15.14,2.67Z" style="fill:#ffb42e"/><path d="M329.54,158.93a73.53,73.53,0,0,0,8.34-.82,64.65,64.65,0,0,0,7.39-1.87,1,1,0,0,0,.6-1.06c-.05-.49-.5-.78-1.16-.53-4.91,1.84-15.44,2.66-15.44,2.66Z" style="fill:#ffb42e"/><path d="M331.71,135.7c-6.62,1.32-9.83,6.28-9.47,7,.23.43,1.05.8,1.16.59,1.34-2.56,6.57-6.9,10.8-6.45,5,.53,7.71,5.19,9.44,8.88,1.07,2.28,2.46,1.61,1.34-.77a35.8,35.8,0,0,0-2.08-4C341.2,138,338,134.46,331.71,135.7Z" style="fill:#ffb42e"/><path d="M331.66,188.16a81.36,81.36,0,0,0,8.86-.9,72.88,72.88,0,0,0,7.9-1.95,1,1,0,0,0,.66-1.07c-.05-.49-.51-.8-.73-.71-5,2-16.75,3-16.75,3Z" style="fill:#ffb42e"/><path d="M331.48,184.68s5.46-.33,9-1a75.73,75.73,0,0,0,7.9-1.95,1.06,1.06,0,0,0,.66-1.08c-.05-.48-.51-.79-.73-.7-5,2-17,3-17,3Z" style="fill:#ffb42e"/><path d="M320.51,142.69a3.14,3.14,0,0,0-3.33,2.13c-2.24,7.74,1.87,18.68,1.87,18.68s-7.08-7.75-4.54-17.73C316.27,138.85,320.51,142.69,320.51,142.69Z" style="fill:#ffb42e"/><path d="M326.06,171.36,325,177.09a17.61,17.61,0,0,0,3.14,4.46c2.08,2.13,3.46,3.32,3.46,2.61s-.46-4.74-.46-4.74-.92.23-2.77-2.37A14.87,14.87,0,0,1,326.06,171.36Z" style="fill:#ffb42e"/><path d="M306.77,147s-1.56,1.91-2.42,9a96.44,96.44,0,0,0-.52,12.25s-3.54-7.15-2.26-15c.6-3.64,1.62-5.68,3.24-6.87S306.77,147,306.77,147Z" style="fill:#ffb42e"/><path d="M325.35,242.38c-2.74-3.8-4.77-7.28-5.35-9.84-2-8.79-.79-14.5.56-22.64a120.81,120.81,0,0,1,3.68-14.67l-.73-.14s-8.36,25.82-4.29,38.13a39.08,39.08,0,0,0,5.33,9.48A7,7,0,0,1,325.35,242.38Z" style="fill:#fff"/><path d="M321.41,214.14c-.75.15-2.39-1.24-3.9-1.79.38-2.42,2-13.46,2.27-15.54,1.64-12.38,1.09-25.55-2.94-46.29-1.15-5.89,1.37-8.32,5.07-8,4.57.41,8.86,14.5,8.53,30.19C330.23,182.3,326.45,202.66,321.41,214.14Z" style="fill:#000306"/><path d="M318.55,212.88a15.82,15.82,0,0,0-4.06,5.27,23.71,23.71,0,0,0-1,2.85c-.12.38.67.25,1.22-.35a8.59,8.59,0,0,0,1.29-2.19,10.61,10.61,0,0,1-.26,3.15c-.46,2.76-3.72,5.72-.5,4.81,3.67-1,4.92-2.84,5.11-4.43a78,78,0,0,0,.54-8Z" style="fill:#f8ae65"/><path d="M295.8,116s6-9.86,15.15-6.69c8.26,2.86,11.72,6.57,10.77,14.52-.77,6.5-15.65-5.1-15.6-5.1s-1.06,2.47-8.7.5c-5-1.29-7.19-.57-7.05-2.85C290.47,114.66,295.8,116,295.8,116Z" style="fill:#feb01f"/><path d="M312.57,263.2l2.85-1.38,4.31,6.05s-13.3,9.85-14.59,8.49a1.52,1.52,0,0,1-.57-1c.89-3,7.88-9.28,7.88-9.28Z" style="fill:#ffb42e"/><path d="M312.1,262.53l2.85-1.38,4.3,6.05s-13.29,9.85-14.58,8.49c-1.12-1.17,7.31-10.25,7.31-10.25Z"/><polygon points="311.9 269.5 311.55 269.94 309.47 268.23 309.84 267.83 311.9 269.5" style="fill:#fff"/><polygon points="312.66 268.65 312.3 269.1 310.22 267.38 310.57 266.94 312.66 268.65" style="fill:#fff"/><polygon points="313.43 267.81 313.08 268.25 311 266.54 311.35 266.09 313.43 267.81" style="fill:#fff"/><path d="M315,261.15,302.1,235h-10a39.35,39.35,0,0,0,1.88,4.35c3.38,6.14,18.07,23.2,18.07,23.2Z" style="fill:#f8ae65"/><polygon points="306.48 257.94 311.62 263.49 316.06 260.74 312.69 253.56 306.48 257.94" style="fill:#438068"/><path d="M337.14,274.6l3.09-.81,2.81,6.79s-15.17,7.09-16.11,5.5a1.5,1.5,0,0,1-.34-1.07c1.54-2.74,9.78-7.58,9.78-7.58Z" style="fill:#ffb42e"/><path d="M336.84,273.85l3.08-.81,2.81,6.78s-15.16,7.09-16.11,5.51c-.82-1.37,9.44-8.65,9.44-8.65Z"/><polygon points="335.06 280.65 334.62 281.02 332.98 278.93 333.44 278.61 335.06 280.65" style="fill:#fff"/><polygon points="335.99 279.97 335.54 280.34 333.91 278.25 334.35 277.89 335.99 279.97" style="fill:#fff"/><polygon points="336.93 279.29 336.49 279.65 334.86 277.57 335.3 277.2 336.93 279.29" style="fill:#fff"/><path d="M320.88,245c1.41,3.64,16,28.87,16,28.87l3.08-.81-10.63-33.4Z" style="fill:#f8ae65"/><polygon points="332.34 268.75 339.1 266.31 340.52 273.09 335.32 274.34 332.34 268.75" style="fill:#438068"/><path d="M271.85,186.7c0,.81-.88,1.47-2,1.47s-2-.66-2-1.47.88-1.47,2-1.47S271.85,185.89,271.85,186.7Z" style="fill:#f8ae65"/><path d="M170.49,387.06h0a.38.38,0,0,1-.38-.38V376.24a.39.39,0,0,1,.38-.38.4.4,0,0,1,.4.38v10h5.36a.39.39,0,0,1,.4.4.38.38,0,0,1-.4.38Z"/><path d="M178.35,383.16a3.8,3.8,0,0,1,7.59-.29v.06a.37.37,0,0,1-.39.36h-6.43a3.08,3.08,0,0,0,3,3,3,3,0,0,0,2.53-1.42.38.38,0,0,1,.51-.13.42.42,0,0,1,.13.55,3.75,3.75,0,0,1-3.17,1.77A3.85,3.85,0,0,1,178.35,383.16Zm.81-.63h5.94a3,3,0,0,0-2.94-2.54A3.06,3.06,0,0,0,179.16,382.53Z"/><path d="M191.39,379.6a.41.41,0,0,1-.38.39h-1v5.71a.61.61,0,0,0,.57.58.44.44,0,0,1,.4.4.42.42,0,0,1-.4.38,1.33,1.33,0,0,1-1.37-1.36V380h-1c-.38,0-.38-.19-.38-.39s0-.38.38-.38h1v-2.91a.42.42,0,0,1,.38-.39.44.44,0,0,1,.42.39v2.91h1A.41.41,0,0,1,191.39,379.6Z"/><path d="M194.64,378.45a1.18,1.18,0,0,0,.75-1.23.54.54,0,0,1-.43-.56v-.34a.53.53,0,1,1,1,0v.4a2.26,2.26,0,0,1-.43,1.67,1.82,1.82,0,0,1-.83.51.24.24,0,0,1-.24-.24A.26.26,0,0,1,194.64,378.45Z"/><path d="M198.19,385.43a.38.38,0,0,1,.54-.05,4.22,4.22,0,0,0,2.4.91,2.41,2.41,0,0,0,1.49-.47,1.18,1.18,0,0,0,.59-1,1.24,1.24,0,0,0-.56-1,4,4,0,0,0-1.66-.57l0,0a4.5,4.5,0,0,1-1.78-.61,1.62,1.62,0,0,1-.85-1.4,1.94,1.94,0,0,1,.85-1.54,3.36,3.36,0,0,1,1.92-.53,4.18,4.18,0,0,1,2.34.85.41.41,0,0,1,.11.54.37.37,0,0,1-.53.11,3.43,3.43,0,0,0-1.92-.78,2.38,2.38,0,0,0-1.49.45,1.15,1.15,0,0,0-.49.9.94.94,0,0,0,.44.78,4,4,0,0,0,1.6.54h0a5.67,5.67,0,0,1,1.9.64,2,2,0,0,1,.88,1.6,2,2,0,0,1-.89,1.59,3.23,3.23,0,0,1-2,.62,4.73,4.73,0,0,1-2.89-1.12A.36.36,0,0,1,198.19,385.43Z"/><path d="M218.25,386.44a3.68,3.68,0,0,1-3.69,3.68,4,4,0,0,1-1.64-.37.42.42,0,0,1-.16-.51.37.37,0,0,1,.52-.18,2.74,2.74,0,0,0,1.28.29,2.9,2.9,0,0,0,2.93-2.91v-1a3.57,3.57,0,0,1-2.93,1.54,3.91,3.91,0,0,1,0-7.8,3.6,3.6,0,0,1,2.93,1.54V379.6a.39.39,0,0,1,.4-.38.38.38,0,0,1,.36.38Zm-.76-3.33a2.93,2.93,0,1,0-2.93,3.15A3,3,0,0,0,217.49,383.11Z"/><path d="M225.31,379.22a3.93,3.93,0,1,1-3.71,3.92A3.83,3.83,0,0,1,225.31,379.22Zm0,7.07a3.17,3.17,0,0,0,0-6.32,3.17,3.17,0,0,0,0,6.32Z"/><path d="M239.5,379.6a.41.41,0,0,1-.38.39h-1v5.71a.61.61,0,0,0,.57.58.44.44,0,0,1,.4.4.42.42,0,0,1-.4.38,1.33,1.33,0,0,1-1.37-1.36V380h-1c-.38,0-.38-.19-.38-.39s0-.38.38-.38h1v-2.91a.42.42,0,0,1,.38-.39.44.44,0,0,1,.42.39v2.91h1A.41.41,0,0,1,239.5,379.6Z"/><path d="M243.16,379.62a.38.38,0,0,1,.4-.38.37.37,0,0,1,.37.38v1.73l.11-.19a3.8,3.8,0,0,1,3.14-1.92.38.38,0,0,1,.39.38.39.39,0,0,1-.39.38,2.82,2.82,0,0,0-2.27,1.29,7.25,7.25,0,0,0-.95,1.82.26.26,0,0,0,0,.13v3.44a.37.37,0,0,1-.37.38.38.38,0,0,1-.4-.38Z"/><path d="M256.77,379.6v7.08a.39.39,0,0,1-.39.38.38.38,0,0,1-.38-.38v-1.17a3.66,3.66,0,0,1-2.95,1.55,3.93,3.93,0,0,1,0-7.84,3.65,3.65,0,0,1,2.95,1.54V379.6a.37.37,0,0,1,.38-.38A.38.38,0,0,1,256.77,379.6Zm-.77,3.54a3,3,0,1,0-2.95,3.15A3.07,3.07,0,0,0,256,383.14Z"/><path d="M262.61,387a.49.49,0,0,1-.13-.18l-3-7a.39.39,0,0,1,.19-.49.38.38,0,0,1,.5.2l2.61,6.18,2.61-6.18a.37.37,0,1,1,.69.29l-2.93,6.95a.58.58,0,0,1-.1.19.34.34,0,0,1-.25.11h-.13s0,0,0,0A.11.11,0,0,1,262.61,387Z"/><path d="M268.84,383.16a3.8,3.8,0,0,1,7.59-.29v.06a.37.37,0,0,1-.38.36h-6.44a3.08,3.08,0,0,0,3,3,3,3,0,0,0,2.53-1.42.38.38,0,0,1,.51-.13.41.41,0,0,1,.13.55,3.73,3.73,0,0,1-3.17,1.77A3.86,3.86,0,0,1,268.84,383.16Zm.82-.63h5.94a3,3,0,0,0-5.94,0Z"/><path d="M279.26,376.24a.39.39,0,0,1,.78,0v10.44a.39.39,0,0,1-.78,0Z"/><path d="M107,360.73H99.74l-1.47,3.9a1.68,1.68,0,0,1-1.56,1.05,1.75,1.75,0,0,1-.57-.09,1.7,1.7,0,0,1-1-2.16l6.63-17.67a1.68,1.68,0,0,1,1.59-1.05,1.65,1.65,0,0,1,1.59,1.05l6.63,17.67a1.7,1.7,0,0,1-1,2.16,1.68,1.68,0,0,1-2.1-1Zm-1.23-3.3L103.37,351l-2.43,6.45Z"/><path d="M115.7,364v-17.7a1.63,1.63,0,0,1,1.65-1.65h3.54a10.5,10.5,0,0,1,0,21h-3.54A1.65,1.65,0,0,1,115.7,364Zm3.33-1.68h1.86a7.17,7.17,0,0,0,0-14.34H119Z"/><path d="M144.11,365.38a1.27,1.27,0,0,0-.21-.15s0,0,0-.09a.8.8,0,0,1-.15-.18,0,0,0,0,1,0,0,1.05,1.05,0,0,0-.15-.24l-7.35-17.52a1.6,1.6,0,0,1,.9-2.13,1.62,1.62,0,0,1,2.13.87l5.85,13.89,5.85-13.89a1.65,1.65,0,0,1,3.06,1.26l-7.41,17.52a.9.9,0,0,1-.12.24s0,0,0,0-.12.12-.15.18a.23.23,0,0,1-.06.09l-.18.15-.06,0a1.67,1.67,0,0,1-.24.15s0,0-.06,0a.71.71,0,0,0-.24.06h-.06a1.13,1.13,0,0,1-.3,0,1,1,0,0,1-.3,0h-.06a.71.71,0,0,0-.24-.06,0,0,0,0,0,0,0h0l-.27-.18Z"/><path d="M159.77,364v-17.7a1.63,1.63,0,0,1,1.65-1.65h9.81a1.66,1.66,0,0,1,1.65,1.65,1.69,1.69,0,0,1-1.65,1.68H163.1v5.49h7a1.67,1.67,0,0,1,0,3.33h-7v5.52h8.13a1.67,1.67,0,0,1,0,3.33h-9.72c-.06,0-.06,0-.06,0l0,0A1.65,1.65,0,0,1,159.77,364Z"/><path d="M180.86,364a1.64,1.64,0,1,1-3.27,0V346.57a1.62,1.62,0,0,1,.66-1.38,1.65,1.65,0,0,1,2.28.36L190.22,359V346.6a1.63,1.63,0,0,1,1.62-1.62,1.66,1.66,0,0,1,1.65,1.62V364a1.66,1.66,0,0,1-1.65,1.65,1.63,1.63,0,0,1-1.23-.6.8.8,0,0,1-.15-.18l-9.6-13.32Z"/><path d="M213.53,348h-4.77v16a1.63,1.63,0,0,1-1.65,1.65,1.65,1.65,0,0,1-1.65-1.65V348h-4.74a1.67,1.67,0,0,1-1.65-1.68,1.63,1.63,0,0,1,1.65-1.65h12.81a1.65,1.65,0,0,1,1.65,1.65A1.69,1.69,0,0,1,213.53,348Z"/><path d="M228.83,365.68a8.66,8.66,0,0,1-8.67-8.67V346.33a1.63,1.63,0,0,1,1.65-1.65,1.67,1.67,0,0,1,1.68,1.65V357a5.34,5.34,0,1,0,10.68,0V346.33a1.65,1.65,0,0,1,1.68-1.65,1.63,1.63,0,0,1,1.65,1.65V357A8.67,8.67,0,0,1,228.83,365.68Z"/><path d="M258.44,363.19a1.66,1.66,0,0,1-1.05,2.1,2.64,2.64,0,0,1-.66.09h0a2.18,2.18,0,0,1-1.17-.33,3,3,0,0,1-1-1.05,8.06,8.06,0,0,1-.63-3.6,2.53,2.53,0,0,0-.36-1.29,2.78,2.78,0,0,0-.9-.87,5.71,5.71,0,0,0-1.68-.72h-3.54V364a1.67,1.67,0,0,1-1.68,1.65,1.65,1.65,0,0,1-1.65-1.65v-17.7a1.63,1.63,0,0,1,1.65-1.65h5.37a6.42,6.42,0,0,1,4.08,11.37,4.65,4.65,0,0,1,1,1.11,5.68,5.68,0,0,1,1,3.24,7.57,7.57,0,0,0,.12,1.77A1.62,1.62,0,0,1,258.44,363.19Zm-4.2-12.06a3.09,3.09,0,0,0-3.09-3.12h-3.69v6.18h3.69A3.08,3.08,0,0,0,254.24,351.13Z"/><path d="M263.3,364v-17.7a1.63,1.63,0,0,1,1.65-1.65h9.81a1.66,1.66,0,0,1,1.65,1.65,1.69,1.69,0,0,1-1.65,1.68h-8.13v5.49h7a1.67,1.67,0,0,1,0,3.33h-7v5.52h8.13a1.67,1.67,0,0,1,0,3.33H265c-.06,0-.06,0-.06,0l0,0A1.65,1.65,0,0,1,263.3,364Z"/><path d="M290.09,364v-17.7a1.63,1.63,0,0,1,1.65-1.65,1.65,1.65,0,0,1,1.68,1.65v7.2h7.77v-7.2a1.63,1.63,0,0,1,1.65-1.65,1.65,1.65,0,0,1,1.68,1.65V364a1.65,1.65,0,0,1-1.68,1.65,1.63,1.63,0,0,1-1.65-1.65v-7.2h-7.77V364a1.65,1.65,0,0,1-1.68,1.65A1.63,1.63,0,0,1,290.09,364Z" style="fill:#e52d1a"/><path d="M311.57,346.33a1.63,1.63,0,0,1,1.65-1.65,1.67,1.67,0,0,1,1.68,1.65V364a1.67,1.67,0,0,1-1.68,1.65,1.63,1.63,0,0,1-1.65-1.65Z" style="fill:#e52d1a"/><path d="M320.51,364V346.48a1.65,1.65,0,1,1,3.3,0v8.61l9.72-9.75a1.63,1.63,0,0,1,2.34,0,1.68,1.68,0,0,1,0,2.34l-6.6,6.57,6.66,8.73a1.61,1.61,0,0,1-.24,2.31,1.52,1.52,0,0,1-1.05.39,1.62,1.62,0,0,1-1.23-.6l-6.48-8.49-3.12,3.18V364a1.65,1.65,0,0,1-3.3,0Z" style="fill:#e52d1a"/><path d="M342,364v-17.7a1.63,1.63,0,0,1,1.65-1.65h9.81a1.66,1.66,0,0,1,1.65,1.65,1.69,1.69,0,0,1-1.65,1.68h-8.13v5.49h7a1.67,1.67,0,0,1,0,3.33h-7v5.52h8.13a1.67,1.67,0,0,1,0,3.33H343.7c-.06,0-.06,0-.06,0l0,0A1.65,1.65,0,0,1,342,364Z" style="fill:#e52d1a"/></g></g></svg>