<svg xmlns="http://www.w3.org/2000/svg" width="15" height="15" viewBox="0 0 15 15"><path d="M7.5,1.333a23,23,0,0,1,3,.083,3.865,3.865,0,0,1,1.417.25,2.927,2.927,0,0,1,1.417,1.417,3.865,3.865,0,0,1,.25,1.417c0,.75.083,1,.083,3a23,23,0,0,1-.083,3,3.865,3.865,0,0,1-.25,1.417,2.927,2.927,0,0,1-1.417,1.417,3.865,3.865,0,0,1-1.417.25c-.75,0-1,.083-3,.083a23,23,0,0,1-3-.083,3.865,3.865,0,0,1-1.417-.25,2.927,2.927,0,0,1-1.417-1.417,3.865,3.865,0,0,1-.25-1.417c0-.75-.083-1-.083-3a23,23,0,0,1,.083-3,3.865,3.865,0,0,1,.25-1.417A2.993,2.993,0,0,1,2.25,2.25a1.409,1.409,0,0,1,.833-.583A3.865,3.865,0,0,1,4.5,1.417a23,23,0,0,1,3-.083M7.5,0A24.623,24.623,0,0,0,4.417.083,5.145,5.145,0,0,0,2.583.417,3.262,3.262,0,0,0,1.25,1.25,3.262,3.262,0,0,0,.417,2.583,3.8,3.8,0,0,0,.083,4.417,24.623,24.623,0,0,0,0,7.5a24.623,24.623,0,0,0,.083,3.083,5.145,5.145,0,0,0,.333,1.833A3.262,3.262,0,0,0,1.25,13.75a3.262,3.262,0,0,0,1.333.833,5.145,5.145,0,0,0,1.833.333A24.622,24.622,0,0,0,7.5,15a24.622,24.622,0,0,0,3.083-.083,5.145,5.145,0,0,0,1.833-.333,3.5,3.5,0,0,0,2.167-2.167,5.145,5.145,0,0,0,.333-1.833C14.917,9.75,15,9.5,15,7.5a24.622,24.622,0,0,0-.083-3.083,5.145,5.145,0,0,0-.333-1.833A3.262,3.262,0,0,0,13.75,1.25,3.262,3.262,0,0,0,12.417.417,5.145,5.145,0,0,0,10.583.083,24.623,24.623,0,0,0,7.5,0m0,3.667A3.772,3.772,0,0,0,3.667,7.5,3.833,3.833,0,1,0,7.5,3.667M7.5,10A2.455,2.455,0,0,1,5,7.5,2.455,2.455,0,0,1,7.5,5,2.455,2.455,0,0,1,10,7.5,2.455,2.455,0,0,1,7.5,10m4-7.417a.917.917,0,1,0,.917.917.925.925,0,0,0-.917-.917" fill="#1483a7" fill-rule="evenodd"/></svg>