<svg xmlns="http://www.w3.org/2000/svg" width="18.493" height="15" viewBox="0 0 18.493 15"><path d="M43.856,17A10.692,10.692,0,0,0,54.644,6.212V5.7a8.351,8.351,0,0,0,1.849-1.952,8.529,8.529,0,0,1-2.158.616,4,4,0,0,0,1.644-2.055,9.423,9.423,0,0,1-2.363.925A3.669,3.669,0,0,0,50.842,2a3.86,3.86,0,0,0-3.8,3.8,2,2,0,0,0,.1.822,10.622,10.622,0,0,1-7.808-4.007,3.935,3.935,0,0,0-.514,1.952,4.082,4.082,0,0,0,1.644,3.185,3.464,3.464,0,0,1-1.747-.514h0a3.755,3.755,0,0,0,3.082,3.7,3.167,3.167,0,0,1-1.027.1,1.748,1.748,0,0,1-.719-.1,3.892,3.892,0,0,0,3.6,2.671,7.757,7.757,0,0,1-4.726,1.644,2.844,2.844,0,0,1-.925-.1A9.7,9.7,0,0,0,43.856,17" transform="translate(-38 -2)" fill="#1483a7" fill-rule="evenodd"/></svg>