<svg xmlns="http://www.w3.org/2000/svg" viewBox="0 0 553.48 168.2"><title>Asset 1</title><g id="Layer_2" data-name="Layer 2"><g id="Layer_2-2" data-name="Layer 2"><path d="M367.76,123.38c-.48,1.85-1.22,3.94-2.85,4.46-1.12.36-5-1.92-5.88-2.83s-8.37-45-7.43-47.69c1.25-3.6,18.4,1.37,19.21,7.62a98.61,98.61,0,0,1-.39,24.4A110,110,0,0,1,367.76,123.38Z" style="fill:#222b54;fill-rule:evenodd"/><path d="M379.53,160.81a11.75,11.75,0,0,1-5.12,1.34c-.57-2-1.15-4-1.72-6a1.58,1.58,0,0,1-.09-.77,1.41,1.41,0,0,1,.77-.82c1.27-.72,3.31-1.51,3.95.17C378.08,156.76,378.79,158.79,379.53,160.81Z" style="fill:#f4a086"/><path d="M367.46,164.31a12,12,0,0,1-5.31-.43c-.07-2.06-.13-4.13-.2-6.2a1.49,1.49,0,0,1,.11-.76,1.28,1.28,0,0,1,.94-.52c1.42-.25,3.6-.33,3.8,1.47C367.05,160,367.24,162.16,367.46,164.31Z" style="fill:#f4a086"/><path d="M358,118.31c1.5-3.67,6.48-6.18,10.19.18,5.65,9.69-1.65,27.82-.78,39.52h-6C361,156.88,357.21,120.34,358,118.31Z" style="fill:#222b54;fill-rule:evenodd"/><path d="M357.52,39.73c-.48,6.86-1.83,13.9-5.7,19.6-.83,1.23-2.05,2.5-3.52,2.35a3,3,0,0,1-2.08-1.42,6.74,6.74,0,0,1-.85-2.45c-1.25-6.71.8-13.54,2.84-20.06.84-2.68,2-7.43,4.7-8.88s4.28,3.15,4.54,5.05A28.2,28.2,0,0,1,357.52,39.73Z" style="fill:#f4a086"/><path d="M357.85,30c-.13-1.14-.43-2.48-1.49-3s-2.31.24-3.18,1c-5.25,4.7-7.24,11.34-8.19,18.47l12.59.78A66.3,66.3,0,0,0,357.85,30Z" style="fill:#fe6b80"/><path d="M364.48,117.72c-1,7.6-13.4,3-12.33-3.83,2.09-13.31,7.38-35.65,9.44-37.64,5.63-5.46,18.46-2.38,18.46,6.54C380.05,93.67,366.05,105.48,364.48,117.72Z" style="fill:#0a3c5f;fill-rule:evenodd"/><path d="M340.33,58.28a2.14,2.14,0,0,0,.65,2.35,10.4,10.4,0,0,0,9.41.75c2.19-1,2.52-3.07,1.75-5.07C351.07,53.53,340.75,57.34,340.33,58.28Z" style="fill:#f7b690"/><path d="M352.17,115.65c-.31-3.91,5.13-6,10.33-.65,8.37,8.55,10.82,24.84,15.15,39.22l-5.68,2C370.12,153,352.75,123.22,352.17,115.65Z" style="fill:#0a3c5f;fill-rule:evenodd"/><path d="M381,54.94c2-6.54,4.55-14.62,3.42-21.46-2.77-3.38-8.44-11.23-19.69-11.23-7.88,0-13.79,8-15.15,10-1.53,2.25-1,5.46-.6,8.06.81,5.55,3.22,27.36,1.13,42.5H382C381.91,75.57,379,61.53,381,54.94Z" style="fill:#cc346f"/><path d="M388.35,47a32.39,32.39,0,0,0-9.56-15.7c-.84-.75-2-1.5-3-1.06a2.08,2.08,0,0,0-1.1,1.38,5.85,5.85,0,0,0-.13,1.82,149.43,149.43,0,0,0,2.87,21.13,25.25,25.25,0,0,0,1.73,6.3,8.61,8.61,0,0,0,4.5,4.54c1.07.41,2.83.65,3.81-.12.8-.62.93-2.2,1.13-3.1a32.39,32.39,0,0,0,.67-9.72A31.58,31.58,0,0,0,388.35,47Z" style="fill:#f4a086"/><path d="M390.13,49.24a.34.34,0,0,1,0,.14A.68.68,0,0,0,390.13,49.24Z" style="fill:#18898d;fill-rule:evenodd"/><path d="M374.37,30c.06-1.14.28-2.48,1.3-3s3.09.46,4,1.24c5.55,4.7,8.64,11.12,10,18.25l-14,.78A67,67,0,0,1,374.37,30Z" style="fill:#cc346f"/><path d="M361.6,14.38c.77-3.39,3.34-4.19,4.83-3.37,1,6.35,1.94,9.18,4.43,12.64-3.1,2-8.39,1.62-9.54,0C361.28,23.14,361.2,16.14,361.6,14.38Z" style="fill:#f4a086"/><path d="M361.76,6.42a5.28,5.28,0,0,0-8.14,3.65c-.59,3.59,3,9.77,4.75,10.77,3,1.75,7.05-2.45,7.19-4.47C365.77,13.42,364.35,8.2,361.76,6.42Z" style="fill:#f7b690"/><path d="M364,7.17a.9.9,0,0,1,.83,0,2.87,2.87,0,0,1,.69.51,15,15,0,0,1,2,2.13,4.85,4.85,0,0,1,1,2.72,5.43,5.43,0,0,0,0,1.89c.19.54.69,1,.54,1.58a.93.93,0,0,1-1,.6,1.68,1.68,0,0,1-1.06-.65,9,9,0,0,1-.66-1.07c-.72-1.21-1.76-2.19-2.51-3.38a4.05,4.05,0,0,1-.48-4Z" style="fill:#222b56;fill-rule:evenodd"/><path d="M349.67,8.76l2-.81a3.36,3.36,0,0,0-.74,1.24,1.16,1.16,0,0,0,.43,1.29,1.15,1.15,0,0,0,1.08,0,3.19,3.19,0,0,0,.87-.73,1.75,1.75,0,0,0-.28.81.61.61,0,0,0,.47.63.89.89,0,0,0,.62-.26l2.7-2.13a2.71,2.71,0,0,0-.06.85.85.85,0,0,0,.48.67c.47.19.95-.23,1.24-.65s.58-.91,1.08-1,1,.42,1.37.87l.18.24c.64.83,1.27,1.67,1.9,2.5a2.88,2.88,0,0,0,.66.69,1,1,0,0,0,.91.16c.51-.2,6-8.32-1-10.8a6.15,6.15,0,0,0-3.5.37,26.35,26.35,0,0,1-3.07,1c-.85.15-1.71.09-2.57.18A5.41,5.41,0,0,0,349.67,8.76Z" style="fill:#222b56;fill-rule:evenodd"/><path d="M367.22,10.48a3.35,3.35,0,0,1,0,2.51c-.95,2.25-3.17.23-3.28-1.41C363.8,9.63,366.35,8.32,367.22,10.48Z" style="fill:#f7b690"/><path d="M351.07,167.35a1.88,1.88,0,0,1,1.58-1.77,11.77,11.77,0,0,1,2.59-.06,7,7,0,0,0,6-3.7,1.78,1.78,0,0,1,.6-.79,1.13,1.13,0,0,1,1.25.23,12.38,12.38,0,0,1,.92,1,3.09,3.09,0,0,0,2.19.88c.68,0,1.44-.53,2.09-.19s.72,1.1.87,1.66c.25,1,.48,2,.72,2.94a4.8,4.8,0,0,1,.12.66h-4.7a6.38,6.38,0,0,1-.49-1.57,3.77,3.77,0,0,1-.41,1.57H351.48A1.42,1.42,0,0,1,351.07,167.35Z" style="fill:#fe6b80"/><path d="M373.35,166.2a2,2,0,0,1,.07-1.91c.28-.31.35-1.86.37-4.1,0-1,1.76-1.93,3.23-.68.48.4.87.63,1.2.51s.42-.71.8-.48a4,4,0,0,1,.92,1.44c.42.88.84,1.77,1.27,2.66.09.2.19.4.27.61l-7.68,2.69A2.51,2.51,0,0,1,373.35,166.2Z" style="fill:#fe6b80"/><path d="M365.54,67.59h-19.1a2.92,2.92,0,0,1-2.62-2l-8.4-30a1.49,1.49,0,0,1,1.47-2H356a2.9,2.9,0,0,1,2.62,2l8.41,30A1.51,1.51,0,0,1,365.54,67.59Z" style="fill:#3c79a6"/><path d="M367,65.54l-8.41-30a2.9,2.9,0,0,0-2.62-2h-2a2.91,2.91,0,0,1,2.62,2l8.4,30a1.5,1.5,0,0,1-1.47,2h2A1.51,1.51,0,0,0,367,65.54Z" style="fill:#222b54;fill-rule:evenodd"/><path d="M364.29,58.69a2.4,2.4,0,0,0-.61,3c.48,1,16.73,4.94,20.64,4.87,1.19,0,2.56-.13,3.26-1.09a3.41,3.41,0,0,0,.11-3.07,10.85,10.85,0,0,0-2.93-4.77C383.8,56.82,364.89,58.31,364.29,58.69Z" style="fill:#f7b690"/><path d="M358.43,55.82c-.4-.54-.79-1.29-.39-1.83a1.1,1.1,0,0,1,1.21-.29,3.49,3.49,0,0,1,1.12.71,3.34,3.34,0,0,0,1.57.84,1.28,1.28,0,0,0,1.43-.81c.15-.64-.35-1.44.12-1.9a.84.84,0,0,1,1-.06,2.51,2.51,0,0,1,.72.73A13.92,13.92,0,0,1,367.82,58a4.74,4.74,0,0,1-1.45,5,3.89,3.89,0,0,1-4.57-.21,4.77,4.77,0,0,1-1.66-3.45C360,57.81,359.32,57.06,358.43,55.82Z" style="fill:#f7b690"/><path d="M339.3,54.3c.07-.2.19-3.48.36-3.61s1.46,3.6,1.22,3.92l1.91-.21c.61-.06,1.4,0,1.59.57s-.23.91-.49,1.32c-.45.73.22,5-.14,5.37-1.32,1.35-4.23-1-4.71-2.29A7,7,0,0,1,339.3,54.3Z" style="fill:#f7b690"/><path d="M69.71,164.31a11.49,11.49,0,0,0,5.23-.43l-1-6.2a1.61,1.61,0,0,0-.26-.76,1.63,1.63,0,0,0-1-.52c-1.46-.25-3.66-.33-3.5,1.47C69.26,160,69.5,162.16,69.71,164.31Z" style="fill:#f4a086"/><path d="M61.32,156.09A11.45,11.45,0,0,0,65.69,159q1.45-2.81,2.93-5.59a1.75,1.75,0,0,0,.25-.77,1.66,1.66,0,0,0-.51-1.06c-1-1.1-2.68-2.52-3.64-1C63.56,152.38,62.45,154.25,61.32,156.09Z" style="fill:#f4a086"/><path d="M86.18,77.32c-2-3.6-18.11,1.37-17.56,7.62.71,8,3,16.48,5.69,24.4l.35,1A17.33,17.33,0,0,1,74.25,123c-3.77,8.65-6.14,20.42-10.11,27.27L68.88,154c.83-.79,18.75-31,19.67-35.1C89.25,115.84,87.8,80.18,86.18,77.32Z" style="fill:#222b54;fill-rule:evenodd"/><path d="M58.05,88.72c.11,1.85,4.87.67,6.69.67,15,0,23.62-4.86,21.55-11.73-2.12-7-15.51-5.91-22.51-3.64-1.5.49-3.7,1-4.73,2.37C57.56,78.43,57.66,82,58.05,88.72Z" style="fill:#0a3c5f;fill-rule:evenodd"/><path d="M80,39.73c.48,6.86,1.83,13.9,5.7,19.6.83,1.23,2,2.5,3.52,2.35a3,3,0,0,0,2.08-1.42,6.74,6.74,0,0,0,.85-2.45c1.25-6.71-.8-13.54-2.84-20.06-.84-2.68-2-7.43-4.7-8.88S80.32,32,80.06,33.92A27.52,27.52,0,0,0,80,39.73Z" style="fill:#f4a086"/><path d="M79.66,30c.13-1.14.43-2.48,1.49-3s2.31.24,3.18,1c5.25,4.7,7.24,11.34,8.19,18.47l-12.59.78A66.3,66.3,0,0,1,79.66,30Z" style="fill:#818bea;fill-rule:evenodd"/><path d="M65.86,123.38c.72,1.85,1.73,3.94,3.42,4.46,1.17.36,4.77-1.92,5.53-2.83s3.59-37.9,2.31-40.59A11.86,11.86,0,0,0,68.43,78c-5-.78-10.47.74-10.48,7,0,8,1.49,16.48,3.47,24.4A122.26,122.26,0,0,0,65.86,123.38Z" style="fill:#0a3c5f;fill-rule:evenodd"/><path d="M75.28,118.31c-1.83-3.66-7.77-6.55-10.17.18-3.87,10.83,1,27,3.35,39.52h6C74.79,156.88,76.3,120.34,75.28,118.31Z" style="fill:#0a3c5f;fill-rule:evenodd"/><path d="M84.65,56.78c1.13-5.52,3-10.92,3.85-16.49.38-2.6.94-5.81-.59-8.06-1.36-2-7.27-10-15.15-10-11.25,0-16,4.58-17.57,10-1.13,6.84-.74,16.16,1.3,22.7,2,6.28-.13,13-1.93,26.86H87C86.92,73.92,83.53,62.31,84.65,56.78Z" style="fill:#818bea;fill-rule:evenodd"/><path d="M105.3,34.78c.65.57-11.35,24-15.9,25.43-2.29.69-3.92-.7-4.64-2.71C83.76,54.7,102.28,32.11,105.3,34.78Z" style="fill:#f4a086"/><path d="M51.26,49.09a32.35,32.35,0,0,1,6.42-17.22c.67-.89,1.64-1.84,2.73-1.6a2.06,2.06,0,0,1,1.35,1.15,6.1,6.1,0,0,1,.47,1.76,151.16,151.16,0,0,1,1.18,21.28,25.84,25.84,0,0,1-.5,6.52,8.6,8.6,0,0,1-3.57,5.31c-1,.6-2.65,1.17-3.76.6-.9-.46-1.33-2-1.7-2.83a32.73,32.73,0,0,1-2.5-9.42A32.15,32.15,0,0,1,51.26,49.09Z" style="fill:#f7b690"/><path d="M61.77,29.74c-.28-1.11-.75-2.38-1.85-2.67s-2.94,1-3.7,2c-4.55,5.67-6.37,12.56-6.4,19.82L63.71,47A67.18,67.18,0,0,0,61.77,29.74Z" style="fill:#818bea;fill-rule:evenodd"/><path d="M82.53,57.18a2.4,2.4,0,0,1,.72,3c-.44,1-21,7.28-24.92,7.36-1.19,0-2.56,0-3.3-1a3.42,3.42,0,0,1-.22-3.05,10.81,10.81,0,0,1,2.76-4.88c.92-.85,2-.49,3.19-.53C65,58,81.92,56.81,82.53,57.18Z" style="fill:#f7b690"/><path d="M83.21,14.71c-.49.54-.93.29-.76-.42.51-2.25.66-2.59,0-4.83-.34-1.23-.51-1.36.08-1.64C84.52,6.9,87.24,10.22,83.21,14.71Z" style="fill:#222b56;fill-rule:evenodd"/><path d="M75.91,14.38C75.14,11,72.57,10.19,71.08,11c-1,6.35-1.94,9.18-4.43,12.64,3.1,2,8.39,1.62,9.54,0C76.23,23.14,76.31,16.14,75.91,14.38Z" style="fill:#f4a086"/><path d="M74.7,7.13A5.29,5.29,0,0,1,83.15,10c.92,3.53-2.11,10-3.72,11.18-2.83,2-7.25-1.79-7.58-3.78C71.37,14.47,72.29,9.15,74.7,7.13Z" style="fill:#f7b690"/><path d="M73.53,16.27a1.38,1.38,0,0,0,.13,1.08.94.94,0,0,0,.85.3,3.45,3.45,0,0,0,.89-.24,7.2,7.2,0,0,1,3.93-.21,2.43,2.43,0,0,1,1.54.87,2.39,2.39,0,0,1,.29,1.42,4.39,4.39,0,0,1-.46,1.79,2.78,2.78,0,0,1-1.34,1.26,3.89,3.89,0,0,1-2.56-.09,9,9,0,0,1-4-2.32,5.75,5.75,0,0,1-1.66-4.21,4.88,4.88,0,0,1,.68-2.19,3,3,0,0,1,1.45-1.31c1-.36.77.46.68,1C73.82,14.39,73.68,15.33,73.53,16.27Z" style="fill:#222b56;fill-rule:evenodd"/><path d="M75.73,8.3A44.09,44.09,0,0,1,73,15.39c-.63-.41-1.11-2.51-2.41-2.69-.41-.06-1,.1-.88-.72.91-5.21.65-5,1.67-5.28C73.65,6.05,75.66,7.32,75.73,8.3Z" style="fill:#222b56;fill-rule:evenodd"/><path d="M70.68,4c4.82-2.15,12-1.92,13.77-.35,2.65,2.34-.53,6.93-1.71,7-.54,0-.93-.47-1.31-.85C79.64,7.93,77.57,8.65,76,8.64,73.1,8.61,66.58,5.79,70.68,4Z" style="fill:#222b56;fill-rule:evenodd"/><path d="M69.65,11.69a3.37,3.37,0,0,0,.25,2.49c1.16,2.16,3.18-.06,3.13-1.7C73,10.52,70.31,9.45,69.65,11.69Z" style="fill:#f7b690"/><path d="M67.25,159.25a1.82,1.82,0,0,0,.23-1,1.19,1.19,0,0,0-1-.81c-.45-.08-.91,0-1.36-.06a3.07,3.07,0,0,1-2.08-1.12c-.42-.52-.51-1.43-1.19-1.71s-1.31.15-1.84.4c-.91.43-1.81.89-2.71,1.33a4.3,4.3,0,0,0-.59.34l3,3.59a6.27,6.27,0,0,0,1.52-.63,3.65,3.65,0,0,0-.94,1.32l5.5,7.28,2.34-2.12A7,7,0,0,1,67.25,159.25Z" style="fill:#0a3c5f;fill-rule:evenodd"/><path d="M68.91,165.57a11.19,11.19,0,0,0-2.59,0h-.16l-.33,2.69h4.26a1.42,1.42,0,0,0,.41-.86A1.88,1.88,0,0,0,68.91,165.57Z" style="fill:#0a3c5f;fill-rule:evenodd"/><path d="M77.38,167.35a2,2,0,0,0-.69-1.77c-.37-.2-1-1.65-1.71-3.76-.35-1-2.3-1.23-3.28.43-.32.54-.61.89-1,.88s-.63-.53-.92-.19a4,4,0,0,0-.38,1.66c-.11,1-.21,2-.32,2.94,0,.21,0,.44-.05.66h8.14A2.67,2.67,0,0,0,77.38,167.35Z" style="fill:#0a3c5f;fill-rule:evenodd"/><path d="M97.37,36.71h5.22a.8.8,0,0,0,.72-.56l3.19-11.07a.41.41,0,0,0-.4-.56h-5.23a.78.78,0,0,0-.71.56L97,36.15A.41.41,0,0,0,97.37,36.71Z" style="fill:#3c79a6"/><path d="M98.14,36.71h5.22a.78.78,0,0,0,.71-.56l3.19-11.07a.41.41,0,0,0-.4-.56h-5.22a.8.8,0,0,0-.72.56L97.73,36.15A.42.42,0,0,0,98.14,36.71Z" style="fill:#a2d1eb"/><path d="M84.11,55.44c.46-.29,1.2-.5,1.42,0a.82.82,0,0,1-.3.85,2.24,2.24,0,0,0-.63.71,1.07,1.07,0,0,0,.74,1.28,3.15,3.15,0,0,0,1.64,0l4.39-.89c.61-.13,1.38-.19,1.7.34A1.38,1.38,0,0,1,93,59a7,7,0,0,1-9.24,3.36,5.18,5.18,0,0,1-2.43-2.14C79.84,57.5,82.2,56.66,84.11,55.44Z" style="fill:#f7b690"/><path d="M107.32,31.62a4.25,4.25,0,0,0-2.53-3.51,2.25,2.25,0,0,0-2.7.47,1.54,1.54,0,0,0,.38,2,2.92,2.92,0,0,0-.15,2.65c.15.54.29,1.07.43,1.61a2,2,0,0,0,.72,1.25C105.48,37.31,107.43,33,107.32,31.62Z" style="fill:#f7b690"/><path d="M141.1,88.06a8.26,8.26,0,0,0,5.22,1.33c15,0,23.62-4.86,21.55-11.73-2.13-7-15.52-5.91-22.51-3.64-1.51.49-3.7,1-4.73,2.37C139.13,78.43,137.54,85.26,141.1,88.06Z" style="fill:#0a3c5f;fill-rule:evenodd"/><path d="M149.39,123.18c.42,1.85,3,4.14,4.57,4.66,1.11.36,5.06-1.92,6-2.83s9.43-37.9,8.57-40.59A9.65,9.65,0,0,0,160.8,78c-4.87-.78-10,.9-11.56,7C145.45,99.64,151.87,110.63,149.39,123.18Z" style="fill:#255880"/><path d="M129.44,156.15a12.09,12.09,0,0,0,4.88,2.09l2.82-5.54a1.53,1.53,0,0,0,.23-.73,1.31,1.31,0,0,0-.62-.91c-1.14-.89-3-2-4-.45C131.63,152.44,130.55,154.3,129.44,156.15Z" style="fill:#f4a086"/><path d="M160.22,124.17c.59-3.83-2.92-8.94-9.11-4.59-10,7-15.39,22.43-19.1,31.11l5.32,2.8C144.13,143.32,159.89,126.29,160.22,124.17Z" style="fill:#255880"/><path d="M174.15,57.91c1.12,1,2.62,1.9,4,1.37a2.92,2.92,0,0,0,1.66-1.9,6.93,6.93,0,0,0,.19-2.57c-.5-6.81-8.94-22.92-14.6-27.39-2.53-2-6.31,9-6.08,10.9S169,53.38,174.15,57.91Z" style="fill:#2d6c9c"/><path d="M197.72,69.38c.61.83,1.24,1.84.9,2.81a2.17,2.17,0,0,1-2.1,1.25,50,50,0,0,1-5.69-3.22l3.57-4.41A40.2,40.2,0,0,1,197.72,69.38Z" style="fill:#d5e5fd"/><path d="M194.4,65.81l-3.65,5.44c-6.45-4-16.17-11.8-17.43-14.86-.91-2.21.31-4,2.25-4.87C177.68,50.53,188.63,60.11,194.4,65.81Z" style="fill:#2d6c9c"/><path d="M157.32,121.54c2.43,5.25,6.38,5.56,9.22.37.55-1-7.56-44.39-9.43-46.84-2.51-3.29-17.89,3.67-17.89,9.94C139.22,99.52,152.43,111,157.32,121.54Z" style="fill:#2d6c9c"/><path d="M161.26,164.31a11.76,11.76,0,0,0,5.27-.43l-.42-6.2a1.53,1.53,0,0,0-.19-.76,1.42,1.42,0,0,0-1-.52c-1.44-.25-3.63-.33-3.66,1.47C161.24,160,161.27,162.16,161.26,164.31Z" style="fill:#f4a086"/><path d="M169.49,32.23c1.52,2.25,1,5.46.59,8.06-.81,5.57-.58,44.9-.5,45.78a2.19,2.19,0,0,1-1.19,2.25,4.25,4.25,0,0,1-1.71.23l-28.16-.15a3,3,0,0,1-1.51-.28c-.94-.59-.61-1.87-.27-2.85,2.26-6.53,3.38-23.74,1.32-30.33s-4.54-14.62-3.41-21.46c2.77-3.38,8.44-11.23,19.68-11.23C162.22,22.25,168.12,30.21,169.49,32.23Z" style="fill:#3c79a6"/><path d="M166.09,118.31c-1.86-3.67-7.1-6.18-10.17.18-4.69,9.69,4.42,27.82,4.72,39.52h6C167,156.88,167.12,120.34,166.09,118.31Z" style="fill:#2d6c9c"/><path d="M138.92,29.39c1.07-.32,8.63.16,6.61,5.52C143,41.57,138,47,133.85,52.76a25.31,25.31,0,0,1-4.28,5,8.61,8.61,0,0,1-6,2.17c-1.14-.1-2.82-.63-3.39-1.75-.45-.9.11-2.38.32-3.28C121.21,51.67,133,31.17,138.92,29.39Z" style="fill:#3c79a6"/><path d="M129,49.24a.68.68,0,0,0,0,.14A.68.68,0,0,0,129,49.24Z" style="fill:#18898d;fill-rule:evenodd"/><path d="M160.74,62.31c-1.43-7.55-2.89-15.07-4.59-21.9-1.61-6.46-5.49-11-10.39-15.26,4-3.14,11.09-3.44,14.55.67,4.27,5.08,2.91,14.28,2.72,20.37C162.88,51,161.48,62.32,160.74,62.31Z" style="fill:#acccfd"/><path d="M155.93,28.15c-.56-.81-1.31-1.67-1.14-2.64a1.58,1.58,0,0,1,1.31-1.27c2.38-.34,1.29,2.25,1,3.39,2.29,3.43,5,10.63,6,19.23-.25,5.12-1.56,15.46-2.27,15.45-1-5.14-2-10.27-3-15.18C157.5,41.46,157,29.67,155.93,28.15Z" style="fill:#fe6b80"/><path d="M155.6,2.07c-.87-.87-6.87-3.15-8.8,1.17a10.79,10.79,0,0,0-.57,5.68c.47,2.14,2.52,9.08,1.07,10.07a5,5,0,0,0,6.11-4.89c0-1.7-.92-3.41-.44-5a6.2,6.2,0,0,1,1.77-2.49c.58-.58,1.56-1.23,1.71-2.06A3,3,0,0,0,155.6,2.07Z" style="fill:#222b56;fill-rule:evenodd"/><path d="M161.13,4.82a3.16,3.16,0,0,0-.87-1.95A3.07,3.07,0,0,0,157,2.71c-.56.27-1.14.74-1.15,1.36a1.87,1.87,0,0,0,.8,1.3A10.2,10.2,0,0,0,160,7.68C161.5,8.08,161.24,5.67,161.13,4.82Z" style="fill:#222b56;fill-rule:evenodd"/><path d="M157.49,14.38c-.77-3.39-3.34-4.19-4.84-3.37-1,6.35-1.93,9.18-4.42,12.64,3.1,2,8.39,1.62,9.53,0C157.81,23.14,157.89,16.14,157.49,14.38Z" style="fill:#f4a086"/><path d="M151.2,6.38A5.3,5.3,0,0,1,160,5.05c2.44,2.72,2.73,9.87,1.82,11.64-1.58,3.09-7.26,1.73-8.47.11C151.61,14.43,150,9.27,151.2,6.38Z" style="fill:#f7b690"/><path d="M160.71,5.74A23.58,23.58,0,0,0,161,8.13a2.36,2.36,0,0,0,1.42,1.81,2.9,2.9,0,0,1-.24-2.13c.14-.72.42-1.41.53-2.13a5,5,0,0,0-1.5-4.36A5.05,5.05,0,0,0,156.7.11a3.32,3.32,0,0,0-2.15,1.42A2,2,0,0,0,154.81,4a2.34,2.34,0,0,0,2.05.4c.58-.13.75-.53,1.23-.79C159.57,2.74,160.56,4.54,160.71,5.74Z" style="fill:#222b56;fill-rule:evenodd"/><path d="M148.8,12.74a3.39,3.39,0,0,0,1.38,2.1c2,1.39,2.79-1.52,2-2.95C151.23,10.18,148.36,10.45,148.8,12.74Z" style="fill:#f7b690"/><path d="M156.1,3.85c0,.66-1.75,1.72-2.23,2.16a5.6,5.6,0,0,0-1.32,1.43,3.5,3.5,0,0,0-.08,2.47,15,15,0,0,1,.61,2.44,2.38,2.38,0,0,1-.9,2.23,2.53,2.53,0,0,0-.52-2.35c-.5-.67-1.16-1.21-1.64-1.9a4.63,4.63,0,0,1-.33-4.59,7.5,7.5,0,0,1,3-3.08C153.55,2.32,156.14,2.37,156.1,3.85Z" style="fill:#222b56;fill-rule:evenodd"/><path d="M159.31,26.9l-1.5-1.09a1.34,1.34,0,0,0-2.22.23l-1.48,1.66a1.64,1.64,0,0,1-.84.61,1.68,1.68,0,0,1-1.22-.48,43,43,0,0,1-4.49-4,.66.66,0,0,1-.26-.47.73.73,0,0,1,.2-.39l1.86-2.26a14.69,14.69,0,0,0,4.32,1.54,5.69,5.69,0,0,0,3.47-.52c.18-.09.51-.42.71-.31s.24.74.29.94c.18.72.36,1.43.55,2.15Z" style="fill:#d5e5fd"/><rect x="160.37" y="66.49" width="0.64" height="21.54" transform="translate(-1.42 3.03) rotate(-1.07)" style="fill:#255880"/><path d="M158.82,62.29a62.19,62.19,0,0,0-14.22-18l-.3-.27L148,41.33l-3.29-1.08,0-.18c-1.2-5-1.57-9.32.54-14.33l.59.25c-2,4.79-1.69,9-.55,13.76l4.14,1.37-4.09,2.93a62.75,62.75,0,0,1,14.06,18Z" style="fill:#255880"/><path d="M162.15,62.45l-.57-.29A51.13,51.13,0,0,0,167.16,43l-3.31-1.28,1.53-.06A2,2,0,0,0,167,40.23a5.22,5.22,0,0,0-.08-2.54,22.59,22.59,0,0,0-5.51-10.54l.47-.44a23.23,23.23,0,0,1,5.66,10.85,5.8,5.8,0,0,1,.08,2.84,2.92,2.92,0,0,1-1.24,1.65l1.46.56,0,.24A51.78,51.78,0,0,1,162.15,62.45Z" style="fill:#255880"/><path d="M127.33,84.6c-.69.87-3,.09-3.94-.47-.28-.17-.35-2.44-.92-5.13l4.94-.21C127.2,81.36,127.47,84.42,127.33,84.6Z" style="fill:#d5e5fd"/><path d="M121.29,52.8c.3-.59,10.21,1,8.36,4.85s-1.88,17.54-2.32,23l-6,.87c-1.4-6.62-2.06-20.63-1.77-23.4A18.78,18.78,0,0,1,121.29,52.8Z" style="fill:#3c79a6"/><path d="M126.31,88A3.88,3.88,0,0,1,124,89.83a3.37,3.37,0,0,1-2.55-.65,8.14,8.14,0,0,1-1.82-2,3.24,3.24,0,0,1-.75-1.73c0-.64.5-1.33,1.13-1.27s1.17,1.07,1.92,1.13,1.2-.8,1.74-1.33c.82-.8,2.64-1,3.4,0S126.94,87,126.31,88Z" style="fill:#f7b690"/><path d="M178,167.35a1.89,1.89,0,0,0-1.59-1.77,11.69,11.69,0,0,0-2.58-.06,7,7,0,0,1-6-3.7,1.73,1.73,0,0,0-.61-.79,1.13,1.13,0,0,0-1.25.23,12.27,12.27,0,0,0-.91,1,3.1,3.1,0,0,1-2.2.88c-.67,0-1.43-.53-2.08-.19s-.73,1.1-.87,1.66c-.25,1-.48,2-.72,2.94a4.8,4.8,0,0,0-.12.66h4.7a6.83,6.83,0,0,0,.49-1.57,3.49,3.49,0,0,0,.41,1.57h12.91A1.48,1.48,0,0,0,178,167.35Z" style="fill:#0a3c5f;fill-rule:evenodd"/><path d="M155.41,69.72a1.46,1.46,0,1,1,0-2.91,1.46,1.46,0,1,1,0,2.91Zm0-2.28a.82.82,0,1,0,.82.82A.82.82,0,0,0,155.41,67.44Z" style="fill:#255880"/><path d="M155.82,77.7a1.46,1.46,0,1,1,0-2.91,1.46,1.46,0,1,1,0,2.91Zm0-2.28a.82.82,0,1,0,.82.82A.82.82,0,0,0,155.82,75.42Z" style="fill:#255880"/><path d="M160.4,72.28c-.25,5.54-.3,11-2.55,16.12,1.25,0,2.78.7,3.84-.12s.36-3.16.2-4.37C161.42,80.23,160.22,76,160.4,72.28Z" style="fill:#255880"/><path d="M199.21,76.78l.93.8a3,3,0,0,1,.8.9,8.41,8.41,0,0,0,.35.82,1.4,1.4,0,0,0,1.91.24,2.25,2.25,0,0,0,.82-1.89,6.64,6.64,0,0,0-.49-2.08c-.56-1.57-1.12-3.15-1.67-4.72.14-.46.74-.56,1.22-.62s1.08-.32,1-.8-.65-.6-1.12-.62c-1.37,0-2.73,0-4.1.13a14.16,14.16,0,0,0-2.68.27,2.5,2.5,0,0,0-1.63,1.38c-.68,1.36-.23,2.08.87,3C196.72,74.62,198,75.7,199.21,76.78Z" style="fill:#f7b690"/><path d="M130.86,153.54c.68.31.7,1.24,1.1,1.78a3,3,0,0,0,2,1.2,12.81,12.81,0,0,1,1.39.1,1.11,1.11,0,0,1,.94.86,1.87,1.87,0,0,1-.3,1,3.12,3.12,0,0,0,1.11,4.54,10.79,10.79,0,0,1,2.25,1.27,1.93,1.93,0,0,1,.51,2.38,1.51,1.51,0,0,1-.78.6c-3-.6-6.38-2.13-8.13-4.35L128.78,160a4,4,0,0,1,1.08-1.32,7.22,7.22,0,0,1-1.62.6l-2.82-3.75a4.15,4.15,0,0,1,.63-.32l2.89-1.28C129.51,153.65,130.26,153.28,130.86,153.54Z" style="fill:#0a3c5f;fill-rule:evenodd"/><path d="M24.73,131.29c-1.4,3.69-1.63,14.64-4.93,25.28-.13.7,3.22,1.78,3.63,1.27,5.29-11.62,13.3-24.68,14.89-32.24.53-2.52-2.06-8.08-5.16-6C30.33,121.51,25.89,128.22,24.73,131.29Z" style="fill:#f4a086"/><path d="M16.41,160.6a10.44,10.44,0,0,1,1.29-3,5.13,5.13,0,0,1,2.34-2,1.9,1.9,0,0,0,.75,1.63c.4.17,2.76.11,3.09.4s-.72,3.79-.12,5.33c0,0,2.15,1.62,3.26,2.41a3.92,3.92,0,0,1,1.19,1.14,1.58,1.58,0,0,1,.11,1.57.54.54,0,0,1-.09.12L20,166.7l-1.11-.44a11.41,11.41,0,0,1-.19-1.17c-.16-1.41-.33-2.81-.49-4.21a16.16,16.16,0,0,0-2.15,4.27l-1-.39Z" style="fill:#222b54;fill-rule:evenodd"/><path d="M19.51,81.27a25.52,25.52,0,0,0,.85,9.38c2.24,9.71,6.51,23.8,10.93,32.74.54,1.08,6.92,2.89,7.1,1.77,1.79-11.46-.76-31.75-4.25-42.81a16.23,16.23,0,0,0-3.4-6.58C25.7,70.55,20.34,75.58,19.51,81.27Z" style="fill:#f4a086"/><path d="M9.48,133.86c-.17,3.94,3.06,14.4,3.27,25.55.1.7,3.62.67,3.85.06,1.37-12.69,4.86-27.6,4-35.27-.29-2.56-4.49-7-6.79-4.07C11.72,122.82,9.62,130.58,9.48,133.86Z" style="fill:#f7b690"/><path d="M11,163.83a10.23,10.23,0,0,1,.12-3.22,5.11,5.11,0,0,1,1.42-2.75c.21.51.74,1.21,1.3,1.24s2.61-.91,3-.76.77,4.33,2.08,5.22a29.16,29.16,0,0,0,4.29,2.06,4.12,4.12,0,0,1,1.38.9,1.61,1.61,0,0,1,.39,1.54.75.75,0,0,1-.06.13H15.37a10.62,10.62,0,0,1-.6-1c-.67-1.24-1.34-2.49-2-3.74a16.3,16.3,0,0,0-.44,4.77H11.27C11.17,166.74,11.06,165.28,11,163.83Z" style="fill:#0a3c5f;fill-rule:evenodd"/><path d="M29.3,87.59c-2.51,3.1-10.06,5.63-12.2,4.3C5.41,84.63,5.55,86,4.66,82.47c-.69-2.74.79-5.51,2.22-8,1.27-2.17,14.34-4.21,20.23-2.68,1.19.31,3-.11,3.53,1,.95,2.23,1.57,4.35,3,8C34.48,83,31.66,84.66,29.3,87.59Z" style="fill:#222b56;fill-rule:evenodd"/><path d="M6.27,75.59c4.15-5.68,14-4.74,17,2.65,3.34,8.17-.75,40.42-2.63,46.65-.85,1.62-8.18,4.61-9.5,1.55-1-9.53-3.89-27.26-5.32-32.08C4.76,90.73,2,81.49,6.27,75.59Z" style="fill:#f7b690"/><path d="M41.58,59c.24.76-4.63,1.5-5.3.91C30.07,54.36,22.19,46.73,18.2,39.43c-.68-1.25,2.35-5.6,2.17-7C27.06,34.35,39.39,52.17,41.58,59Z" style="fill:#fe6b80"/><path d="M29.14,71.54C27.69,71,26,72.3,24.6,72.73a17.51,17.51,0,0,1-5.57.85c-3.74,0-7.68-1.24-11.09.29S2.87,79,2.52,82.54,3,89.65,3.58,93.17c.67,4,5.55,9.54,5.61,29.56H39C40.82,92,31.61,72.53,29.14,71.54Z" style="fill:#0a3c5f;fill-rule:evenodd"/><path d="M29.13,63c.64-4.34,2.28-8.6,2-13-.26-3.45-3.1-6.34-4.91-9.56-.86-1.52-.37-4.07-1.41-5.35-2.13-2.64-5.22-3.07-8.45-4.11C7.48,28.17,5.19,41.37,5.56,44.28s2.19,7,2.71,9.88c1.35,7.38,1.3,13.36-1.39,20.36-.13.32,17.34,2.6,20.61,2s3.74-1.9,2.6-4.83A16.5,16.5,0,0,1,29.13,63Z" style="fill:#fe6b80"/><path d="M36.91,55.6c-6.91-.7-19.47,1-24,1.32.19,5.27,26.35,6.36,28,4.6C44.76,57.53,39.11,55.82,36.91,55.6Z" style="fill:#f4a086"/><path d="M9.57,41.74q-.33,12.4-.65,24.8a3.15,3.15,0,0,1-.48,1.92c-.88,1.07-2.82.7-3.73-.35C.8,63.59-.82,45.65.39,42.39A11.54,11.54,0,0,1,6,35.86C9.7,34.19,9.64,38.85,9.57,41.74Z" style="fill:#fe6b80"/><path d="M33.52,54.57C32.18,53.68,8,60.82,3.94,64.75c-1.11,1.06.38,4,2.47,4.32a12.69,12.69,0,0,0,4.62-.5C20.41,65.85,37.53,57.77,33.52,54.57Z" style="fill:#f7b690"/><path d="M23.11,9.65a5,5,0,0,0-8.65-1.06,9.08,9.08,0,0,1-1.59,2.16c-.95.71-2.26.6-3.41.89A5,5,0,0,0,5.9,15.31c-.77,3.56,2.5,7,1.82,10.61a8.91,8.91,0,0,1-2.53,4.19A16.16,16.16,0,0,0,2.11,34a4.33,4.33,0,0,0,.31,4.67,5.81,5.81,0,0,0,3.15,1.5,18.46,18.46,0,0,0,3.93.32c3.06,0,3.06-6.28,3.21-11.14.09-2.81,6.61-3.11,7.4-5.81.44-1.48-.06-3.07.09-4.6a6.41,6.41,0,0,1,1.87-3.65,6.28,6.28,0,0,0,1.34-3.12A5.1,5.1,0,0,0,23.11,9.65Z" style="fill:#222b56;fill-rule:evenodd"/><path d="M19,25.29a13.5,13.5,0,0,0,.36,5.93,2.12,2.12,0,0,1,0,1.79,2,2,0,0,1-1.61.56,9.4,9.4,0,0,1-2.95-.22,3.12,3.12,0,0,1-2.15-1.87,4.6,4.6,0,0,1,.08-2.41l1-4.6a2.56,2.56,0,0,1,.51-1.26A1.81,1.81,0,0,1,16.39,23,5.32,5.32,0,0,1,18,24.59Z" style="fill:#f4a086"/><path d="M21.93,24.63a9.22,9.22,0,0,0,.73-3.21,16.92,16.92,0,0,0,0-4.55A5.78,5.78,0,0,0,20.46,13a6,6,0,0,0-5.3-.41,5.64,5.64,0,0,0-3.56,3,7.83,7.83,0,0,0-.41,2.55,9.4,9.4,0,0,0,.24,3.35,6.1,6.1,0,0,0,2.22,2.94,14.82,14.82,0,0,0,3.29,1.75,6.34,6.34,0,0,0,2.07.58C20.45,26.85,21.34,25.82,21.93,24.63Z" style="fill:#f7b690"/><path d="M15.75,15.31c-.64,1.44-.39,3.26-1.4,4.48a2.75,2.75,0,0,1-3.48.55A3.12,3.12,0,0,1,9.5,17.87a4.56,4.56,0,0,1,.83-2.76A8.62,8.62,0,0,1,12.39,13a10.46,10.46,0,0,1,4-1.95,6.68,6.68,0,0,1,2.85,0c.7.15,2.07.54,2.26,1.37s-.54,1-1.13.81a3.87,3.87,0,0,0-2.58,0A3.93,3.93,0,0,0,15.75,15.31Z" style="fill:#222b56;fill-rule:evenodd"/><path d="M12.24,19.47a2.4,2.4,0,0,0-.87-.17,1.1,1.1,0,0,0-.79.35,1.27,1.27,0,0,0-.16,1.14,1.88,1.88,0,0,0,2.15,1.48,1.27,1.27,0,0,0,.94-1.61A1.72,1.72,0,0,0,12.24,19.47Z" style="fill:#f7b690"/><path d="M11,53.8c-.89,1.3,2.14,2.06,1.94,2.85s-4.47.79-5.5,1.05a1.53,1.53,0,0,0-1.24.94,1.8,1.8,0,0,0,.52,1.57,4.1,4.1,0,0,0,3.3,1.26,11.6,11.6,0,0,0,3.45-.95,5.44,5.44,0,0,0,1.71-.91,2.83,2.83,0,0,0,.2-3.92C14.31,54.63,12.32,54.33,11,53.8Z" style="fill:#f7b690"/><path d="M41.29,57.24A11.22,11.22,0,0,0,38,55.88c.66.65,2,2.29,1.65,2.89S37.58,57,36.89,56.86c-1.35-.2-2.85.51-4.12-.11-1-.47-1.61-1.81-.84-2.65C35.41,50.35,40.85,54.07,41.29,57.24Z" style="fill:#f7b690"/><path d="M508.76,118.79q1.1-6.24,2.2-12.49c.78-4.47,1.58-9,1.17-13.67s-.92-10.71-4.3-13.62c-4.32-3.72-11.18-5.1-12.56,1.16-4.85,22,6.9,57.31,9.29,65.27.66,2.2,1.36,4.39,2.08,6.58h6.09C511.79,139.67,511.85,125.43,508.76,118.79Z" style="fill:#6a60d1;fill-rule:evenodd"/><path d="M512.73,152h-6.09q1.28,3.84,2.69,7.64c.33.89.79,1.9,1.7,2.17,1.16.34,2.71-.68,2.54-1.87C513.21,157.49,512.94,154.8,512.73,152Z" style="fill:#f4a086"/><path d="M513,124.08c.75,2,2,4.28,3.86,4.35a3.52,3.52,0,0,0,2.89-1.9,12.74,12.74,0,0,0,1.31-3.67q2.06-8.28,4.12-16.56c1.11-4.47,2.23-9,2.16-13.67s-1.49-9.48-4.66-12.39c-4-3.72-11.41-3.27-12.86,3.06a72.49,72.49,0,0,0-.54,26.23A73.79,73.79,0,0,0,513,124.08Z" style="fill:#7368e3;fill-rule:evenodd"/><path d="M521.06,118.72c-5.65-3.45-10.83,2.53-6.74,7.93,4.94,6.52,10.91,12.49,16.77,18.18q2.32,2.25,4.71,4.44l4.67-4.12C533.66,134.64,526.82,122.25,521.06,118.72Z" style="fill:#7368e3;fill-rule:evenodd"/><path d="M540.47,145.15l-4.67,4.12c2,1.85,4.09,3.68,6.18,5.46a2.89,2.89,0,0,0,2.48,1c1.14-.33,1.95-2.07,1.23-3C544,150.42,542.22,147.84,540.47,145.15Z" style="fill:#f7b690"/><path d="M550.21,154c-1.29-1.14-3.86-3-5.53-2.62a2.29,2.29,0,0,1,0,2c-.26.36-2.49,1.35-2.62,1.77-.49,1.58,6.47,3,2.65,7.41-.36.42-1.67.64-1.83,1.17a1.59,1.59,0,0,0,.28,1.56.48.48,0,0,0,.11.09c4.81,0,6-2.63,7.67-5.22-.19-.61-.47-1.15-2.2-5a16.09,16.09,0,0,1,4.05,2.55l.65-.84Z" style="fill:#7368e3;fill-rule:evenodd"/><path d="M508.45,93.27c3.11-.09,26.1,1.91,13.37-18.24-1.77-2.81-6.27-3.12-9.56-3.53-4.47-.57-13.17-.52-15.32,3.53C490.24,87.66,505,93.36,508.45,93.27Z" style="fill:#7368e3;fill-rule:evenodd"/><path d="M504.82,48.66c.94-3.28,1.66-7,.58-10.37-.34-1-.41-1.21-1.35-.69a9.73,9.73,0,0,0-2,1.75,21.84,21.84,0,0,0-3.05,4.1,38.62,38.62,0,0,0-2.35,4.79l7.12,3.66C504.16,50.83,504.51,49.75,504.82,48.66Z" style="fill:#2d3436"/><path d="M496.66,48.24c-.45,1.09-.88,2.19-1.31,3.29l-7.08,18.13a2.88,2.88,0,0,0-.27,1.79,1.92,1.92,0,0,0,2.41,1,5.25,5.25,0,0,0,2.29-1.74A57.32,57.32,0,0,0,503.78,51.9Z" style="fill:#f4a086"/><path d="M477.61,85.62c-.6.27-1.39.49-1.84,0s-.19-1.2.07-1.76c2.25-4.79,12.48-16.31,14.86-16.36,2.22-.05,3.21,1.15,2.42,3.2C491.51,74.89,480,84.52,477.61,85.62Z" style="fill:#f4a086"/><path d="M476.58,86.85a4.83,4.83,0,0,1-3.85,1.37,4.92,4.92,0,0,1-2.85-1.72c-.32-.37-.62-.93-.33-1.32s.78-.32,1.21-.41c1-.22,1.53-1.21,2.26-1.89a4.19,4.19,0,0,1,3-1.07c.87.06,2.78.63,2.84,1.73S477.28,86.22,476.58,86.85Z" style="fill:#f7b690"/><path d="M515.51,65.27c-2-7.78,5.32-14.31,3.32-22.1-1.36-5.31-7.27-9.5-12.6-9.43s-8,3.66-9.11,8.65c-.54,2.36-2.11,5.24-1.39,7.75.5,1.76,1.29,3.46,1.86,5.2a26.79,26.79,0,0,1,1.06,10.71c-.26,3-1.39,6-1.71,9h24.88C520.91,73.77,516.1,67.51,515.51,65.27Z" style="fill:#2d3436"/><path d="M498.55,54.38h-5.22a.81.81,0,0,1-.72-.55l-3.18-11.07a.41.41,0,0,1,.4-.56h5.22a.8.8,0,0,1,.72.56L499,53.83A.41.41,0,0,1,498.55,54.38Z" style="fill:#3c79a6"/><path d="M499,53.83l-3.19-11.07a.8.8,0,0,0-.72-.56h-.56a.8.8,0,0,1,.72.56l3.19,11.07a.41.41,0,0,1-.4.55h.55A.41.41,0,0,0,499,53.83Z" style="fill:#2e5d80"/><path d="M514.83,163.84a10.15,10.15,0,0,0-.11-3.21,5.18,5.18,0,0,0-1.43-2.76c-.21.52-.74,1.22-1.3,1.24s-2.61-.9-3-.75-.78,4.32-2.09,5.22a29.65,29.65,0,0,1-4.29,2,4,4,0,0,0-1.37.91,1.59,1.59,0,0,0-.4,1.53c0,.05.05.09.07.13h9.54c.22-.32.41-.68.6-1,.66-1.25,1.33-2.5,2-3.74a16.2,16.2,0,0,1,.43,4.76h1.07Z" style="fill:#6a60d1;fill-rule:evenodd"/><path d="M521.82,43.89a12.44,12.44,0,0,0-4.4-6.57,2,2,0,0,0-1.84-.45,2.07,2.07,0,0,0-1,1.5c-1,4-.43,8.08.27,12.11l7.94-1.24A27.73,27.73,0,0,0,521.82,43.89Z" style="fill:#2d3436"/><path d="M523.05,51.83c-.07-.87-.14-1.73-.23-2.59l-7.94,1.24.21,1.15q1.06,6,2.15,12.09c.27,1.51.23,3.33,1.59,4.31a3.12,3.12,0,0,0,3.44.19,4,4,0,0,0,1.62-2.67,12.32,12.32,0,0,0,0-3.21Z" style="fill:#f7b690"/><path d="M502.91,54.18c-.82-.46-2.78-1.49-3.27-.69-.38.62.88,2.12,1.43,2.58,3.86,3.25,17.75,12.26,18.89,12.54,1.88.46,5.28-2.94,3.6-5.1S510.37,58.31,502.91,54.18Z" style="fill:#f7b690"/><path d="M501.24,51.89l-3.4-2.82c-.32,0-.47.43-.33.72s.44.46.64.71.29.67,0,.85-.62,0-.86-.23l-3.45-2.83a2.69,2.69,0,0,0-1.1,3.06,5.73,5.73,0,0,0,2,2.79,13.82,13.82,0,0,0,4.22,2.4,3.92,3.92,0,0,0,2.75.17C504,55.77,502.45,52.89,501.24,51.89Z" style="fill:#f7b690"/><path d="M493.36,16a5,5,0,0,1,7.69-4.1,8.92,8.92,0,0,0,2.26,1.44c1.14.32,2.32-.25,3.5-.39a5,5,0,0,1,4.64,2.15c2,3,.21,7.46,2.13,10.54a8.89,8.89,0,0,0,3.87,3,16,16,0,0,1,4.27,2.51,4.33,4.33,0,0,1,1.4,4.47,5.71,5.71,0,0,1-2.41,2.53,17.6,17.6,0,0,1-3.55,1.71c-2.85,1.1-6.06-1.4-7.65-4.93a31.35,31.35,0,0,1-8.35-7.07c-.94-1.22-1.05-2.88-1.75-4.26a6.29,6.29,0,0,0-3.05-2.73A6.41,6.41,0,0,1,494,18.39,5.09,5.09,0,0,1,493.36,16Z" style="fill:#222b56;fill-rule:evenodd"/><path d="M502,28c1.88,2.68,1.34,7.68,1.37,7.71.66.74,4.42.48,6.18-.81-1.76-1.94-2.44-8.95-3-9.49a1.82,1.82,0,0,0-2.15,0C503.3,26.09,502.59,25.84,502,28Z" style="fill:#f4a086"/><path d="M499.86,29.5A9.16,9.16,0,0,1,498,26.76a16.68,16.68,0,0,1-1.68-4.22,5.83,5.83,0,0,1,.71-4.39,6.07,6.07,0,0,1,4.79-2.29,5.66,5.66,0,0,1,4.4,1.49,8,8,0,0,1,1.3,2.24,9.2,9.2,0,0,1,1,3.21,6,6,0,0,1-1,3.53,14.9,14.9,0,0,1-2.44,2.82,6.52,6.52,0,0,1-1.72,1.29C502,31,500.84,30.4,499.86,29.5Z" style="fill:#f7b690"/><path d="M502.26,18.58c1.12,1.12,1.55,2.9,2.92,3.68a2.76,2.76,0,0,0,3.45-.74,3.12,3.12,0,0,0,.39-2.8,4.56,4.56,0,0,0-1.77-2.27,8.44,8.44,0,0,0-2.67-1.19,10.58,10.58,0,0,0-4.47-.38,6.91,6.91,0,0,0-2.66,1c-.6.4-1.74,1.25-1.61,2.1s.85.71,1.34.35a3.73,3.73,0,0,1,5.08.23Z" style="fill:#222b56;fill-rule:evenodd"/><path d="M507,21.2a2.56,2.56,0,0,1,.75-.47,1.1,1.1,0,0,1,.87.05,1.28,1.28,0,0,1,.55,1,1.86,1.86,0,0,1-1.47,2.14,1.26,1.26,0,0,1-1.46-1.16A1.76,1.76,0,0,1,507,21.2Z" style="fill:#f7b690"/><path d="M411.22,143.71l4.75,8.51a7.53,7.53,0,0,0,2.45,2.66l7.35,4.9a7.55,7.55,0,0,1,3,3.78l1.1,3.08.25-3.52a7.68,7.68,0,0,0-.83-4l-3.05-5.91a7.6,7.6,0,0,1-.83-4.08h0A7.61,7.61,0,0,0,418,140.9Z" style="fill:#bd681c"/><path d="M437.12,152l.26.33a6.35,6.35,0,0,0,2.69,2l.18.07a6.33,6.33,0,0,1,3.93,7.05l-.95,5.15,5.46-7.35a6.36,6.36,0,0,0,.93-5.75l-.84-2.53a6.35,6.35,0,0,1-.31-2v-.89a6.35,6.35,0,0,0-6.71-6.33h0A6.34,6.34,0,0,0,437.12,152Z" style="fill:#bd681c"/><path d="M448.51,134.06c-12.94-2.53-20.63-7.15-27.81-7.15A10.86,10.86,0,0,0,409.64,138a11.05,11.05,0,0,0,11.06,11h26.08a7.58,7.58,0,0,0,7.58-7.57h0A7.57,7.57,0,0,0,448.51,134.06Z" style="fill:#e57e22"/><path d="M416.52,145.64l-.19,5.63a6.22,6.22,0,0,1-3,5.1l-2.09,1.25a6.2,6.2,0,0,0-2.92,4.32l-.55,3.37,1.41-2.47a6.2,6.2,0,0,1,4.07-3l7.35-1.59a6.24,6.24,0,0,0,4.14-3.11l3.45-6.34a6.21,6.21,0,0,0-3.94-9h0A6.22,6.22,0,0,0,416.52,145.64Z" style="fill:#e57e22"/><path d="M453.06,137.2c7.78-1.33,15.64-6.93,23.56-15.73-2.2,20.33-13.66,20.33-22.57,17.81Z" style="fill:#bd681c"/><path d="M442.76,151.33l2.7,3.29a5.87,5.87,0,0,0,3,1.94l5.44,1.44a5.82,5.82,0,0,1,3.72,3l3.56,7.17v-9.08a5.78,5.78,0,0,0-1.78-4.18l-3.3-3.18a5.78,5.78,0,0,1-1.78-4.18v-6.15l-7.4.42A5.81,5.81,0,0,0,442.76,151.33Z" style="fill:#e57e22"/><path d="M409.64,138l-.13-22.14,10.8,1.33,3.12,10C420.83,136.26,409.64,140.65,409.64,138Z" style="fill:#bd681c"/><path d="M410.78,139.06l-.37,0c-.69-.1-1.08-.49-1.08-1.08H410c0,.11,0,.37.54.45,2.31.31,10.44-3.71,12.63-11.38l.61.17C421.58,134.8,413.85,139.06,410.78,139.06Z" style="fill:#78a5b3"/><path d="M412,113.62l.33-10.84c5,1.38,4.28,7.65,4.73,11.5Z" style="fill:#bd681c"/><path d="M414.66,112.31c-7.83-.22-4.05,5-13.9,5a1,1,0,0,0-1,1h0a1,1,0,0,0,.66.94l11.87,4.46h0a6,6,0,0,0,2.21.43,5.91,5.91,0,0,0,.17-11.81Z" style="fill:#e57e22"/><path d="M415.8,114l4.61-9.82c4,3.25.88,8.72-.24,12.43Z" style="fill:#e57e22"/><path d="M399.87,117.82c.14-.69.56-1.53,1.29-1.53a1.41,1.41,0,0,1,1.31.93C402.13,117.74,399.66,118.88,399.87,117.82Z" style="fill:#bd681c"/><polygon points="423.64 127.36 423.23 126.87 473.38 84.4 473.79 84.89 423.64 127.36" style="fill:#78a5b3"/><path d="M286,134.83c.1,3.83,4,14,4.93,24.84.14.68,3.56.65,3.74.06.46-12.34,2.84-26.83,1.47-34.29-.46-2.49-4.85-6.83-6.87-4C287.38,124.1,285.87,131.65,286,134.83Z" style="fill:#f7b690"/><path d="M289.29,164a10.24,10.24,0,0,1,.11-3.13,5,5,0,0,1,1.39-2.68c.2.5.72,1.18,1.26,1.2s2.54-.87,2.94-.73.76,4.21,2,5.08a27.5,27.5,0,0,0,4.17,2,4.05,4.05,0,0,1,1.34.88,1.57,1.57,0,0,1,.38,1.49l-.06.13h-9.27a9.05,9.05,0,0,1-.59-1l-1.94-3.63a16,16,0,0,0-.43,4.63h-1Z" style="fill:#18898d;fill-rule:evenodd"/><path d="M301.57,134c-.5,3.8,1.73,14.21,1,25,0,.68,3.44,1,3.71.39,2.42-12.18,7.09-26.31,6.91-33.81-.07-2.51-3.75-7.19-6.22-4.52C304.7,123.47,302,130.81,301.57,134Z" style="fill:#f7b690"/><path d="M301.11,164a9.65,9.65,0,0,1,.11-3.13,5,5,0,0,1,1.38-2.68c.21.5.72,1.18,1.26,1.2s2.54-.87,2.95-.73.75,4.21,2,5.08a26.94,26.94,0,0,0,4.16,2,4.05,4.05,0,0,1,1.34.88,1.55,1.55,0,0,1,.38,1.49.52.52,0,0,1-.06.13h-9.27a9,9,0,0,1-.58-1l-1.95-3.63a15.69,15.69,0,0,0-.42,4.63h-1C301.3,166.79,301.2,165.38,301.11,164Z" style="fill:#18898d;fill-rule:evenodd"/><path d="M306,77.87c-7.07-11.24-20.2-6.46-23.61.37-2,4.07-2.47,9.31-.38,13.13,1.16,5.43,2.12,3.65,5.16,33.16,1.1,2.55,19,2.21,24.58,1.06,1.62-.15,1.74-.4,1.78-1.78C315.27,109.62,310.49,85,306,77.87Z" style="fill:#18898d;fill-rule:evenodd"/><path d="M305.14,67.05c1-2.35,1.2-6,2.31-8.3,1.71-3.54,3.31-5.16,3.31-8.11,0-4.74-5.36-6.19-8.21-11.59-1.55-3-4.33-2.93-6.79-2.93s-5.41,6.89-5.32,9.72c.17,5.66,3.53,10.06,2.81,15.76-.76,6.09-4.33,8.92-9,14L307.1,80C306.53,77.67,302.6,73.09,305.14,67.05Z" style="fill:#222b54;fill-rule:evenodd"/><path d="M292.15,46.46a25.93,25.93,0,0,0,1.43,6.12A66.1,66.1,0,0,0,301,67.69a7.14,7.14,0,0,0,1.85,2.09,2.61,2.61,0,0,0,2.67.24c1.2-.7,1.28-2.38,1.17-3.76a134.11,134.11,0,0,0-3.37-19c-.53-2.31-1.14-4.76-2.86-6.38a6.1,6.1,0,0,0-6.55-1.12C292,40.8,292,44.55,292.15,46.46Z" style="fill:#0a3c5f;fill-rule:evenodd"/><path d="M321,59c.84.31.78,1.52.44,2.35-.93,2.26-14.95,10.17-16.86,9-1.16-.72-3.09-2.9-3.05-4.29C301.55,64.32,320.63,58.83,321,59Z" style="fill:#0a3c5f;fill-rule:evenodd"/><path d="M320.12,58.94c1.09-2.45,1.88-5.34,3-6.34.9-.82.35,1.42.38,2.64,1.65-2.9,2.94-2.59,5.24-3.31s-4.42,9.66-8.23,10.19Z" style="fill:#f7b690"/><path d="M296,26.55c.4-.75,4.78,1.5,5,2s.54,6.65,1.48,10.47c.2.82-8-1.7-7.39-2.7C296,34.75,297,28.58,296,26.55Z" style="fill:#f4a086"/><path d="M308.58,21c-1.51-6.27-10.1-4.94-12.14-4.32s-2.09,3.51-2.29,5.63A5.36,5.36,0,0,0,295.29,26c.75,1,4,2.5,4.2,2.54,1.21,2.09,3.18,4.47,5.18,4.44a3,3,0,0,0,2.25-1.32A9,9,0,0,0,308,29.2,14.85,14.85,0,0,0,308.58,21Z" style="fill:#f7b690"/><path d="M293.72,24.68a6.24,6.24,0,0,1-1.48-3.13,5.84,5.84,0,0,1,1.06-3.93c1.38-2.05,4.95-4.7,7.84-4.76,3.08-.06,8.37,3,7.87,6.81-.15,1.14-.78,1.15-1.87,1.51-1.44.48-3.37.82-4.56,1.75-1.43,1.12-.79,3.81-3.71,4.69-.95.28-1.92,1.95-2.54,3.24C295.58,30,294.44,25.56,293.72,24.68Z" style="fill:#2d3436"/><path d="M297.6,25.16a1.16,1.16,0,0,0-.28.55,2.51,2.51,0,0,0,.32,1.89,2.57,2.57,0,0,0,1.58,1.09,1,1,0,0,0,.76-.08c.76-.46.37-2.08,0-2.71S298.25,24.56,297.6,25.16Z" style="fill:#f7b690"/><path d="M290.45,27.06a5.18,5.18,0,0,0-1.64,4.47c.2,1.55,1.11,3,1.11,4.53a7.07,7.07,0,0,1-1.23,3.51,28.56,28.56,0,0,1-6.14,7.23c-.26.22-.56.51-.5.85s.62.54,1,.56a17.71,17.71,0,0,0,4.82-.31,8.55,8.55,0,0,0,4.22-2.22,7.84,7.84,0,0,0,2.13-4.82,11.25,11.25,0,0,0-.91-5.24,22.66,22.66,0,0,1-1.19-2.9,3.84,3.84,0,0,1,.25-3,27.16,27.16,0,0,1,1.88-2,2.67,2.67,0,0,0,.63-1.52c-.09-.56-.75-.45-1.23-.43A5.24,5.24,0,0,0,290.45,27.06Z" style="fill:#2d3436"/><path d="M292.6,26.9a3.55,3.55,0,0,0,.83,1,3.13,3.13,0,0,0,.93.65,1.22,1.22,0,0,0,1.1,0,1.25,1.25,0,0,0,.49-1.25c-.11-.82-.78-2.24-1.73-2.3C293.12,24.9,292.07,25.77,292.6,26.9Z" style="fill:#0a3c5f;fill-rule:evenodd"/></g></g></svg>