<svg xmlns="http://www.w3.org/2000/svg" viewBox="0 0 265.3 305.05"><title>Asset 3</title><g id="Layer_2" data-name="Layer 2"><g id="OBJECTS"><path d="M1.48,305.05H265.3V0h-122c-29.19,5.27-68.83,6.1-75,25.36-13.41,41.64,24.9,64.7,0,89.57S-21.66,173.7,10.47,215.11s8,40.5,0,52.59C4,277.37-3.16,291.42,1.48,305.05Z" style="fill:#f1f1f1"/><path d="M209.05,282.22a4.57,4.57,0,0,1-.29-9.14,46.61,46.61,0,0,0,12.79-3.38,55.23,55.23,0,0,0,24-18.84,4.57,4.57,0,1,1,7.38,5.4c-17.61,24.07-42.5,25.89-43.55,25.95Z" style="fill:#74818e"/><path d="M31.5,199.73a4.57,4.57,0,0,1,9.14-.29A46.71,46.71,0,0,0,44,212.24a55.15,55.15,0,0,0,18.85,23.95,4.58,4.58,0,1,1-5.41,7.39C33.39,226,31.58,201.07,31.51,200A2.71,2.71,0,0,1,31.5,199.73Z" style="fill:#74818e"/><path d="M167.76,19.28a4.58,4.58,0,0,1-5.9,7,46.13,46.13,0,0,0-11.77-6.05,55.21,55.21,0,0,0-30.41-2,4.58,4.58,0,0,1-1.87-9c29.2-6.1,48.91,9.21,49.73,9.87Z" style="fill:#74818e"/><polygon points="54.87 195.91 81.22 182.09 91.15 208.21 65.03 217.42 54.87 195.91" style="fill:#fda080"/><path d="M63.35,194.77s8.29-1.71,11.82,0S81.71,207,81.71,207l17.39,1.24L83.37,178.66l-16.3,7.72Z" style="fill:#f4907c"/><path d="M69.11,96.93a26.42,26.42,0,0,0-13.57,34.82l44.74,101.89a26.42,26.42,0,0,0,34.82,13.57L265.3,190V10.78Z" style="fill:#d4d2d1"/><circle cx="244.64" cy="177.39" r="8.89" transform="translate(15.97 374.93) rotate(-76.77)" style="fill:gray;opacity:0.4"/><circle cx="209.57" cy="60.25" r="8.89" transform="translate(102.95 250.47) rotate(-76.77)" style="fill:gray;opacity:0.4"/><circle cx="83.43" cy="127.04" r="8.89" transform="translate(-59.43 178.92) rotate(-76.67)" style="fill:gray;opacity:0.4"/><g style="opacity:0.4"><path d="M144.76,183.61l-8.48,8.68-35.6,30.89-5.56-1.29,5.16,11.75a25.79,25.79,0,0,0,1.64,3.13c4.22-1.14,9.48-2.83,11.76-4.63,4.1-3.24,22.79-29.46,22.79-29.46s5.53-3.43,6.27-5.29,2.12-10,2.69-11.3A2.39,2.39,0,0,0,144.76,183.61Z" style="fill:gray"/><path d="M112.54,178.85c1.91-.19,3.33-2.86,3.33-2.86l3-1.34.38-3-4.95-2.1-27.81-8-17.29-3.76-.88,2.92,5,11.5,29,5.73S110.63,179,112.54,178.85Z" style="fill:gray"/></g><path d="M198,157l1.93,18,10.24,16.57,15.63,15.88-64.62,28.25-3.82-31.14-3.68-16.59-10.26-17.57L197,147a2.91,2.91,0,0,1,.4,1.16C197.44,148.72,198,157,198,157Z" style="fill:gray;opacity:0.4"/><rect x="154.65" y="166.43" width="53.67" height="36.65" rx="1.82" transform="translate(-58.39 87.12) rotate(-23.36)" style="fill:#e5e5e5"/><rect x="158" y="168.26" width="42.58" height="22.79" rx="1.48" transform="translate(-56.55 85.83) rotate(-23.36)" style="fill:#666"/><rect x="181.25" y="191.21" width="9.77" height="8.61" rx="1.53" transform="translate(-62.27 89.84) rotate(-23.36)" style="fill:#cbcbcb"/><path d="M195.5,146.72,169.84,157.8l-25.66,11.09a1.35,1.35,0,0,0-.45,2.16l6.24,6.64a1,1,0,0,0,1.11.23l23.14-10,23.13-10a1,1,0,0,0,.6-1l-.57-9.1A1.34,1.34,0,0,0,195.5,146.72Z" style="fill:#fff"/><path d="M198,157l-.56-9.05a1.36,1.36,0,0,0-1.46-.21l-25.66,11.08-25.66,11.09a1.35,1.35,0,0,0-.85,1.2l6.21,6.61a1,1,0,0,0,1.11.23l23.14-10,23.13-10A1,1,0,0,0,198,157Z" style="fill:gray"/><path d="M195.67,157.55l-.17-7.47a1.26,1.26,0,0,0-1.3-.12l-23.38,10.1-23.39,10.1a1.25,1.25,0,0,0-.8,1l5.32,5.24a.89.89,0,0,0,1,.15L174,167.47l21.08-9.11A.88.88,0,0,0,195.67,157.55Z" style="fill:#a5b4c2"/><path d="M172.92,212.34l-2.08-10s2-6.35,1.81-7.56-2.29-8.8-2.29-8.8-1.45-.15-1.76.62,0,4.48,0,4.48a9.6,9.6,0,0,1-1.38-1.86c-.24-.52-.74-5.73-1-8.23a1.45,1.45,0,0,0-1.45-1.33h0a1.45,1.45,0,0,0-1.45,1.27l-.38,2.94-2.47.49-1.15,2.7-2.6,5.56,1.64,6.27,3.66,4.84.77,8.61Z" style="fill:#eac9b8"/><path d="M207.91,197.39,201,189.85s-6.29-2.13-7.18-3-5.79-7-5.79-7,.72-1.26,1.53-1.06,3.63,2.62,3.63,2.62a10,10,0,0,0-.69-2.21c-.29-.5-4.22-4-6.11-5.61a1.45,1.45,0,0,1-.23-2h0a1.47,1.47,0,0,1,1.89-.43l2.6,1.41,1.84-1.71,2.87.65,6,1.14,4.12,5,1.78,5.8,6.53,5.67Z" style="fill:#eac9b8"/><rect x="95.65" y="165.02" width="44.87" height="32.16" transform="translate(-53.92 50.12) rotate(-19.6)" style="fill:#fff"/><rect x="95.28" y="165.28" width="43.72" height="29.77" transform="translate(-53.66 49.75) rotate(-19.6)" style="fill:#c4ccd7"/><rect x="93.43" y="162.77" width="44.87" height="32.16" transform="translate(-53.29 49.24) rotate(-19.6)" style="fill:#fff"/><path d="M96.83,161.62l5.29,2.23s6-1.27,8-.51a78.26,78.26,0,0,1,8.59,5,7,7,0,0,1,1.6,3,3.87,3.87,0,0,1-2.66,2.47c-1.38.13-7.75.32-7.75.32a24.14,24.14,0,0,1,1.89,1.78,2,2,0,0,1,.11,1.65c-.22.19-5.12-1.9-6.53-2.35a13.82,13.82,0,0,1-3.88-2.67c-.38-.38-1.67-1.84-1.67-1.84L94,168.35Z" style="fill:#fad1b1"/><path d="M130.15,204.52l3.67-4.39s6-1.64,7.38-3.23,1-4.11,1.32-4.8-.17-5.14.14-5.46c1.1-1.17,2.64-2.31,3.55-3.31,1.6-1.77.46-2.56-.35-2.23-1.29.52-9.8,6.29-9.8,6.29a25.24,25.24,0,0,0,.86-2.44c.06-.46-.38-1.45-.66-1.52s-3.68,4-4.72,5.08a13.7,13.7,0,0,0-2.23,4.15c-.16.51-.64,2.4-.64,2.4l-4.1,4.77Z" style="fill:#fad1b1"/><rect x="127.59" y="100.97" width="42.89" height="28.77" rx="3.81" transform="translate(-28.81 52.98) rotate(-18.41)" style="fill:#647889"/><path d="M170.62,124.36,137.16,135.5a4.78,4.78,0,0,1-6-3l-6.68-20.06a4.78,4.78,0,0,1,3-6l33.46-11.14a4.78,4.78,0,0,1,6.05,3l6.68,20.06A4.78,4.78,0,0,1,170.62,124.36Zm-41.06-16.65a2.83,2.83,0,0,0-1.79,3.59l6.68,20.06a2.83,2.83,0,0,0,3.58,1.79l32-10.64a2.83,2.83,0,0,0,1.79-3.59l-6.68-20.06a2.83,2.83,0,0,0-3.58-1.79Z" style="fill:#f8fbfc"/><path d="M130.79,121.43a1.19,1.19,0,1,1-1.5-.75A1.19,1.19,0,0,1,130.79,121.43Z" style="fill:#d4d2d1"/><polygon points="100.01 83.36 131.58 128.7 145.81 125.11 141.8 115.58 133.58 113.26 123.92 95.87 173.46 77.8 174.22 69.94 167.7 53.64 100.01 83.36" style="fill:gray;opacity:0.4"/><path d="M144.05,120l-6.54-3a.77.77,0,0,0-.94.23l-.06.09a.77.77,0,0,0,.3,1.17l6.61,2.91a.76.76,0,0,0,1-.34A.77.77,0,0,0,144.05,120Z" style="fill:#fdf5ea"/><path d="M130,77.8a16.67,16.67,0,0,1-3.72,1c-1.8.23-4.09-.77-5.62-.52s-5.34,2.91-5.34,2.91l-1.46,3.56L113,90.64l6.55,2.67s1.68.75,4.42-.71a62.28,62.28,0,0,0,7.66-5.71l3.3-1.72Z" style="fill:#eac9b8"/><path d="M134.57,110.83l4.46,1.55s2.34,2.51,2.77,3.2,0,2.76,0,2.76,1.55,1.55,1.46,3-2.42,3.45-5.35,3.54-6,.43-6.73,0-4-7-4-7l-4.66-6.43,9.06-4.4Z" style="fill:#eac9b8"/><path d="M40.08,203.58s-1.46-15.27,2-20,22.21-37.71,23.79-39,34.8,17,34.8,17-3.72,8.74-4.11,8.91-25-8.79-25-8.79l-4.29,13.77L73.63,173l5.72,13s-6.78,4.26-18.29,9.93A98.6,98.6,0,0,1,40.08,203.58Z" style="fill:#80c1d8"/><path d="M52.89,228.54c-.15.39,16.53,12.66,23,10.45s31.51-8.43,34.92-10.86S133,203.39,133,203.39l-6-7.27-19.82,17.94L93.54,218.3l-6.46-14.72S59.35,212,52.89,228.54Z" style="fill:#80c1d8"/><path d="M159.94,209.12l14.79-2,5.58,20.2,37.8-16.6-13.11-13,9-10.95,29.06,23.86s8.51,25.12,8.29,27.9-10.31,23.88-25.61,31-36-2.09-38.78-2.73-19.1-21.39-19.41-22.09S159.94,209.12,159.94,209.12Z" style="fill:#f39475"/><path d="M175.1,68c-1.88-10-2.74-32.51-4.61-35.7-2.45-4.18-8.11-10-17.05-13.52,0,0-38.21-3.3-47,2.09S94.53,73.62,94.55,75.77,124,115.36,124,115.36l9.34-7.32L114.44,77l41.95-18.42.75,5.23L127.85,77.35l5.81,10.39,37.51-13A5.93,5.93,0,0,0,175.1,68Z" style="fill:#e74a5f"/><polygon points="128.47 111.84 124.93 112.59 94.78 76.38 123.98 115.36 128.47 111.84" style="fill:#c9364f"/><path d="M175.14,69.94a11.18,11.18,0,0,1-4.54,3.57c-2.77,1-35.19,11-35.19,11L131.58,84l2.08,3.73,37.51-13A5.94,5.94,0,0,0,175.14,69.94Z" style="fill:#c9364f"/><path d="M114.44,77l6-44.42s17.29-1.78,22.12,0,12.05,5,12.05,5l1.77,21Z" style="fill:#c9364f"/><path d="M109.27,24.1s9.13,11.19,9.33,22.18,3.76,6.41,3.76,6.41l-1.91-20.08S115.75,26.13,109.27,24.1Z" style="fill:#c9364f"/><path d="M155,42.25s-2-11.8,3.7-17.52a18.19,18.19,0,0,0-9.4,11.44C147.14,44.43,155,42.25,155,42.25Z" style="fill:#c9364f"/><path d="M147,33.92c.3-.12-.23,8-.23,8l-2.68,4.16s-6.22,4.45-7.39,5-8,.64-8,.64-2,1-3,.53-2-3.82-2-3.82-3.77-2-3.63-9.82,10-11.19,10-11.19Z" style="fill:#eac9b8"/><path d="M122.74,19.45s-2.31-.95-3.63.82.91,5,.91,5Z" style="fill:#eac9b8"/><path d="M153.44,34.3s1.72.48,1.73,1.92-3.3,5-5.61,4.71S153.44,34.3,153.44,34.3Z" style="fill:#eac9b8"/><path d="M119,36.2s-1.3-14.08,3.3-20.78,9.63-7.85,9.63-7.85a13,13,0,0,1,10.79-1,22.55,22.55,0,0,1,13.18,13.59c1.93,5.89-.85,14.43-4.11,18.58a43.74,43.74,0,0,1-7.75,7.39s1.86-5.46-.31-5.8c0,0-8.73,6.62-14.55,6.25S122.25,45,122.25,45s7.11-1.7,10.08-4.15c0,0-8.31,2.47-12.09,2.38l2.8-3.53-1.93.94A7,7,0,0,1,119,36.2Z" style="fill:#393f4b"/><path d="M72.58,213.55s.78,3.14-.62,5.35-4.07,2.66-5.85,5.13-5.26,7.35-10.16,7.46-8.58-5-11.44-6.12-10.17.95-12.46-3.62,3.11-12.27-.44-16.21-3.05-8.67-1-10.93c3.29-3.68,7.62-4,12.65-1.18s7.88.73,10.16,0,6.17-1,7.63-.39,2.45,3.21,2.45,3.21Z" style="fill:#11114e"/><path d="M73.63,173l-6.37,2.46-3.91,9.91s6.2-.86,7.63,0a16.8,16.8,0,0,1,3,3.79c3.47-2,5.36-3.14,5.36-3.14Z" style="fill:#63adc1"/><path d="M87.08,203.58s-1.71.52-4.37,1.55c1.16,2.66,2.85,7.16,2.47,9.85-.57,4-5.83,7.05-5.83,7.05l14.19-3.73Z" style="fill:#63adc1"/><path d="M198.34,244.32s-2.53-6.87,0-10.91c3-4.71,11.24-7.79,16.47-5.78,7.65,3,7.11,5.42,7.11,5.42Z" style="fill:#fad1b1"/><path d="M225.69,233.69s-5.53-6-13.75-4.65-10.05,3-10.05,3L204,232l-3.81,2.92s-4.53,7.39-4.41,12.65a16.23,16.23,0,0,0,2.61,8.61s1,5.15,3.4,7.35,8.29,4.55,12.7,4.09a22.42,22.42,0,0,0,8.27-2.79,10.27,10.27,0,0,0,6.55-3.6,10.81,10.81,0,0,0,2.6-7s2.67-3.31,2.81-5.26-1.35-6.89-1.35-6.89S231.51,234,225.69,233.69Z" style="fill:#6f251e"/><path d="M180.31,227.36l2.3,9.45,6.29,7.51s1.71-10.53,9.91-17.31,22.5-5.07,24.6-5,10.1,9.46,10.1,9.46l-4.38-11.68-11-9.05Z" style="fill:#e28166"/><path d="M248.8,244.78S233.31,264.7,219,268.65c-12.52,3.45-27.73-.51-31.3-1.55,4.7,1.56,23.72,9.16,38,2.5C236.62,264.53,244.87,252.37,248.8,244.78Z" style="fill:#e28166"/><path d="M140.48,118.35,133.21,115a.84.84,0,0,0-1,.27l-.07.09a.86.86,0,0,0,.34,1.3l7.34,3.24a.84.84,0,0,0,1.1-.38A.86.86,0,0,0,140.48,118.35Z" style="fill:#fdf5ea"/><rect x="190.87" y="109.13" width="44.87" height="32.16" style="fill:#fff"/><rect x="190.87" y="109.13" width="43.72" height="29.77" style="fill:#c4ccd7"/><rect x="189.53" y="106.27" width="44.87" height="32.16" style="fill:#fff"/><rect x="196.58" y="76.4" width="44.87" height="32.16" transform="translate(-11.54 34.47) rotate(-8.77)" style="fill:#fff"/><rect x="196.4" y="76.51" width="43.72" height="29.77" transform="translate(-11.38 34.34) rotate(-8.77)" style="fill:#c4ccd7"/><rect x="194.82" y="73.78" width="44.87" height="32.16" transform="translate(-11.16 34.17) rotate(-8.77)" style="fill:#fff"/><path d="M73.13,130.78a1.34,1.34,0,0,0,1.85.43l4.65-2.88L78.21,126l-4.64,2.89A1.35,1.35,0,0,0,73.13,130.78Z" style="fill:#f16a44"/><circle cx="83.93" cy="124.09" r="8.27" transform="translate(-63.16 95.69) rotate(-45)" style="fill:#f16a44"/><path d="M76.31,122.72a7.38,7.38,0,0,1,.66-2.25,7.63,7.63,0,0,1,5.5-4.21l.6-.08c.2,0,.4,0,.6,0H84l.3,0a4,4,0,0,1,.6,0,7.5,7.5,0,0,1,5.68,3.86A8.2,8.2,0,0,0,87,117.17a7.87,7.87,0,0,0-4.47-.49,8,8,0,0,0-4,2.06A8.27,8.27,0,0,0,76.31,122.72Z" style="fill:#f8fbfc"/><circle cx="83.93" cy="124.09" r="6.68" style="fill:#93603d"/><path d="M77.52,126a6.68,6.68,0,0,0,13-1,6.68,6.68,0,0,0-13,1Z" style="fill:#a4704c"/><g style="opacity:0.5"><path d="M88.59,121.14a.11.11,0,0,0-.15,0,.11.11,0,0,0,0,.15,5.31,5.31,0,0,1-4.48,8.14,6,6,0,0,1-.84-.07.11.11,0,0,0,0,.21,5,5,0,0,0,.87.07,5.51,5.51,0,0,0,4.66-8.46Z" style="fill:#f8fbfc"/><path d="M80.83,119.79a.1.1,0,0,0,0-.15.1.1,0,0,0-.15,0,5.51,5.51,0,0,0-.86,8.16.09.09,0,0,0,.07,0,.13.13,0,0,0,.08,0,.11.11,0,0,0,0-.15,5.3,5.3,0,0,1,.84-7.84Z" style="fill:#f8fbfc"/><path d="M83.93,120.66a4.38,4.38,0,0,1,.51,0,.11.11,0,0,0,0-.21,3.27,3.27,0,0,0-.54,0,3.64,3.64,0,0,0-3.63,3.64,4.53,4.53,0,0,0,0,.52.11.11,0,0,0,.11.09h0a.1.1,0,0,0,.09-.12,4,4,0,0,1,0-.49A3.43,3.43,0,0,1,83.93,120.66Z" style="fill:#f8fbfc"/><path d="M86.59,126.57a.12.12,0,0,0,0-.16.12.12,0,0,0-.15,0,3.46,3.46,0,0,1-2.51,1.09,3.42,3.42,0,0,1-2.52-1.11.11.11,0,0,0-.16.14,3.64,3.64,0,0,0,5.34,0Z" style="fill:#f8fbfc"/><path d="M85.48,121a3.41,3.41,0,0,1,1.87,3.06,2.35,2.35,0,0,1,0,.26.1.1,0,0,0,.1.11h0a.11.11,0,0,0,.11-.1c0-.09,0-.18,0-.27a3.63,3.63,0,0,0-2-3.25.11.11,0,0,0-.14,0A.1.1,0,0,0,85.48,121Z" style="fill:#f8fbfc"/><path d="M83.93,126.91a2.8,2.8,0,0,0,2.42-1.37.1.1,0,0,0,0-.14.1.1,0,0,0-.14,0,2.6,2.6,0,0,1-2.24,1.26.11.11,0,0,0,0,.22Z" style="fill:#f8fbfc"/><path d="M85.78,122.24a.11.11,0,0,0,.15-.15,2.84,2.84,0,0,0-4.44.58.1.1,0,0,0,0,.14l.06,0a.11.11,0,0,0,.09-.06,2.62,2.62,0,0,1,4.1-.53Z" style="fill:#f8fbfc"/></g><path d="M218.15,48.69a1.35,1.35,0,0,0-1.9,0l-3.87,3.87,1.9,1.9,3.87-3.87A1.33,1.33,0,0,0,218.15,48.69Z" style="fill:#f16a44"/><circle cx="208.94" cy="57.97" r="8.27" transform="translate(104.35 247.91) rotate(-76.67)" style="fill:#f16a44"/><path d="M201.31,56.61a7.56,7.56,0,0,1,2-4.21,7.86,7.86,0,0,1,4.16-2.25l.59-.08a4,4,0,0,1,.6,0h.6c.2,0,.4,0,.6,0a7.66,7.66,0,0,1,4.26,2A7.82,7.82,0,0,1,215.56,54a8.22,8.22,0,0,0-3.53-2.9,7.83,7.83,0,0,0-8.47,1.58A8.17,8.17,0,0,0,201.31,56.61Z" style="fill:#f8fbfc"/><circle cx="208.94" cy="57.97" r="6.68" style="fill:#93603d"/><path d="M202.53,59.87a6.68,6.68,0,0,0,13-1,6.68,6.68,0,0,0-13,1Z" style="fill:#a4704c"/><g style="opacity:0.5"><path d="M213.59,55a.1.1,0,0,0-.14,0,.11.11,0,0,0,0,.15,5.23,5.23,0,0,1,.83,2.83,5.3,5.3,0,0,1-5.3,5.3,6,6,0,0,1-.85-.06.11.11,0,0,0,0,.21,6.4,6.4,0,0,0,.88.07A5.51,5.51,0,0,0,213.59,55Z" style="fill:#f8fbfc"/><path d="M205.83,53.67a.1.1,0,0,0,0-.14.11.11,0,0,0-.15,0,5.51,5.51,0,0,0-.87,8.16.09.09,0,0,0,.08,0,.11.11,0,0,0,.07,0,.11.11,0,0,0,0-.15A5.27,5.27,0,0,1,203.63,58,5.36,5.36,0,0,1,205.83,53.67Z" style="fill:#f8fbfc"/><path d="M208.94,54.55a2.74,2.74,0,0,1,.5,0,.12.12,0,0,0,.13-.09.12.12,0,0,0-.09-.12,3.27,3.27,0,0,0-.54,0A3.64,3.64,0,0,0,205.3,58a3.08,3.08,0,0,0,0,.53.11.11,0,0,0,.1.09h0a.1.1,0,0,0,.09-.12,2.81,2.81,0,0,1,0-.5A3.43,3.43,0,0,1,208.94,54.55Z" style="fill:#f8fbfc"/><path d="M211.6,60.45a.11.11,0,0,0,0-.15.1.1,0,0,0-.15,0,3.43,3.43,0,0,1-5,0,.1.1,0,0,0-.15,0,.11.11,0,0,0,0,.15,3.63,3.63,0,0,0,5.34,0Z" style="fill:#f8fbfc"/><path d="M210.49,54.92a3.42,3.42,0,0,1,1.87,3,2.17,2.17,0,0,1,0,.26.11.11,0,0,0,.1.12h0a.1.1,0,0,0,.1-.1,2.53,2.53,0,0,0,0-.28,3.62,3.62,0,0,0-2-3.24.11.11,0,1,0-.09.19Z" style="fill:#f8fbfc"/><path d="M208.94,60.79a2.8,2.8,0,0,0,2.41-1.36.11.11,0,0,0,0-.15.11.11,0,0,0-.15,0,2.59,2.59,0,0,1-2.23,1.26.11.11,0,0,0-.11.11A.1.1,0,0,0,208.94,60.79Z" style="fill:#f8fbfc"/><path d="M210.78,56.13a.11.11,0,1,0,.15-.15,2.77,2.77,0,0,0-2-.83,2.84,2.84,0,0,0-2.44,1.4.11.11,0,0,0,0,.15h.05a.11.11,0,0,0,.09-.05,2.6,2.6,0,0,1,4.1-.53Z" style="fill:#f8fbfc"/></g><path d="M250.82,185.06a1.33,1.33,0,0,0,.41-1.85l-2.93-4.62L246,180l2.93,4.62A1.34,1.34,0,0,0,250.82,185.06Z" style="fill:#f16a44"/><circle cx="244.01" cy="173.66" r="8.27" transform="translate(18.76 371.05) rotate(-76.67)" style="fill:#f16a44"/><path d="M236.38,172.3a7.54,7.54,0,0,1,.67-2.26,7.44,7.44,0,0,1,1.34-1.95,7.86,7.86,0,0,1,4.16-2.25l.59-.08a4,4,0,0,1,.6,0h.6c.2,0,.4,0,.6.05a7.55,7.55,0,0,1,2.29.67,7.76,7.76,0,0,1,2,1.33,8.08,8.08,0,0,1,1.43,1.87,8.22,8.22,0,0,0-3.53-2.9,7.88,7.88,0,0,0-4.47-.48,7.79,7.79,0,0,0-4,2.06A8.25,8.25,0,0,0,236.38,172.3Z" style="fill:#f8fbfc"/><circle cx="244.01" cy="173.66" r="6.68" style="fill:#93603d"/><path d="M237.6,175.56a6.68,6.68,0,0,0,13-1,6.68,6.68,0,0,0-13,1Z" style="fill:#a4704c"/><g style="opacity:0.5"><path d="M248.67,170.71a.11.11,0,0,0-.15,0,.1.1,0,0,0,0,.15A5.3,5.3,0,0,1,244,179a5.73,5.73,0,0,1-.84-.06.11.11,0,0,0-.13.08.11.11,0,0,0,.09.13,6.4,6.4,0,0,0,.88.07,5.53,5.53,0,0,0,4.66-8.47Z" style="fill:#f8fbfc"/><path d="M240.9,169.36a.1.1,0,0,0,0-.14.11.11,0,0,0-.15,0,5.51,5.51,0,0,0-.87,8.16.09.09,0,0,0,.08,0,.11.11,0,0,0,.07,0,.11.11,0,0,0,0-.15,5.28,5.28,0,0,1-1.36-3.55A5.35,5.35,0,0,1,240.9,169.36Z" style="fill:#f8fbfc"/><path d="M244,170.24a2.92,2.92,0,0,1,.51,0,.13.13,0,0,0,.12-.09.1.1,0,0,0-.09-.12,3.27,3.27,0,0,0-.54,0,3.64,3.64,0,0,0-3.64,3.63,3.15,3.15,0,0,0,0,.53.11.11,0,0,0,.1.09h0a.1.1,0,0,0,.09-.12,4.21,4.21,0,0,1,0-.5A3.43,3.43,0,0,1,244,170.24Z" style="fill:#f8fbfc"/><path d="M246.67,176.14a.11.11,0,0,0,0-.15.1.1,0,0,0-.15,0,3.45,3.45,0,0,1-5,0,.1.1,0,0,0-.15,0,.11.11,0,0,0,0,.15,3.63,3.63,0,0,0,5.34,0Z" style="fill:#f8fbfc"/><path d="M245.56,170.61a3.42,3.42,0,0,1,1.87,3,2.17,2.17,0,0,1,0,.26.12.12,0,0,0,.1.12h0a.1.1,0,0,0,.1-.1,2.53,2.53,0,0,0,0-.28,3.62,3.62,0,0,0-2-3.24.11.11,0,0,0-.09.19Z" style="fill:#f8fbfc"/><path d="M244,176.48a2.8,2.8,0,0,0,2.41-1.36.11.11,0,0,0,0-.15.11.11,0,0,0-.15,0,2.59,2.59,0,0,1-2.23,1.26.11.11,0,0,0-.11.11A.1.1,0,0,0,244,176.48Z" style="fill:#f8fbfc"/><path d="M245.85,171.82a.11.11,0,1,0,.15-.15,2.77,2.77,0,0,0-2-.83,2.84,2.84,0,0,0-2.44,1.4.11.11,0,0,0,0,.15h0a.11.11,0,0,0,.09-.05,2.63,2.63,0,0,1,2.26-1.3A2.56,2.56,0,0,1,245.85,171.82Z" style="fill:#f8fbfc"/></g><path d="M76.79,203.58c-.19-.44-1.3-.62-2.37-.69C70.3,195.27,59.9,195,59.9,195s-.83,3.27,3.6,8.68,4.41,16.13,4.41,16.13A19.78,19.78,0,0,0,72.6,216c2-2.17,3.92-5.36,3.09-9.57C76.35,205.32,77,204.06,76.79,203.58Z" style="fill:#fad1b1"/><path d="M177.05,210.65l-1-3.75a2,2,0,0,0-2.16-1.43l-13,1.66a2,2,0,0,0-1.68,2.42l1,4a2,2,0,0,0,2.22,1.5l13.06-2A2,2,0,0,0,177.05,210.65Z" style="fill:#f9e1df"/><path d="M200.63,195.76l3,2.43a2,2,0,0,0,2.59-.1l9.56-9a2,2,0,0,0-.06-2.94l-3.15-2.71a2,2,0,0,0-2.68.08l-9.44,9.23A2,2,0,0,0,200.63,195.76Z" style="fill:#f9e1df"/></g></g></svg>