<svg xmlns="http://www.w3.org/2000/svg" viewBox="0 0 437 428"><title>ee_img</title><g id="Layer_2" data-name="Layer 2"><g id="Layer_1-2" data-name="Layer 1"><g id="Group_352" data-name="Group 352"><ellipse id="Ellipse_69" data-name="Ellipse 69" cx="218.5" cy="214" rx="218.5" ry="214" style="fill:#f1f1f1"/><g id="Layer_2-2" data-name="Layer 2"><g id="OBJECTS"><path id="Path_200" data-name="Path 200" d="M6.87,186.27,196.51,377.62,423.36,163.74,335.67,75.26c-24.9-17.48-54-45.65-72.77-36.62-40.6,19.47-30.22,63.42-66.61,62.8s-108.37-24-116.07,28.29-24.36,34.2-39.11,36.87C29.27,168.69,13.67,173.34,6.87,186.27Z" style="fill:#f1f1f1"/><path id="Path_201" data-name="Path 201" d="M173.06,320.81a4.52,4.52,0,0,1-.22-6.4l.12-.12a4.81,4.81,0,0,1,6.68-.1,48.47,48.47,0,0,0,11.71,6.91,58.44,58.44,0,0,0,31.26,4.2,4.71,4.71,0,0,1,5.33,3.94,4.63,4.63,0,0,1-4,5.19h0c-30.56,4.1-49.8-12.67-50.6-13.39Z" style="fill:#74818e"/><path id="Path_202" data-name="Path 202" d="M106.77,134.2a4.81,4.81,0,0,1,6.69-.1,4.53,4.53,0,0,1,.21,6.41.57.57,0,0,1-.11.11,46.85,46.85,0,0,0-7.1,11.42,54.32,54.32,0,0,0-4.27,30.46,4.63,4.63,0,0,1-4,5.2h0a4.72,4.72,0,0,1-5.34-4c-4.21-29.77,13-48.56,13.77-49.37Z" style="fill:#74818e"/><path id="Path_203" data-name="Path 203" d="M338.91,106.51a4.74,4.74,0,0,1-9.44.63,45.84,45.84,0,0,0-4-12.78A56,56,0,0,0,305.13,70.9a4.55,4.55,0,0,1-1.33-6.31.62.62,0,0,1,.08-.12,4.82,4.82,0,0,1,6.6-1.23c25.53,16.9,28.31,41.93,28.41,43Z" style="fill:#74818e"/><path id="Path_204" data-name="Path 204" d="M126.41,148.47l29.22,9.42-12.29,25.52-25.62-12.49Z" style="fill:#fda080"/><path id="Path_205" data-name="Path 205" d="M133.36,153.82s7.23,4.82,8.49,8.57-4.39,13.32-4.39,13.32L149,189.2l10.69-32.15-17.46-6.41Z" style="fill:#f4907c"/><path id="Path_206" data-name="Path 206" d="M210.26,89.4c-14-5.58-29.94.95-35.65,14.57L131,207.86a26.42,26.42,0,0,0,14.32,34.52l.62.25,198.73,69.48,66-151.72Z" style="fill:#d4d2d1"/><path id="Path_549" data-name="Path 549" d="M271.89,265.42a9.33,9.33,0,0,1,12.61,3.11,8.85,8.85,0,0,1-2.95,12.16l-.24.14a9.34,9.34,0,0,1-12.61-3.11,8.84,8.84,0,0,1,3-12.16Z" style="fill:gray;opacity:0.4000000059604645;isolation:isolate"/><path id="Path_550" data-name="Path 550" d="M333.78,157.85A9.33,9.33,0,0,1,346.39,161a8.84,8.84,0,0,1-2.95,12.15l-.24.14a9.33,9.33,0,0,1-12.61-3.11,8.84,8.84,0,0,1,3-12.15Z" style="fill:gray;opacity:0.4000000059604645;isolation:isolate"/><path id="Path_551" data-name="Path 551" d="M193.47,113.17a9.33,9.33,0,0,1,12.6,3.14,8.85,8.85,0,0,1-3,12.15l-.23.14a9.34,9.34,0,0,1-12.61-3.14,8.85,8.85,0,0,1,3-12.15Z" style="fill:gray;opacity:0.4000000059604645;isolation:isolate"/><g id="Group_335" data-name="Group 335" style="opacity:0.4000000059604645"><path id="Path_207" data-name="Path 207" d="M200.17,205.05,187.62,205l-48.56-4.16-3-4.94-5,12a25,25,0,0,0-1.14,3.39c3.88,2.26,8.91,4.89,11.89,5.28,5.36.7,38.29-4.13,38.29-4.13s6.53,1.61,8.44.84,9-5.47,10.34-6A2.39,2.39,0,0,0,200.17,205.05Z" style="fill:gray"/><path id="Path_208" data-name="Path 208" d="M180.55,178.34c1.52,1.25,4.52.41,4.52.41l3.16,1.24,2.5-1.83-2-5.07-14.05-25.78-9.63-15.17-2.81,1.41-4.95,11.69,16.59,25S179.07,177.06,180.55,178.34Z" style="fill:gray"/></g><path id="Path_209" data-name="Path 209" d="M258.23,225l-12,14-5,19-.57,22.47-67.46-27.07,20.41-24.6,9.69-14.3L209,194.81,265,217.27a2.92,2.92,0,0,1-.58,1.1Z" style="fill:gray;opacity:0.4000000059604645;isolation:isolate"/><path id="Path_552" data-name="Path 552" d="M209.13,205.73l47.73,19.39a1.84,1.84,0,0,1,1,2.38l0,.05-13.11,30.7a1.93,1.93,0,0,1-2.49,1l-47.73-19.39a1.85,1.85,0,0,1-1-2.39l0,0,13.11-30.7A1.92,1.92,0,0,1,209.13,205.73Z" style="fill:#e5e5e5"/><path id="Path_553" data-name="Path 553" d="M213.55,209l37.8,15.35a1.5,1.5,0,0,1,.84,2v0l-7.87,18.43a1.56,1.56,0,0,1-2,.82l-37.8-15.36a1.5,1.5,0,0,1-.85-1.94v0l7.88-18.44A1.56,1.56,0,0,1,213.55,209Z" style="fill:#666"/><path id="Path_554" data-name="Path 554" d="M219.58,238.1l6.37,2.59a1.55,1.55,0,0,1,.88,2l0,0-2.19,5.14a1.61,1.61,0,0,1-2.09.84l-6.38-2.59a1.55,1.55,0,0,1-.87-2v0l2.2-5.14A1.61,1.61,0,0,1,219.58,238.1Z" style="fill:#cbcbcb"/><path id="Path_210" data-name="Path 210" d="M264.08,216,237.4,205.14,210.7,194.3a1.42,1.42,0,0,0-1.28.11,1.37,1.37,0,0,0-.65,1.08l-.45,9.18a1,1,0,0,0,.63,1L233,215.41l24.06,9.77a1.07,1.07,0,0,0,1.18-.27l6.35-6.79a1.35,1.35,0,0,0,.3-1.2A1.37,1.37,0,0,0,264.08,216Z" style="fill:#fff"/><path id="Path_211" data-name="Path 211" d="M258.23,225l6.33-6.76a1.39,1.39,0,0,0-.89-1.21L237,206.2l-26.69-10.83a1.42,1.42,0,0,0-1.5.22l-.45,9.14a1,1,0,0,0,.62,1L233,215.47l24.07,9.77A1.07,1.07,0,0,0,258.23,225Z" style="fill:gray"/><path id="Path_212" data-name="Path 212" d="M256.15,223.7l5.43-5.36a1.29,1.29,0,0,0-.84-1l-24.32-9.87-24.32-9.89a1.33,1.33,0,0,0-1.32.12l-.08,7.54a.89.89,0,0,0,.61.83l21.88,8.9,21.93,8.9A.93.93,0,0,0,256.15,223.7Z" style="fill:#a5b4c2"/><path id="Path_213" data-name="Path 213" d="M199.05,245.61l5.94-8.52s6.16-3,6.92-4,4.9-7.83,4.9-7.83-.93-1.15-1.73-.84-3.33,3.14-3.33,3.14a10,10,0,0,1,.39-2.3c.22-.54,3.73-4.56,5.41-6.5a1.44,1.44,0,0,0-.05-2h0a1.52,1.52,0,0,0-2-.16l-2.46,1.78L210.91,217,208.07,218l-6,2-3.48,5.58-1,6-5.85,6.6Z" style="fill:#eac9b8"/><path id="Path_214" data-name="Path 214" d="M235.32,260.51l.64-10.3S233,244.15,233,242.9s1-9.11,1-9.11,1.46-.36,1.89.37.66,4.47.66,4.47a9.81,9.81,0,0,0,1.15-2,83.26,83.26,0,0,0-.22-8.36,1.47,1.47,0,0,1,1.32-1.57h0a1.52,1.52,0,0,1,1.68,1.07l.82,2.87,2.6.14,1.57,2.53,3.47,5.15-.76,6.5-3,5.35.48,8.72Z" style="fill:#eac9b8"/><path id="Path_555" data-name="Path 555" d="M169.45,159.35,211,179.47l-14.79,29.06-41.56-20.12Z" style="fill:#fff"/><path id="Path_556" data-name="Path 556" d="M169.44,159.35,209.94,179l-13.68,26.89-40.5-19.6Z" style="fill:#c4ccd7"/><path id="Path_557" data-name="Path 557" d="M169.53,156.16l41.56,20.12-14.78,29.06-41.57-20.12Z" style="fill:#fff"/><path id="Path_215" data-name="Path 215" d="M182.07,154.86l2.15,5.4s5.26,3.47,6.13,5.45a77.57,77.57,0,0,1,2.46,9.74,6.9,6.9,0,0,1-1.08,3.26,4.08,4.08,0,0,1-3.75-.2c-1.09-.91-5.81-5.39-5.81-5.39a22.9,22.9,0,0,1,0,2.62,2.05,2.05,0,0,1-1.15,1.23c-.3,0-2.26-5-2.94-6.38a13.65,13.65,0,0,1-.81-4.69c0-.54.17-2.5.17-2.5L175,157.53Z" style="fill:#fad1b1"/><path id="Path_216" data-name="Path 216" d="M174.12,209.11l5.9-.42s5.53,3.2,7.71,3.09,3.77-2.16,4.52-2.41,3.7-3.73,4.16-3.73c1.66,0,3.61.3,5,.26,2.47-.08,2.23-1.46,1.41-1.82-1.31-.57-11.72-2.69-11.72-2.69a26.47,26.47,0,0,0,2.43-1.09c.38-.28.8-1.29.65-1.54s-5.61.13-7.16.13a14.42,14.42,0,0,0-4.69,1.29c-.5.25-2.25,1.22-2.25,1.22l-6.49.37Z" style="fill:#fad1b1"/><path id="Path_558" data-name="Path 558" d="M244.75,139.22,277,155.64a3.84,3.84,0,0,1,1.74,5.14.93.93,0,0,0-.05.1l-10.08,18.84a4,4,0,0,1-5.38,1.65L231,165a3.85,3.85,0,0,1-1.74-5.15l0-.1,10.08-18.84A4,4,0,0,1,244.75,139.22Z" style="fill:#647889"/><path id="Path_217" data-name="Path 217" d="M262.82,182.26,230.49,165.8a4.76,4.76,0,0,1-2.11-6.4l0-.05,10.11-18.91a5,5,0,0,1,6.62-2l32.34,16.45a4.77,4.77,0,0,1,2.17,6.38l-.06.12-10.11,18.91A5,5,0,0,1,262.82,182.26Zm-17.13-41.45a3,3,0,0,0-4,1.21l-10.11,18.91a2.82,2.82,0,0,0,1.17,3.82l.07,0,30.91,15.74a3,3,0,0,0,2.25.2,2.88,2.88,0,0,0,1.71-1.41l10.12-18.91a2.83,2.83,0,0,0-1.17-3.82l-.07,0Z" style="fill:#f8fbfc"/><path id="Path_218" data-name="Path 218" d="M236.37,151.32a1.23,1.23,0,0,1-1.2.64,1.24,1.24,0,0,1-1.07-.83,1.2,1.2,0,0,1,.39-1.29,1.25,1.25,0,0,1,1.36-.14,1.18,1.18,0,0,1,.53,1.59Z" style="fill:#d4d2d1"/><path id="Path_219" data-name="Path 219" d="M242.56,102.3l-11,54.69,12.9,7.8,4.21-9.59-4.18-7.59,6-19.2,49.05,23.27,6.39-5,7.44-16.16Z" style="fill:gray;opacity:0.4000000059604645;isolation:isolate"/><path id="Path_220" data-name="Path 220" d="M247,159.93l-2.47-6.84a.8.8,0,0,0-.85-.52l-.11,0a.78.78,0,0,0-.58.36.73.73,0,0,0-.07.67l2.58,6.84a.8.8,0,0,0,1.46.09A.79.79,0,0,0,247,159.93Z" style="fill:#fdf5ea"/><path id="Path_221" data-name="Path 221" d="M268.25,120.15a17.44,17.44,0,0,1-3.42-2c-1.46-1.15-2.36-3.51-3.65-4.44s-6-1.84-6-1.84l-3.7,1.44-5,3.51,2.72,6.62s.65,1.74,3.71,2.71a65.74,65.74,0,0,0,9.75,1.55l3.65,1.19Z" style="fill:#eac9b8"/><path id="Path_222" data-name="Path 222" d="M247,146.63,249,151s-.19,3.45-.39,4.25-2,1.94-2,1.94,0,2.21-1.19,3.16-4.3.66-6.47-1.4-4.64-4.05-4.84-4.88,2.32-7.81,2.32-7.81l1.44-7.89,9.78,3.49Z" style="fill:#eac9b8"/><path id="Path_223" data-name="Path 223" d="M110.07,143.12s10.31-11.76,16.32-12.57,44-10.33,46.1-10.09,12.37,37.16,12.37,37.16-9.17,3.43-9.58,3.27-11.43-24.3-11.43-24.3l-13.32,6.54,6.4,2.88-5.55,13.27s-8-1.93-20.53-6.3A103.25,103.25,0,0,1,110.07,143.12Z" style="fill:#80c1d8"/><path id="Path_224" data-name="Path 224" d="M100.72,169.91c-.39.17,2.47,20.87,8.76,24s28.92,17,33.18,17.72S177,210.38,177,210.38l1.09-9.44-27.58-1.8-13-6.92,6.3-15S117.67,163,100.72,169.91Z" style="fill:#80c1d8"/><path id="Path_225" data-name="Path 225" d="M192.12,233.94l12.11,9.33-11,18.21,39.52,15.78.24-18.63,14.62-1.15,3.14,37.81S238.18,319.07,236,320.86s-25.17,9.27-41.46,3.16-24.32-27.57-25.84-30,2.17-28.85,2.47-29.57S192.12,233.94,192.12,233.94Z" style="fill:#f39475"/><path id="Path_226" data-name="Path 226" d="M308,146c6.09-8.37,22.2-24.78,23.23-28.37,1.35-4.71,1.61-12.89-2.2-21.84,0,0-25-30-35.34-32.63S245.86,91.5,244.28,93,236,142.14,236,142.14l12.15,1.64,9.5-35.47,43.85,17.51L298.16,130,267,118.28l-3.55,11.5,36.63,18.09A6.23,6.23,0,0,0,308,146Z" style="fill:#e74a5f"/><path id="Path_227" data-name="Path 227" d="M241.84,142.91l-3.11-2L244,93.61l-8,48.51Z" style="fill:#c9364f"/><path id="Path_228" data-name="Path 228" d="M306.54,147.38a11.72,11.72,0,0,1-5.91-.79c-2.74-1.3-33.49-17.81-33.49-17.81l-2.36-3.13-1.28,4.12,36.63,18.09A6.24,6.24,0,0,0,306.54,147.38Z" style="fill:#c9364f"/><path id="Path_229" data-name="Path 229" d="M257.66,108.31,295,81.52s13.76,11.29,15.91,16,4.94,12.24,4.94,12.24l-14.34,16Z" style="fill:#c9364f"/><path id="Path_230" data-name="Path 230" d="M293.28,67.47s-1.76,14.47-9.78,22.32S281.43,97,281.43,97L295,81.54S296.43,73.59,293.28,67.47Z" style="fill:#c9364f"/><path id="Path_231" data-name="Path 231" d="M312.66,113.36s7.34-9.72,15.69-9.6A19.23,19.23,0,0,0,313.08,105C305.39,109.19,312.66,113.36,312.66,113.36Z" style="fill:#c9364f"/><path id="Path_232" data-name="Path 232" d="M313.1,101.72c.31.13-6.11,5.44-6.11,5.44l-5,1s-7.78-1.39-9-1.85-6.23-5.36-6.23-5.36-2.18-.75-2.55-1.8S285.57,95,285.57,95s-1.22-4.14,4.69-9.52,15.51-.59,15.51-.59Z" style="fill:#eac9b8"/><path id="Path_233" data-name="Path 233" d="M306.42,74s-.95-2.34-3.21-2.06-3.07,4.17-3.07,4.17Z" style="fill:#eac9b8"/><path id="Path_234" data-name="Path 234" d="M317.45,106.66s.88,1.58-.18,2.6-6.1,1.11-7.54-.77S317.45,106.66,317.45,106.66Z" style="fill:#eac9b8"/><path id="Path_235" data-name="Path 235" d="M291.28,83s9.54-10.82,17.82-12.18,12.76,1.48,12.76,1.48a13.37,13.37,0,0,1,8.5,7.13,22.23,22.23,0,0,1-.63,19.08c-3,5.54-11.34,9.51-16.77,10a46.09,46.09,0,0,1-11.07-.44s5.4-2.48,4.09-4.29c0,0-11.2-1.69-15.11-6.17s-3.8-6.14-3.8-6.14,6.37,4,10.33,4.4c0,0-7.81-4.29-10.46-7.1l4.64-.44-2.08-.74A6.9,6.9,0,0,1,291.28,83Z" style="fill:#393f4b"/><path id="Path_236" data-name="Path 236" d="M126,173.68s-1.78,2.77-4.43,3.31-4.9-1.09-8-.65-9.24,1.34-12.85-2.14-2.45-9.73-3.67-12.59S89,154.9,90.79,150s11.36-6.35,11.74-11.69,4.26-8.29,7.41-8.38c5.1-.2,8.45,2.72,10,8.34s5.12,6.23,7.3,7.37,5.18,3.77,5.78,5.26-.63,4-.63,4Z" style="fill:#11114e"/><path id="Path_237" data-name="Path 237" d="M156.93,146l-6.41-2.89-10.17,4.11s5.09,3.9,5.48,5.53a16.49,16.49,0,0,1-.66,4.84c4,1.11,6.19,1.68,6.19,1.68Z" style="fill:#63adc1"/><path id="Path_238" data-name="Path 238" d="M143.86,177.21s-1.61-.87-4.29-2.08c-1.14,2.7-3.28,7.09-5.55,8.7-3.39,2.39-9.43.71-9.43.71l13,7.68Z" style="fill:#63adc1"/><path id="Path_239" data-name="Path 239" d="M193.54,286.47s3.29-6.65,8.11-7.65c5.66-1.12,13.88,2.7,16.14,7.9,3.27,7.65,1.08,9,1.08,9Z" style="fill:#fad1b1"/><path id="Path_240" data-name="Path 240" d="M221.11,298.86s.48-8.22-6.43-13.24-9.46-5.18-9.46-5.18l1.55,1.5-4.91-.71s-8.75,1.89-12.58,5.67a16.23,16.23,0,0,0-4.52,7.92s-3.11,4.34-3,7.62a19.35,19.35,0,0,0,6.09,12.08,23.16,23.16,0,0,0,8,4,10.82,10.82,0,0,0,7.39,2.23,11.3,11.3,0,0,0,7.07-3s4.38-.39,5.93-1.65,4.16-5.81,4.16-5.81S225.06,303.3,221.11,298.86Z" style="fill:#6f251e"/><path id="Path_241" data-name="Path 241" d="M193.19,261.51l-5.37,8.29-1.07,9.83s9.06-6.14,20-4.95,19.95,12.77,21.41,14.34.23,14,.23,14l5.53-11.36-1.17-14.33Z" style="fill:#e28166"/><path id="Path_242" data-name="Path 242" d="M229.47,323.4s-25.95,2.72-39.17-4.88c-11.57-6.67-19.55-20.47-21.35-23.79,2.22,4.5,10.24,23.62,25.46,29.31C206,328.41,221,325.87,229.47,323.4Z" style="fill:#e28166"/><path id="Path_243" data-name="Path 243" d="M245.63,156.19l-2.74-7.63A.87.87,0,0,0,242,148h-.11a.87.87,0,0,0-.65.41.83.83,0,0,0-.07.75l2.86,7.59a.87.87,0,0,0,1.07.54.91.91,0,0,0,.54-.46A.89.89,0,0,0,245.63,156.19Z" style="fill:#fdf5ea"/><path id="Path_559" data-name="Path 559" d="M288.71,186.27,321,218.82,297,241.36l-32.25-32.54Z" style="fill:#fff"/><path id="Path_560" data-name="Path 560" d="M288.71,186.27,320.13,218,298,238.85l-31.43-31.71Z" style="fill:#c4ccd7"/><path id="Path_561" data-name="Path 561" d="M289.87,183.29l32.25,32.55-23.91,22.55L266,205.84Z" style="fill:#fff"/><path id="Path_562" data-name="Path 562" d="M312.9,168.4l36.93,27.38L329.72,221.6l-36.94-27.37Z" style="fill:#fff"/><path id="Path_563" data-name="Path 563" d="M312.89,168.41l36,26.67L330.26,219l-36-26.67Z" style="fill:#c4ccd7"/><path id="Path_564" data-name="Path 564" d="M313.58,165.29l36.94,27.37L330.4,218.49l-36.93-27.38Z" style="fill:#fff"/><path id="Path_244" data-name="Path 244" d="M188,116.05a1.33,1.33,0,0,0,.16,1,1.35,1.35,0,0,0,.85.61l5.49,1.36.71-2.67L189.69,115a1.46,1.46,0,0,0-1.08.15A1.39,1.39,0,0,0,188,116.05Z" style="fill:#f16a44"/><ellipse id="Ellipse_58" data-name="Ellipse 58" cx="200.72" cy="119.19" rx="8.34" ry="8.55" transform="translate(78.13 317.86) rotate(-89.03)" style="fill:#f16a44"/><path id="Path_245" data-name="Path 245" d="M196.25,112.71a7.68,7.68,0,0,1,2.15-1.1,8,8,0,0,1,7.08,1l.5.37.43.44.23.24.21.22a3.58,3.58,0,0,1,.44.43,7.42,7.42,0,0,1,1.21,6.83,8,8,0,0,0-.44-4.61,7.89,7.89,0,0,0-2.84-3.59,8.39,8.39,0,0,0-4.41-1.45A8.61,8.61,0,0,0,196.25,112.71Z" style="fill:#f8fbfc"/><path id="Path_565" data-name="Path 565" d="M205.68,114.51a6.62,6.62,0,0,1,0,9.37l-.17.16a7,7,0,0,1-9.77-.16,6.63,6.63,0,0,1,0-9.37l.17-.16A7,7,0,0,1,205.68,114.51Z" style="fill:#93603d"/><path id="Path_246" data-name="Path 246" d="M194.68,115.88a6.64,6.64,0,0,0,1.46,8.31,7,7,0,0,0,8.63.42,6.6,6.6,0,0,0-1.46-8.3A7,7,0,0,0,194.68,115.88Z" style="fill:#a4704c"/><g id="Group_336" data-name="Group 336" style="opacity:0.5"><path id="Path_247" data-name="Path 247" d="M206.25,120.51a.11.11,0,1,0-.21,0,5.44,5.44,0,0,1-3.9,3.9,5.6,5.6,0,0,1-5.38-1.44,6.87,6.87,0,0,1-.55-.66.12.12,0,0,0-.13,0,.11.11,0,0,0,0,.13,6.3,6.3,0,0,0,.58.68,5.81,5.81,0,0,0,5.59,1.51,5.65,5.65,0,0,0,4.05-4.06Z" style="fill:#f8fbfc"/><path id="Path_248" data-name="Path 248" d="M201.68,113.93a.11.11,0,0,0,.08,0,.11.11,0,0,0,0-.07.11.11,0,0,0,0-.08.08.08,0,0,0-.08,0,5.76,5.76,0,0,0-4.5,1.09,5.51,5.51,0,0,0-2.18,4,.1.1,0,0,0,.05.06.12.12,0,0,0,0,0,.1.1,0,0,0,.11-.1,5.34,5.34,0,0,1,2.11-3.85,5.58,5.58,0,0,1,4.33-1Z" style="fill:#f8fbfc"/><path id="Path_249" data-name="Path 249" d="M203.26,116.79a4.31,4.31,0,0,1,.37.37.12.12,0,0,0,.13,0,.11.11,0,0,0,0-.13,3.59,3.59,0,0,0-.39-.39,3.84,3.84,0,0,0-5.32-.08,3.33,3.33,0,0,0-.39.36.11.11,0,0,0,0,.14h0a.11.11,0,0,0,.08,0,.1.1,0,0,0,.07,0c.11-.12.24-.24.36-.35A3.61,3.61,0,0,1,203.26,116.79Z" style="fill:#f8fbfc"/><path id="Path_250" data-name="Path 250" d="M200.78,122.86a.13.13,0,0,0,.12-.11.12.12,0,0,0-.11-.11,3.63,3.63,0,0,1-2.61-1.06,3.36,3.36,0,0,1-1-2.6.11.11,0,0,0-.1-.09.11.11,0,0,0-.12.07,3.64,3.64,0,0,0,1.05,2.75,3.8,3.8,0,0,0,2.79,1.12Z" style="fill:#f8fbfc"/><path id="Path_251" data-name="Path 251" d="M204.12,118.15a3.37,3.37,0,0,1-.93,3.5,1.62,1.62,0,0,1-.19.18.11.11,0,0,0,0,.15h0a.12.12,0,0,0,.15,0l.2-.19a3.61,3.61,0,0,0,1-3.73.12.12,0,0,0-.1-.1.09.09,0,0,0-.13,0A.1.1,0,0,0,204.12,118.15Z" style="fill:#f8fbfc"/><path id="Path_252" data-name="Path 252" d="M198.62,121.17a2.92,2.92,0,0,0,2.75.8.12.12,0,0,0,.11-.1h0a.11.11,0,0,0-.1-.11h0a2.74,2.74,0,0,1-2.55-.74.12.12,0,0,0-.16,0,.11.11,0,0,0,0,.16h0Z" style="fill:#f8fbfc"/><path id="Path_253" data-name="Path 253" d="M203.42,119.24a.12.12,0,0,0,.14.08s.07,0,.08-.08a2.87,2.87,0,0,0-1.11-2.27,3,3,0,0,0-2.52-.54.1.1,0,0,0-.1.1h0l0,0a.09.09,0,0,0,.11,0,2.75,2.75,0,0,1,2.32.51,2.61,2.61,0,0,1,1,2.1Z" style="fill:#f8fbfc"/></g><path id="Path_254" data-name="Path 254" d="M353.26,163.68a1.38,1.38,0,0,0-1.36-1.38l-5.66-.09-.05,2.71,5.66.1a1.41,1.41,0,0,0,1-.38,1.39,1.39,0,0,0,.42-1Z" style="fill:#f16a44"/><path id="Path_566" data-name="Path 566" d="M335.37,156.32a8.69,8.69,0,0,1,11.73,2.92,8.22,8.22,0,0,1-2.77,11.3l-.22.13a8.68,8.68,0,0,1-11.73-2.91,8.25,8.25,0,0,1,2.77-11.31Z" style="fill:#f16a44"/><path id="Path_255" data-name="Path 255" d="M335.27,157a8,8,0,0,1,4.57-1.5A8.25,8.25,0,0,1,344.5,157l.48.37a3,3,0,0,1,.43.44l.43.43.44.44a7.27,7.27,0,0,1,1.17,6.89,8,8,0,0,0-7.64-9.63A8.58,8.58,0,0,0,335.27,157Z" style="fill:#f8fbfc"/><path id="Path_567" data-name="Path 567" d="M344.71,158.82a6.62,6.62,0,0,1,0,9.37l-.17.16a7,7,0,0,1-9.77-.16,6.62,6.62,0,0,1,0-9.36l.17-.17A7,7,0,0,1,344.71,158.82Z" style="fill:#93603d"/><path id="Path_256" data-name="Path 256" d="M333.72,160.19a6.63,6.63,0,0,0,1.46,8.31,7.06,7.06,0,0,0,8.63.42,6.63,6.63,0,0,0-1.46-8.31A7,7,0,0,0,333.72,160.19Z" style="fill:#a4704c"/><g id="Group_337" data-name="Group 337" style="opacity:0.5"><path id="Path_257" data-name="Path 257" d="M345.29,164.8a.11.11,0,0,0-.09-.11h0a.13.13,0,0,0-.11.11,5.22,5.22,0,0,1-1.51,2.59,5.58,5.58,0,0,1-7.75-.13q-.3-.31-.57-.66a.13.13,0,0,0-.13,0,.12.12,0,0,0,0,.13,7.56,7.56,0,0,0,.58.69,5.81,5.81,0,0,0,5.6,1.45A5.62,5.62,0,0,0,345.29,164.8Z" style="fill:#f8fbfc"/><path id="Path_258" data-name="Path 258" d="M340.7,158.24a.12.12,0,0,0,.11-.1h0a.12.12,0,0,0-.11-.11,5.81,5.81,0,0,0-4.51,1.08,5.55,5.55,0,0,0-2.19,4,.09.09,0,0,0,.06.06.12.12,0,0,0,.05,0,.11.11,0,0,0,.11-.11,5.22,5.22,0,0,1,1.68-3.44,5.61,5.61,0,0,1,4.8-1.44Z" style="fill:#f8fbfc"/><path id="Path_259" data-name="Path 259" d="M342.28,161.11a2,2,0,0,1,.36.36.12.12,0,0,0,.16,0,.11.11,0,0,0,0-.15,3.59,3.59,0,0,0-.39-.39,3.84,3.84,0,0,0-5.34-.07,2.72,2.72,0,0,0-.39.37.11.11,0,0,0,0,.13h0a.13.13,0,0,0,.08,0,.14.14,0,0,0,.08,0,2.41,2.41,0,0,1,.37-.34A3.6,3.6,0,0,1,342.28,161.11Z" style="fill:#f8fbfc"/><path id="Path_260" data-name="Path 260" d="M339.81,167.18a.12.12,0,0,0,.11-.11.1.1,0,0,0-.11-.11,3.58,3.58,0,0,1-2.6-1.05,3.39,3.39,0,0,1-1-2.57.11.11,0,0,0,0-.08.08.08,0,0,0-.08,0,.1.1,0,0,0-.11.1,3.6,3.6,0,0,0,1.05,2.76,3.78,3.78,0,0,0,2.79,1.11Z" style="fill:#f8fbfc"/><path id="Path_261" data-name="Path 261" d="M343.12,162.49a3.39,3.39,0,0,1-.88,3.46,1.8,1.8,0,0,1-.2.19.12.12,0,0,0,0,.15h0a.11.11,0,0,0,.14,0l.2-.2a3.6,3.6,0,0,0,1-3.72.12.12,0,0,0-.08-.11.12.12,0,0,0-.13,0,.15.15,0,0,0,0,.13Z" style="fill:#f8fbfc"/><path id="Path_262" data-name="Path 262" d="M337.65,165.48a3,3,0,0,0,2.74.8.11.11,0,0,0,0-.22,2.71,2.71,0,0,1-2.54-.73.12.12,0,0,0-.16,0,.11.11,0,0,0-.07.06.1.1,0,0,0,0,.09Z" style="fill:#f8fbfc"/><path id="Path_263" data-name="Path 263" d="M342.43,163.55a.1.1,0,0,0,0,.12.12.12,0,0,0,.13,0,.12.12,0,0,0,0-.12,2.78,2.78,0,0,0-.82-2,3,3,0,0,0-2.79-.79.12.12,0,0,0-.11.11l0,0a.17.17,0,0,0,.1,0,2.74,2.74,0,0,1,2.33.49,2.6,2.6,0,0,1,1,2.11Z" style="fill:#f8fbfc"/></g><path id="Path_264" data-name="Path 264" d="M275.33,283a1.38,1.38,0,0,0,1.05-.16A1.32,1.32,0,0,0,277,282l1.33-5.36-2.7-.68-1.33,5.36a1.32,1.32,0,0,0,.15,1.06,1.37,1.37,0,0,0,.88.62Z" style="fill:#f16a44"/><path id="Path_568" data-name="Path 568" d="M274.55,262.87a8.67,8.67,0,0,1,11.72,2.92,8.23,8.23,0,0,1-2.76,11.3,1.71,1.71,0,0,1-.23.13,8.66,8.66,0,0,1-11.72-2.92,8.22,8.22,0,0,1,2.77-11.3Z" style="fill:#f16a44"/><path id="Path_265" data-name="Path 265" d="M274.44,263.57a8,8,0,0,1,4.58-1.49,8.25,8.25,0,0,1,4.66,1.44l.48.36a6.09,6.09,0,0,1,.44.44l.43.44a2.22,2.22,0,0,1,.39.47,7.89,7.89,0,0,1,1.6,4.51,8.12,8.12,0,0,1-.36,2.35,8.08,8.08,0,0,0-.39-4.59,8,8,0,0,0-2.85-3.58,8.21,8.21,0,0,0-4.41-1.46A8.72,8.72,0,0,0,274.44,263.57Z" style="fill:#f8fbfc"/><path id="Path_569" data-name="Path 569" d="M283.88,265.37a6.63,6.63,0,0,1,0,9.37l-.17.16a7,7,0,0,1-9.77-.16,6.62,6.62,0,0,1,0-9.36l.17-.17A7,7,0,0,1,283.88,265.37Z" style="fill:#93603d"/><path id="Path_266" data-name="Path 266" d="M272.9,266.74a6.62,6.62,0,0,0,1.46,8.31,7,7,0,0,0,8.62.42,6.62,6.62,0,0,0-1.46-8.31A7,7,0,0,0,272.9,266.74Z" style="fill:#a4704c"/><g id="Group_338" data-name="Group 338" style="opacity:0.5"><path id="Path_267" data-name="Path 267" d="M284.46,271.37a.11.11,0,0,0-.11-.11.11.11,0,0,0-.08,0,.11.11,0,0,0,0,.07,5.39,5.39,0,0,1-3.91,3.91,5.56,5.56,0,0,1-5.39-1.48,5.81,5.81,0,0,1-.56-.65.12.12,0,0,0-.16,0,.22.22,0,0,0-.05.08.11.11,0,0,0,0,.08,7.56,7.56,0,0,0,.58.69,5.85,5.85,0,0,0,5.6,1.49,5.62,5.62,0,0,0,4.05-4.05Z" style="fill:#f8fbfc"/><path id="Path_268" data-name="Path 268" d="M279.88,264.79a.11.11,0,0,0,.1-.1h0a.11.11,0,0,0-.11-.11,5.83,5.83,0,0,0-4.51,1.08,5.54,5.54,0,0,0-2.18,4,.09.09,0,0,0,.06.06.08.08,0,0,0,.05,0,.13.13,0,0,0,.11-.11,5.26,5.26,0,0,1,1.66-3.47A5.64,5.64,0,0,1,279.88,264.79Z" style="fill:#f8fbfc"/><path id="Path_269" data-name="Path 269" d="M281.45,267.65a2.65,2.65,0,0,1,.37.38.16.16,0,0,0,.15,0,.12.12,0,0,0,0-.07.11.11,0,0,0,0-.08,2.4,2.4,0,0,0-.38-.4,3.85,3.85,0,0,0-5.32-.09,3.41,3.41,0,0,0-.39.37.12.12,0,0,0,0,.14h0a.08.08,0,0,0,.08,0,.08.08,0,0,0,.07,0,4.14,4.14,0,0,1,.38-.35A3.61,3.61,0,0,1,281.45,267.65Z" style="fill:#f8fbfc"/><path id="Path_270" data-name="Path 270" d="M279,273.73a.11.11,0,0,0,.11-.11.08.08,0,0,0,0-.08.11.11,0,0,0-.08,0,3.63,3.63,0,0,1-2.6-1.06,3.46,3.46,0,0,1-1-2.56.08.08,0,0,0,0-.08s0,0-.07,0a.1.1,0,0,0-.11.1,3.63,3.63,0,0,0,1,2.76,3.84,3.84,0,0,0,2.79,1.12Z" style="fill:#f8fbfc"/><path id="Path_271" data-name="Path 271" d="M282.3,269a3.4,3.4,0,0,1-.89,3.46l-.19.19a.12.12,0,0,0,0,.15h0a.11.11,0,0,0,.14,0,2,2,0,0,0,.21-.2,3.6,3.6,0,0,0,1-3.72.1.1,0,0,0-.13,0,.11.11,0,0,0-.08.11Z" style="fill:#f8fbfc"/><path id="Path_272" data-name="Path 272" d="M276.81,272a3,3,0,0,0,2.75.79.13.13,0,0,0,.11-.1.12.12,0,0,0-.11-.11,2.71,2.71,0,0,1-2.54-.74.12.12,0,0,0-.16,0,.1.1,0,0,0-.07.07A.1.1,0,0,0,276.81,272Z" style="fill:#f8fbfc"/><path id="Path_273" data-name="Path 273" d="M281.61,270.1a.09.09,0,0,0,0,.12.12.12,0,0,0,.13,0,.12.12,0,0,0,.05-.12,2.78,2.78,0,0,0-.82-2,3,3,0,0,0-2.8-.79.12.12,0,0,0-.11.11h0a.1.1,0,0,0,.1,0,2.76,2.76,0,0,1,2.59.73A2.56,2.56,0,0,1,281.61,270.1Z" style="fill:#f8fbfc"/></g><path id="Path_274" data-name="Path 274" d="M136.47,169.75c.19-.45-.48-1.38-1.2-2.21,2.71-8.33-4.56-16.06-4.56-16.06s-3,1.69-3.87,8.7S118,174.69,118,174.69a21.23,21.23,0,0,0,6.2.73c3-.07,6.8-.92,9.34-4.47C134.86,170.65,136.26,170.24,136.47,169.75Z" style="fill:#fad1b1"/><path id="Path_275" data-name="Path 275" d="M203.28,247.43l2.07-3.36a2,2,0,0,0-.49-2.57l-10.58-8.26a2.11,2.11,0,0,0-1.61-.41,2.09,2.09,0,0,0-1.4.88L189,237.24a2,2,0,0,0,.49,2.66L200.37,248a2.1,2.1,0,0,0,1.58.32A2.08,2.08,0,0,0,203.28,247.43Z" style="fill:#f9e1df"/><path id="Path_276" data-name="Path 276" d="M231.3,254.09l.35,3.88a2,2,0,0,0,1.93,1.81l13.57.62a2.13,2.13,0,0,0,1.55-.6,2,2,0,0,0,.6-1.51l-.26-4.18a2.05,2.05,0,0,0-2-1.89l-13.65-.37a2.08,2.08,0,0,0-1.58.65,2,2,0,0,0-.53,1.59Z" style="fill:#f9e1df"/></g></g></g></g></g></svg>