<svg xmlns="http://www.w3.org/2000/svg" xmlns:xlink="http://www.w3.org/1999/xlink" viewBox="0 0 16 15.98"><defs><linearGradient id="a" x1="12.51" y1="12.45" x2="0.49" y2="0.3" gradientUnits="userSpaceOnUse"><stop offset="0" stop-color="#e2a325"/><stop offset="0.09" stop-color="#c6954f"/><stop offset="0.17" stop-color="#b28b6e"/><stop offset="0.24" stop-color="#a58480"/><stop offset="0.28" stop-color="#a18287"/><stop offset="0.8" stop-color="#0e8f9d"/><stop offset="0.97" stop-color="#426286"/></linearGradient></defs><title>favicon-rg-mini</title><path d="M14.44,11.37a4.78,4.78,0,0,0-.51.23A9.21,9.21,0,0,1,14.3,13a7.29,7.29,0,0,0,.76-1.06C14.77,11.56,14.54,11.33,14.44,11.37Z" style="fill:#302d2f"/><path d="M14.24,13c-.26-.25-1-1.2-1-1.2s-.63.49-.69.36.15-2-.07-2.15,0-.67-.83.07-.88,1.11-1.24.74-.39-.39-.5-.31-1.17.8-1.24,1.21.09.61.29.47,1.14-.87,1.32-.79A10.78,10.78,0,0,1,11.46,13c.28.41.59,1.39.36,1.33s-.57-.71-1-1.28-.68-.86-.87-.65.34.9.33,1.12,0,.28-.38,0-.37-.64-.64-.48-.48.51-.76.46-1.15-2.53-1.73-2.17S4.71,13.17,4.29,13.2,3,12,2.51,12.32a6.8,6.8,0,0,0-.82.94A8.39,8.39,0,0,0,14.25,13Z" style="fill:#302d2f"/><path d="M3.19,11.54c.21,0,.78.7,1,.76a.43.43,0,0,0,.57-.06,23.15,23.15,0,0,1,2.44-1.85c.12,0,.8.89.94.9S9.8,9.9,10,9.88s.5.53.64.49,1.76-1.65,2-1.44.73,1.87.88,1.91.63-.36.87-.34.69.57.87.85A8,8,0,1,0,1.47,12.58,16.73,16.73,0,0,1,3.19,11.54Z" style="fill:url(#a)"/><path d="M5.12,7.09s-.53-.86-.63-1S3.6,4.89,3.62,4.56A15.64,15.64,0,0,1,3.75,2.7a5.6,5.6,0,0,1,.87,1.46c0,.3.62.86.72,1A2,2,0,0,0,6,5.78,5.58,5.58,0,0,1,7.14,6c.12.1-.18.5-.13.67s.37.63.48.89a6.51,6.51,0,0,0,.29.73c.12.16.12.34.3.47s.65.46.4.46a5.43,5.43,0,0,1-1.65-.6C6.69,8.44,6,7.75,5.76,8s-.42.51-.38.68-.4,0-.74-.44-.46-.61-.13-.7A1.41,1.41,0,0,0,5.12,7.09Z" style="fill:#302d2f"/></svg>