<?xml version="1.0" encoding="utf-8"?>
<!-- Generator: Adobe Illustrator 24.0.2, SVG Export Plug-In . SVG Version: 6.00 Build 0)  -->
<svg version="1.1" baseProfile="tiny" id="Layer_1" xmlns="http://www.w3.org/2000/svg" xmlns:xlink="http://www.w3.org/1999/xlink"
	 x="0px" y="0px" viewBox="0 0 48 48" xml:space="preserve">
<path fill="#FFFFFF" d="M8.4,14L8.4,14L8.4,14c2.8,0,4.6-2,4.6-4.5C12.9,6.9,11.3,5,8.5,5S4,6.9,4,9.5C4,12,5.7,14,8.4,14z M4,17h9
	v26H4V17z M44,26.5c0-5.2-4.3-9.5-9.5-9.5c-3.1,0-5.8,1.4-7.5,3.7V17h-9v26h9V28l0,0c0-2.2,1.8-4,4-4s4,1.8,4,4v15h9
	C44,43,44,28,44,26.5z"/>
</svg>
