<svg xmlns="http://www.w3.org/2000/svg" viewBox="0 0 508.15 498.41"><title>Meetup-white</title><path d="M496,169.81a66.34,66.34,0,0,0-35.66-25.31A120.72,120.72,0,0,0,298.61,21.83C253.54-7,193.92-8.25,147.13,24.07A136.14,136.14,0,0,0,97.06,87.94a90.23,90.23,0,0,0-39.58,14.91c-40.4,27.92-51.06,82.33-25.43,123.59A98.37,98.37,0,0,0,15.68,352.31C31.36,376.6,56,391.24,82.44,395.59a105.41,105.41,0,0,0,165.45,84.1c1.83-1.27,3.25-2.88,5-4.24,26.73,23.86,66.87,27.8,97.66,6.53A78.88,78.88,0,0,0,382,436.19c24.09.89,48.62-5.23,70-20a115.75,115.75,0,0,0,32.2-156.79A66.77,66.77,0,0,0,496,169.81ZM326.75,362.17c-22.53-11-36.21-36.27-30.36-61.19,4.37-18.63,46-94.74,47.58-106.44,1.59-11.92-4.78-12.95-8.76-13.14-5.13-.27-9.18,2.23-14.22,9.83-4.58,6.92-56.38,110.64-60.88,119.11-8,15.15-18.16,18.81-28.32,18.26-14.82-.77-21.6-8.71-19.46-23,1.26-8.4,34.11-82.6,35.81-94.17,1.05-7.16-.37-14.76-7.47-18.4s-15.49,1.94-18,6.17c-3.46,5.83-50,127.46-55,136.47-8.58,15.59-17.62,20.55-31.2,21.2C104.35,358.41,80.52,332,91,299.6c4.69-14.43,35.62-123.82,51.3-151.67,10.53-18.71,39.77-32.93,60-24.15,10.51,4.54,25.06,11.81,29.36,13.71,9.91,4.39,20.55-7.51,24.73-11.15s8.2-7.47,13.31-9.66,13.12-3.1,19.32-2.18a24.35,24.35,0,0,1,12.21,5.1c4.55,3.63,7.4,6.51,11.7,10.6,6.49,6.17,11.15,2.44,14.4.55,5.63-3.27,10-5.93,26.7-5.62,17.15.3,36.86,6.42,40.95,35.67,4.56,32.48-53.19,116.16-49.15,155,2.86,27.36,49.11,8.11,53,33.08C404,381.27,341.13,369.21,326.75,362.17Z" style="fill:#fff"/></svg>