<svg xmlns="http://www.w3.org/2000/svg" width="495" height="426.212" viewBox="0 0 495 426.212"><defs><style>.a{fill:#c9edd7;}.b{fill:#ffe4b3;}.c{fill:#fff;}.d{fill:#6acc8f;}.e{fill:#fcc490;}.f{fill:#000200;}.g{fill:#ed6129;}.h{fill:#c04d34;}.i{fill:#fbf8de;}.j{fill:#dda078;}.k{opacity:0.6;}.l{fill:#f27034;}.m{fill:#37499b;}.n{fill:#010001;}.o{fill:#feb01f;}.p{fill:#ffb42e;}.q{fill:#000306;}.r{fill:#2d1c1f;}.s{fill:#8b7b6c;}.t{fill:#ef6129;}.u{opacity:0.4;}.v{fill:#ffb42f;}.w{fill:#805365;}.x{fill:#7c8956;}.y{fill:#cd3045;}.z{fill:#f3e6cf;}.aa{fill:#38735f;}.ab{fill:#feb329;}.ac{fill:#438068;}.ad{opacity:0.3;}.ae{fill:#1e183c;}.af{fill:#6e4198;}.ag{fill:#f8ae65;}.ah{fill:#c4793b;}.ai{fill:#e59852;}.aj{fill:#6bcc96;}.ak{fill:#bab399;}.al{fill:#e52d1a;}.am{fill:#c9efd7;}</style></defs><g transform="translate(-247 -43.52)"><g transform="translate(247.006 43.52)"><g transform="translate(0 0)"><path class="a" d="M0,119.781S127.87,45.653,166.338,49.942s71.087,83.64,104.97,83.64c33.213,0,58.268-38.549,99.11-28.073,21.471,5.512,124.308,51.364,124.308,51.364v88.3L0,248.394Z" transform="translate(0 8.473)"/><path class="b" d="M354.235,246.464c-24.6-7.206-50.374-12.16-73.187-24.052-10.323-5.362-24.1-12.621-28.771-23.762-5.574-13.329,18.756-60.542,25.869-71.18l-6.838.5c-7.366,11-36.28,45.777-37.775,59.063-1.473,13.071,4.4,25.028,14.116,33.788,16.733,15.087,51.562,29.446,73.835,35.654,55.409,15.42,46.394,35.643-63.864,21.446C203.025,270.977,83.664,262.656,0,265.712v72.134c88.754-2.52,140.3-6.67,253.96,4.6C404.291,357.341,450.806,274.773,354.235,246.464Z" transform="translate(0 10.369)"/><path class="a" d="M406.665,47.48S321.154,79.231,251.651,57.635c-17.173-5.362-48.538-21.275-66.414-23.666C106.762,23.493,64.82,67.211,64.82,67.211s61.225-41.884,126.012-22.84c16.656,4.89,29.838,12.214,46.57,16.91s43.877,9.479,61.412,8.578C378.345,65.592,410.81,45.164,406.665,47.48Z" transform="translate(6.443 7.213)"/><path class="b" d="M11.282,0A11.773,11.773,0,0,1,22.847,11.567,11.085,11.085,0,0,1,11.567,22.847,11.773,11.773,0,0,1,0,11.282,11.085,11.085,0,0,1,11.282,0Z" transform="translate(282.71 16.156) rotate(-45)"/><path class="a" d="M244.559,29.263c-93.69-44.9-201.6,2.949-238.469,19.1,0,0,66.447-33.821,162.193-28.856,44.382,2.305,82.454,21.543,102.068,26.6C313.227,57.132,336.6,35.547,336.6,35.547S307.379,59.288,244.559,29.263Z" transform="translate(0.605 5.636)"/><path class="a" d="M472.7,49.952c-17.909-3.71-45.7,1.887-58.653,6.2-139,46.259-193.284,11.184-196.11,10.133,85.236,50.012,192.218-12.868,252.146-8.128l2.617.2Z" transform="translate(21.662 8.399)"/><path class="c" d="M205.551,84.825a12.752,12.752,0,0,1-6.5,5.362c-5.717,2.145-12.258.708-17.766-1.362-10.037-3.753-18.69-9.05-29.541-10.519-19.382-2.606-43.041,3.6-59.026-10.476a2.806,2.806,0,0,0-.978-.579l-3.529,1.544a2.257,2.257,0,0,0,.627,2.82c20.526,18.09,49.286,6.1,73.011,14.562,11.412,4.075,22.208,12.214,35.06,10.058a19.57,19.57,0,0,0,12.258-7.206Z" transform="translate(8.743 8.665)"/><path class="c" d="M378.654,114.357a13.978,13.978,0,0,1-4.738,4.547c-9.785,5.844-22.12-.2-31.948-2.724-9.993-2.563-18.459-1.255-28.155,1.78-8.8,2.734-24.033,6.766-28.276-4.45l-4.815,2.67c4.4,9.651,16.15,11.484,26.078,9.361,7.7-1.651,14.974-5.362,22.933-5.662,8.256-.268,15.963,3.324,23.824,5.244,10.994,2.681,24.022,1.909,30.112-8.7Z" transform="translate(27.902 11.4)"/><path class="d" d="M211.84,209.955c.088-1.351,5.585-12.8,5.8-24,.209-9.972-1.748-18.5-4.837-28.052-1.231-3.8-1.187-7.7,2.628-8.332,3.386-.558,5.376,3.088,6.179,5.715A130.733,130.733,0,0,1,225,168.007c1.8,9.94,1.1,18.4-1.957,25.789a185.636,185.636,0,0,1-8.8,17.157S212.236,210.084,211.84,209.955Z" transform="translate(21.055 13.203)"/><path class="e" d="M212.207,205.55s-2.276,2.295-3.991,3.914c-.462,1-1.165,4.289-.385,4.472,1.616.289,1.374-2.745,1.374-2.745a10.584,10.584,0,0,1-.792,2.949c-.9,2.552,1.451,4.289,3.892,4.472s-.11-2.07.352-3.549c1.187-3.828,2.067-8.192,2.067-8.192Z" transform="translate(20.622 16.755)"/><path class="e" d="M212.246,143.161a17.4,17.4,0,0,0,5.5.836.537.537,0,0,1,.561.407c.407,1.694,1.583,6.38,1.792,7.12a2.642,2.642,0,0,0,3.1,1.871,2.578,2.578,0,0,0,2.052-2.943c-.121-2.005-.33-5.008-.308-5.983.858-.139,3.3.354,4.112.086a6.485,6.485,0,0,0,4.4-4.965c.935-3.539,1.9-7.088,2.5-10.723a11.649,11.649,0,0,0-4.507-11.559,21.832,21.832,0,0,0-9.609-4.429,8.222,8.222,0,0,0-6.959,1.909c-4.628,3.667-10.675,11.131-9.8,18.991A11.306,11.306,0,0,0,212.246,143.161Z" transform="translate(20.375 11.234)"/><path class="d" d="M213.284,152.1c.308-2.97,11.994-4.976,16.491-4.289s6.08,4.4,7.806,8.364c2.7,6.23,7.927,26.465,7.7,40.951,0,0-17.195-1.726-21.328-1.533C221.607,186.2,211.218,172.2,213.284,152.1Z" transform="translate(21.172 13.177)"/><path class="f" d="M214.141,130.04a.73.73,0,0,0,.583.836.745.745,0,0,0,.756-.309.7.7,0,0,0-.005-.8.745.745,0,0,0-.76-.3A.727.727,0,0,0,214.141,130.04Z" transform="translate(21.283 12.379)"/><path class="f" d="M207,128.72a.715.715,0,0,0,.122.546.749.749,0,0,0,.482.3.74.74,0,0,0,.562-.12.705.705,0,0,0,.3-.481.726.726,0,0,0-.6-.836.74.74,0,0,0-.858.59Z" transform="translate(20.573 12.301)"/><path class="g" d="M208.12,134.71c1.935.815,4.485,1.308,6.069.815a3.237,3.237,0,0,1-.572,1.383c-.616.7-1.231.965-2.7.729a2.875,2.875,0,0,1-2.32-1.265A3.536,3.536,0,0,1,208.12,134.71Z" transform="translate(20.686 12.68)"/><path class="h" d="M209.867,134.674a11.383,11.383,0,0,0,2.584.418c.583,0,1.374.483,1.385.7a2.814,2.814,0,0,1-.3.418c-.583.654-1.176.9-2.606.676a2.65,2.65,0,0,1-2.573-1.941C208.283,134.664,209.295,134.514,209.867,134.674Z" transform="translate(20.709 12.677)"/><path class="i" d="M213.318,135.588c-.517.815-1.462.686-2.661.5s-1.737-.279-2.078-1.222A17.4,17.4,0,0,0,213.318,135.588Z" transform="translate(20.731 12.697)"/><path class="g" d="M208.07,134.717c.759-.751,1.2-.247,2.682-.064a7.329,7.329,0,0,1,3.463.933,9.779,9.779,0,0,1-3.364-.139A14.862,14.862,0,0,1,208.07,134.717Z" transform="translate(20.681 12.665)"/><path class="j" d="M209.3,133.529l1.825.311a.837.837,0,0,0,.734-.245.791.791,0,0,0,.2-.731,1.252,1.252,0,0,1-.792.408,4.073,4.073,0,0,1-1.77-.236,1.078,1.078,0,0,1-.682-.826C208.529,132.7,208.573,133.4,209.3,133.529Z" transform="translate(20.738 12.54)"/><path class="c" d="M214.851,129.944a.275.275,0,0,0,.086.281.291.291,0,0,0,.3.051.277.277,0,0,0-.056-.534.286.286,0,0,0-.326.2Z" transform="translate(21.354 12.4)"/><path class="c" d="M207.751,128.666a.273.273,0,0,0,.043.214.286.286,0,0,0,.188.118.289.289,0,0,0,.335-.231.284.284,0,0,0-.236-.327.281.281,0,0,0-.215.042A.267.267,0,0,0,207.751,128.666Z" transform="translate(20.648 12.323)"/><g class="k" transform="translate(235.63 144.537)"><path class="l" d="M214.385,133.929a2.229,2.229,0,0,0,.741,2.208,2.365,2.365,0,0,0,2.345.408,2.274,2.274,0,0,0,1.477-1.822,2.31,2.31,0,0,0-1.891-2.67,2.365,2.365,0,0,0-1.736.4,2.256,2.256,0,0,0-.935,1.481Z" transform="translate(-214.328 -132.021)"/></g><g class="k" transform="translate(225.358 142.273)"><path class="l" d="M205.419,134.437a2.3,2.3,0,0,0,.066-4.547,3.193,3.193,0,0,0-.451,0A13.387,13.387,0,0,0,205.419,134.437Z" transform="translate(-204.984 -129.883)"/></g><path class="m" d="M214.728,278.221l-4.562-.354s-3.716-19.044-.572-36.1c4.244-23,15.282-49.423,15.282-49.423l15.391,4.289s-10.257,24.234-15.6,40.748S214.728,278.221,214.728,278.221Z" transform="translate(20.707 15.385)"/><path class="l" d="M214.728,278.221l-4.562-.354s-3.716-19.044-.572-36.1c4.244-23,15.282-49.423,15.282-49.423l15.391,4.289s-10.257,24.234-15.6,40.748S214.728,278.221,214.728,278.221Z" transform="translate(20.707 15.385)"/><path class="g" d="M244.367,193.375c0,4.064,1.011,2.037,0,13.726s-12.192,20.824,0,38.11c10.158,14.4,21.317,27.43,21.317,27.43l-2.99,2.541s-31.047-21.146-36.555-36.576c-7.619-21.35-2.792-46.5-2.792-46.5Z" transform="translate(22.049 15.4)"/><path class="n" d="M245.648,148.942s-1.9,0-2.661,9.651a73.422,73.422,0,0,0,.638,17.275,53.352,53.352,0,0,1-2.8-18.54c.154-3.957.891-7.753,2.672-9.018S245.648,148.942,245.648,148.942Z" transform="translate(23.934 13.317)"/><path class="n" d="M231.492,141.211c-7.157,1.952-9.4,6.144-8.07,6.906,1.517.869,6.212-6.037,10.884-5.9,5.5.161,6.915,2.842,9.411,5.994,4.4,5.6,6,3.764,1.187-2.005C242.6,143.452,238.232,139.377,231.492,141.211Z" transform="translate(22.171 12.996)"/><path class="o" d="M225.595,147.869c9.125,1.287,10.994,9.919,14.578,21.3,3.947,12.7,2.287,13.843,3.3,20.374,1.1,7.066.407,13.575,1.319,15.012,2.2,3.378,7.443,2.316,10.345,1.748,3.133-.611,6.047,0,7.091-2.606.88-2.145.935-5.362.088-10.659C260.445,181.454,257,160.78,251.87,148c6.168,3.367,2.2-3.41-2.771-6.67-5.882-3.828-13.94.139-19.514,2.08C225.4,144.792,225.144,147.805,225.595,147.869Z" transform="translate(22.407 12.614)"/><path class="n" d="M237.21,159.147a77.84,77.84,0,0,0,8.8-1.533,73.229,73.229,0,0,0,7.96-2.584,1.064,1.064,0,0,0,.583-1.19c-.1-.515-.594-.815-.814-.708-4.98,2.466-16.964,4.289-16.964,4.289Z" transform="translate(23.533 13.741)"/><path class="n" d="M237.911,162.707s5.2-.7,8.8-1.523c6.19-1.4,8.685-2.713,7.96-2.6a1.064,1.064,0,0,0,.572-1.19c-.088-.515-.594-.815-.814-.7-4.969,2.466-16.964,4.289-16.964,4.289Z" transform="translate(23.602 13.95)"/><path class="n" d="M239.781,139.026c-7.267,1.523-10.345,6.359-10.851,9.4-.088.515,1.682.483,1.781.257,1.77-4.064,7.223-8,11.873-8.3a10,10,0,0,1,9.411,5.64c2.924,5.5,5.288,4.289,1.2-2.005C251.215,141.053,247.5,137.439,239.781,139.026Z" transform="translate(22.754 12.872)"/><path class="n" d="M242.319,191.83a98.038,98.038,0,0,0,9.84-1.737,82.687,82.687,0,0,0,8.509-2.713,1.119,1.119,0,0,0,.638-1.2c-.1-.515-.616-.815-.858-.7-5.332,2.552-18.228,4.6-18.228,4.6Z" transform="translate(24.075 15.629)"/><path class="n" d="M242.112,188.592a92.058,92.058,0,0,0,9.444-1.662,84.229,84.229,0,0,0,8.509-2.724,1.12,1.12,0,0,0,.638-1.158c-.1-.515-.627-.8-.858-.7-5.332,2.552-17.975,4.547-17.975,4.547Z" transform="translate(24.04 15.447)"/><path class="n" d="M229.113,147.657s-2.737,0-3.958,4.171,7.7,13.136,7.7,13.136S222,161.382,222,151.217a5.309,5.309,0,0,1,5.42-5,1.964,1.964,0,0,1,1.693,1.437Z" transform="translate(22.065 13.273)"/><path class="n" d="M216.581,150.07s-2.408,1.973-2.661,7.506a43.816,43.816,0,0,0,.506,9.651s-2.792-3.3-3.045-10.423c-.143-3.957,1.319-5.876,3-7.27S216.581,150.07,216.581,150.07Z" transform="translate(21.009 13.438)"/><path class="f" d="M205.7,122.033c3.617-8.578,14.677-14.1,24.912-7.077,14.094,9.651,6.168,20.942,7,21.446,2.781,1.909,1.1,5.855-1.231,8.225-.374.386-3.089-.676-3.089-.676s1.33,1.93,1.1,2.048a6.973,6.973,0,0,1-.836.3,6.754,6.754,0,0,1-4.2.15c-1.1-.386-2.122-2.145-2.122-2.145s.539,1.694.209,1.576a12.446,12.446,0,0,1-1.88-.89c-4.288-2.477-.693-7.989-.121-12.332.385-2.949-3.034-5.458-4.013-4.579a4.99,4.99,0,0,1-2.968,1.212c-.286,0-1.9-1.34-2.2-1.34s1.308,1.4,1.044,1.383a5.181,5.181,0,0,1-2.573-.44,17.842,17.842,0,0,1-4.584-3.378c-.33-.343,1.176,2.07.759,1.855C207.632,125.743,205.158,123.341,205.7,122.033Z" transform="translate(20.438 11.204)"/><path class="d" d="M247.118,210.338c-.429-1.394.638-15.077-3.474-26.4-3.683-10.112-9.763-17.586-16.59-25.961-2.7-3.324-3.386-7.581.209-9.726,3.177-1.9,6.6.976,8.432,3.3,2.518,3.217,6.223,7.957,8.355,11.431,5.673,9.275,8.234,18.068,8.07,26.69-.132,6.2-2.012,20.041-2.2,20.706C249.878,210.424,247.58,210.327,247.118,210.338Z" transform="translate(22.343 13.088)"/><path class="e" d="M245.141,205.62a25.051,25.051,0,0,0-1.55,6.809,23.32,23.32,0,0,0,.1,2.949c0,.386.726,0,1.022-.761a8.388,8.388,0,0,0,.418-2.456,10.076,10.076,0,0,1,.9,2.938c.583,2.659-1.407,6.541,1.308,4.536,3.078-2.284,3.584-4.375,3.188-5.887a80.118,80.118,0,0,0-2.551-7.8Z" transform="translate(24.21 16.748)"/><path class="c" d="M235.087,193.39s-9.191,27.7-4.716,40.9,32.839,39.429,32.839,39.429l.583-.59s-29.925-28.159-32.564-39.568c-2.2-9.426-.868-15.548.616-24.277a126.935,126.935,0,0,1,4.046-15.731Z" transform="translate(22.775 15.498)"/><path class="p" d="M215.557,272.576l-.451,7.249s-16.579-.729-16.733-2.552a1.48,1.48,0,0,1,.165-1.072c2.573-1.7,12.005-2.145,12.005-2.145l1.418-1.576Z" transform="translate(19.713 20.704)"/><path class="q" d="M211.679,272l4.035.44-.561,6.595s-16.579-.719-16.733-2.541c-.143-1.587,12.17-3.281,12.17-3.281Z" transform="translate(19.721 20.679)"/><path class="c" d="M207.2,276.151l-.55.118-.55-2.584.55-.075Z" transform="translate(20.485 20.813)"/><path class="c" d="M208.219,275.994l-.55.118-.55-2.584.55-.118Z" transform="translate(20.586 20.801)"/><path class="c" d="M209.259,275.845l-.55.107-.55-2.584.55-.118Z" transform="translate(20.69 20.791)"/><path class="p" d="M259.926,269.99l2.529-1.93,5.266,5.008s-11.192,12.256-12.654,11.206c-.22-.15-.66-.408-.737-.826.341-3.067,6.036-10.616,6.036-10.616Z" transform="translate(25.279 20.362)"/><path d="M259.359,269.469l2.518-1.919,5.277,5s-11.2,12.256-12.7,11.206c-1.3-.911,5.3-11.442,5.3-11.442Z" transform="translate(25.274 20.333)"/><path class="c" d="M260.086,275.761l-.275.5-2.331-1.244.3-.461Z" transform="translate(25.592 20.877)"/><path class="c" d="M260.615,274.864l-.264.5-2.331-1.244.264-.5Z" transform="translate(25.645 20.822)"/><path class="c" d="M261.165,273.943l-.264.5L258.57,273.2l.264-.493Z" transform="translate(25.7 20.769)"/><path class="r" d="M.028.048,14.831,0,14.8,8.614,0,8.662Z" transform="translate(241.506 188.617) rotate(7.55)"/><path class="s" d="M226.724,175.083a3.937,3.937,0,0,0-3.922,1.82,3.73,3.73,0,0,0,.232,4.23,3.956,3.956,0,0,0,4.1,1.4,3.789,3.789,0,0,0-.409-7.452Zm-.88,6.434a2.728,2.728,0,0,1-2.3-1.962,2.644,2.644,0,0,1,.98-2.823,2.805,2.805,0,0,1,3.049-.195,2.661,2.661,0,0,1,1.349,2.674,2.737,2.737,0,0,1-3.078,2.295Z" transform="translate(22.091 15.013)"/><path class="c" d="M225.783,177.595a.471.471,0,0,1-.205.3.494.494,0,0,1-.366.071.487.487,0,0,1-.462-.5.5.5,0,0,1,.583-.375A.487.487,0,0,1,225.783,177.595Z" transform="translate(22.339 15.173)"/><path class="s" d="M0,.005,1.7,0l0,1.137L0,1.143Z" transform="translate(243.03 187.774) rotate(7.55)"/><path class="r" d="M218.3,148.832c-.143,0-.352-.879-.956.279-1.825,3.421,2.584,26.808,2.584,26.808h.934C216.735,151.03,218.3,148.832,218.3,148.832Z" transform="translate(21.558 13.357)"/><path class="r" d="M235.836,167.76c-2.2,5.072-4.518,10.4-4.826,10.723l1.022.59,4.485-10.4Z" transform="translate(22.961 14.566)"/><path d="M39.42,210.535c.1-1.351,5.585-12.8,5.816-23.988.209-9.983-1.748-18.508-4.848-28.062-1.22-3.785-1.176-7.7,2.639-8.332,3.375-.558,5.376,3.1,6.179,5.726a129.66,129.66,0,0,1,3.375,12.707c1.8,9.94,1.1,18.412-1.946,25.735a187.809,187.809,0,0,1-8.8,17.157S39.827,210.675,39.42,210.535Z" transform="translate(3.918 13.236)"/><path class="e" d="M39.8,206.13s-2.287,2.295-4,3.914c-.451,1-1.1,4.343-.374,4.472,1.616.29,1.363-2.745,1.363-2.745A10.69,10.69,0,0,1,36,214.719c-.912,2.563,1.451,4.289,3.892,4.472s-.11-2.059.341-3.549c1.2-3.828,2.078-8.192,2.078-8.192Z" transform="translate(3.488 16.789)"/><path class="e" d="M39.835,143.741a17.186,17.186,0,0,0,5.5.836.548.548,0,0,1,.572.408c.4,1.694,1.583,6.434,1.792,7.12a2.645,2.645,0,0,0,3.081,1.786,2.58,2.58,0,0,0,2.064-2.858c-.11-2.005-.33-5.008-.3-5.984.858-.139,3.3.354,4.1.1a6.549,6.549,0,0,0,4.4-4.976c.923-3.539,1.9-7.088,2.5-10.723a11.653,11.653,0,0,0-4.6-11.549,21.866,21.866,0,0,0-9.62-4.429,8.233,8.233,0,0,0-6.959,1.909c-4.628,3.678-10.664,11.141-9.8,18.991A11.332,11.332,0,0,0,39.835,143.741Z" transform="translate(3.229 11.268)"/><path d="M40.874,152.678c.3-2.97,11.994-4.976,16.491-4.289s6.069,4.4,7.795,8.364c2.716,6.23,7.927,26.465,7.7,40.951,0,0-17.194-1.726-21.328-1.523C49.2,186.778,38.84,172.784,40.874,152.678Z" transform="translate(4.036 13.21)"/><path d="M41.733,130.62a.7.7,0,0,0,.2.73.74.74,0,0,0,.764.133.709.709,0,0,0,.45-.616.73.73,0,0,0-.583-.836.74.74,0,0,0-.544.125.705.705,0,0,0-.292.465Z" transform="translate(4.145 12.412)"/><path d="M34.613,129.3a.718.718,0,0,0,.212.748.762.762,0,0,0,.783.138.731.731,0,0,0,.467-.628.742.742,0,0,0-1.462-.257Z" transform="translate(3.437 12.334)"/><path class="t" d="M35.7,135.29c1.946.815,4.486,1.319,6.08.815a3.258,3.258,0,0,1-.583,1.383c-.6.7-1.22.965-2.7.729a2.843,2.843,0,0,1-2.309-1.255A3.757,3.757,0,0,1,35.7,135.29Z" transform="translate(3.548 12.714)"/><path class="h" d="M37.454,135.254a10.729,10.729,0,0,0,2.584.418c.572,0,1.374.483,1.374.7a2.013,2.013,0,0,1-.286.418c-.594.654-1.187.9-2.617.676a2.776,2.776,0,0,1-2.2-1.2,2.425,2.425,0,0,1-.33-.74C35.86,135.244,36.882,135.094,37.454,135.254Z" transform="translate(3.575 12.711)"/><path class="i" d="M40.908,136.168c-.517.815-1.473.686-2.661.5s-1.748-.279-2.078-1.222a17.347,17.347,0,0,0,4.738.718Z" transform="translate(3.595 12.731)"/><path class="t" d="M35.66,135.3c.759-.751,1.187-.236,2.672-.064a7.3,7.3,0,0,1,3.463.933,9.711,9.711,0,0,1-3.353-.139A14.412,14.412,0,0,1,35.66,135.3Z" transform="translate(3.544 12.699)"/><path class="j" d="M36.882,134.1l1.836.322a.848.848,0,0,0,.733-.254.8.8,0,0,0,.2-.733,1.286,1.286,0,0,1-.792.408c-.737.107-1.825-.075-2.111-.515a1.655,1.655,0,0,1-.253-.751l-.187.3a.808.808,0,0,0-.037.755A.843.843,0,0,0,36.882,134.1Z" transform="translate(3.598 12.561)"/><path class="c" d="M42.44,130.536a.29.29,0,0,0,.231.322.28.28,0,0,0,.212-.051.267.267,0,0,0,.107-.185.279.279,0,0,0-.22-.322A.3.3,0,0,0,42.44,130.536Z" transform="translate(4.218 12.433)"/><path class="c" d="M35.341,129.246a.273.273,0,0,0,.043.214.287.287,0,0,0,.188.118.28.28,0,0,0,.215-.043.267.267,0,0,0,.115-.183.273.273,0,0,0-.043-.214.286.286,0,0,0-.188-.118.28.28,0,0,0-.215.042.267.267,0,0,0-.115.183Z" transform="translate(3.512 12.357)"/><g class="u" transform="translate(46.137 145.151)"><path class="t" d="M42,134.509a2.3,2.3,0,0,0,1.88,2.659,2.355,2.355,0,0,0,1.743-.384,2.245,2.245,0,0,0,.94-1.482,2.31,2.31,0,0,0-1.88-2.67,2.377,2.377,0,0,0-1.741.4A2.267,2.267,0,0,0,42,134.509Z" transform="translate(-41.966 -132.601)"/></g><g class="u" transform="translate(35.845 142.895)"><path class="t" d="M33.039,135.017a2.3,2.3,0,0,0,.066-4.547h-.451A13.389,13.389,0,0,0,33.039,135.017Z" transform="translate(-32.604 -130.47)"/></g><path class="p" d="M36,254.2a79.433,79.433,0,0,1,1.187-11.87c4.233-22.99,15.3-49.4,15.3-49.4l15.392,4.289s-10.257,24.234-15.611,40.748c-1.792,5.533-3.507,11.945-4.98,18.025Z" transform="translate(3.578 15.633)"/><path class="p" d="M79.119,255.559c-2.342-3.078-4.782-6.434-7.168-9.769-12.181-17.275-1.011-26.422,0-38.11s0-9.651,0-13.726L50.876,192.69s-4.815,25.156,2.792,46.5c2.474,6.895,10.037,14.948,17.656,21.736l4.4-3C76.019,257.629,79.119,255.559,79.119,255.559Z" transform="translate(4.907 15.573)"/><path class="n" d="M73.233,149.522s-1.9,0-2.672,9.651a74.081,74.081,0,0,0,.693,17.275,53.206,53.206,0,0,1-2.792-18.54c.154-3.957.891-7.753,2.672-9.018S73.233,149.522,73.233,149.522Z" transform="translate(6.803 13.351)"/><path class="v" d="M59.083,141.791c-7.168,1.952-9.411,6.144-8.07,6.916,1.517.869,6.212-6.048,10.873-5.908,5.552.161,6.926,2.842,9.411,5.994,4.4,5.6,6,3.764,1.2-1.994C70.187,144.032,65.811,139.957,59.083,141.791Z" transform="translate(5.034 13.029)"/><path class="w" d="M59.737,148.76l3.76-1.008c1.539-.408,2.342-2.4,1.8-4.429s-2.2-3.346-3.771-2.938l-3.76,1.008c-1.539.407-2.353,2.4-1.814,4.429S58.22,149.167,59.737,148.76Z" transform="translate(5.545 12.981)"/><path class="x" d="M53.184,148.448c10.7,1.544,10.994,9.919,14.578,21.3,3.936,12.7,2.287,13.844,3.3,20.374,1.1,7.066.4,13.586,1.308,15.012,2.2,3.378,7.443,2.316,10.356,1.748,3.133-.611,6.047-.054,7.091-2.606.869-2.145.934-5.362.077-10.659-1.869-11.581-5.31-32.255-10.433-45.091,6.168,3.367,2.2-3.41-2.781-6.67-5.871-3.828-13.962.483-19.536,2.434C53,145.714,52.734,148.384,53.184,148.448Z" transform="translate(5.27 12.647)"/><path class="v" d="M64.79,159.727a79.847,79.847,0,0,0,8.8-1.523,71.882,71.882,0,0,0,7.971-2.595,1.064,1.064,0,0,0,.583-1.19c-.1-.515-.594-.815-.825-.7-4.969,2.466-16.964,4.289-16.964,4.289Z" transform="translate(6.396 13.775)"/><path class="v" d="M65.5,163.287s5.2-.7,8.8-1.523c6.2-1.4,8.7-2.7,7.96-2.595a1.064,1.064,0,0,0,.583-1.19c-.1-.5-.594-.815-.814-.7-4.98,2.466-16.964,4.289-16.964,4.289Z" transform="translate(6.467 13.983)"/><path class="v" d="M67.36,139.637c-7.256,1.523-10.334,6.359-10.84,9.4-.088.515,1.671.483,1.77.257,1.781-4.064,7.223-7.989,11.884-8.3a10.022,10.022,0,0,1,9.411,5.64c2.924,5.5,5.288,4.289,1.187-2.005C78.8,141.632,75.089,138.018,67.36,139.637Z" transform="translate(5.617 12.907)"/><path class="v" d="M69.91,192.43q4.962-.619,9.84-1.726a84.238,84.238,0,0,0,8.509-2.724,1.066,1.066,0,0,0,.627-1.2c-.088-.515-.616-.8-.858-.7-5.332,2.552-18.228,4.6-18.228,4.6Z" transform="translate(6.938 15.664)"/><path class="v" d="M69.7,189.175a92.075,92.075,0,0,0,9.433-1.662,83.935,83.935,0,0,0,8.509-2.724,1.066,1.066,0,0,0,.627-1.2c-.088-.515-.616-.8-.858-.686-5.332,2.541-17.964,4.536-17.964,4.536Z" transform="translate(6.903 15.479)"/><path class="v" d="M56.7,148.248s-2.737,0-3.969,4.161,7.7,13.136,7.7,13.136S49.59,161.962,49.59,151.8a5.309,5.309,0,0,1,5.42-5A2,2,0,0,1,56.7,148.248Z" transform="translate(4.929 13.306)"/><path class="v" d="M44.171,150.637s-2.408,1.973-2.661,7.56a43,43,0,0,0,.506,9.651s-2.792-3.3-3.045-10.423c-.143-3.946,1.319-5.876,3-7.27S44.171,150.637,44.171,150.637Z" transform="translate(3.872 13.474)"/><path class="t" d="M33.287,122.613c3.606-8.578,14.677-14.1,24.912-7.077,14.094,9.651,6.168,20.942,6.992,21.51,2.792,1.9,1.1,5.855-1.22,8.214-.374.386-3.089-.676-3.089-.676s1.33,1.941,1.1,2.048a7.729,7.729,0,0,1-.836.3,6.754,6.754,0,0,1-4.2.15c-1.1-.386-2.133-2.145-2.133-2.145s.539,1.684.209,1.566a12.855,12.855,0,0,1-1.869-.89c-4.288-2.477-.693-7.989-.121-12.332.385-2.938-3.045-5.458-4.013-4.579a4.99,4.99,0,0,1-2.968,1.212c-.3,0-1.9-1.33-2.2-1.34s1.308,1.4,1.1,1.383a5.2,5.2,0,0,1-2.584-.44,17.842,17.842,0,0,1-4.584-3.378c-.33-.332,1.187,2.07.77,1.855C35.178,126.323,32.737,123.921,33.287,122.613Z" transform="translate(3.301 11.237)"/><path d="M74.708,210.929c-.429-1.4.638-15.077-3.485-26.411-3.672-10.112-9.752-17.586-16.579-25.961-2.7-3.324-3.386-7.581.209-9.726,3.177-1.9,6.6.976,8.432,3.3,2.507,3.217,6.223,7.957,8.344,11.431,5.673,9.275,8.245,18.068,8.07,26.69a201.074,201.074,0,0,1-2.2,20.706S75.17,210.907,74.708,210.929Z" transform="translate(5.207 13.12)"/><path class="e" d="M72.721,206.2a24.588,24.588,0,0,0-1.55,6.809,21.432,21.432,0,0,0,.1,2.949c0,.386.726,0,1.022-.761a8.135,8.135,0,0,0,.407-2.445,9.476,9.476,0,0,1,.913,2.927c.583,2.659-1.407,6.541,1.3,4.536,3.078-2.284,3.6-4.375,3.2-5.887a79.7,79.7,0,0,0-2.562-7.8Z" transform="translate(7.073 16.782)"/><path class="c" d="M75.721,257.847c-7.7-8.385-15.644-18.09-16.953-23.709-2.2-9.415-.869-15.548.627-24.277a125.715,125.715,0,0,1,4.035-15.731l-.8-.15s-9.191,27.687-4.705,40.887c2.177,6.316,9.708,15.506,17.019,23.473Z" transform="translate(5.634 15.68)"/><path class="p" d="M43.147,273.156l-.451,7.249s-16.59-.718-16.744-2.552a1.542,1.542,0,0,1,.165-1.072c2.573-1.694,12.005-2.145,12.005-2.145l1.429-1.576Z" transform="translate(2.576 20.738)"/><path class="q" d="M39.259,272.61l4.046.429-.561,6.595s-16.59-.718-16.744-2.541c-.132-1.587,12.17-3.281,12.17-3.281Z" transform="translate(2.584 20.714)"/><path class="c" d="M34.789,276.731l-.55.118-.55-2.584.539-.064Z" transform="translate(3.349 20.848)"/><path class="c" d="M35.809,276.574l-.561.118-.539-2.584.55-.118Z" transform="translate(3.45 20.835)"/><path class="c" d="M36.839,276.424l-.55.118-.55-2.595.561-.107Z" transform="translate(3.552 20.826)"/><path class="p" d="M87.51,270.569l2.529-1.919,5.266,5s-11.2,12.257-12.7,11.206c-.22-.15-.649-.408-.737-.826.352-3.067,6.036-10.616,6.036-10.616Z" transform="translate(8.137 20.397)"/><path class="q" d="M86.941,270.049l2.529-1.919,5.266,5s-11.192,12.267-12.72,11.206c-1.3-.911,5.31-11.431,5.31-11.431Z" transform="translate(8.135 20.366)"/><path class="c" d="M87.665,276.341l-.264.5L85.07,275.6l.3-.461Z" transform="translate(8.455 20.911)"/><path class="c" d="M88.195,275.444l-.264.5L85.6,274.7l.264-.5Z" transform="translate(8.508 20.856)"/><path class="c" d="M88.756,274.523l-.275.5-2.331-1.244.264-.493Z" transform="translate(8.563 20.803)"/><path class="e" d="M70.15,256.038,88.1,271.233l2.529-1.919L76.373,251.76Z" transform="translate(6.972 19.387)"/><path class="e" d="M37.51,250.32l.6,23.9,4.046.429,3.507-23.022Z" transform="translate(3.728 19.259)"/><path class="t" d="M37.24,269.54l6.08.408-.4,3.313-5.387-.429Z" transform="translate(3.701 20.565)"/><path class="t" d="M83.49,268.9l4.65-3.764,2.276,2.466-4.606,3.657Z" transform="translate(8.298 20.286)"/><path class="d" d="M36.046,118.495s8.1-10.959,17.59-6.091,14.292,8.2,13.3,16.728c-.847,6.97-18.6-4.782-18.547-4.782s-.616,3.667-8.092.268c-5.112-2.327-9.433-3.828-9.29-6.262C31.076,116.532,36.046,118.495,36.046,118.495Z" transform="translate(3.082 11.233)"/><path d="M409.654,197.848H382.466c-3.3,0-5.431-2.691-6.025-5.887-1.528-8.235,0-36.855,0-36.855a5.952,5.952,0,0,1,6.025-5.876h27.188a5.952,5.952,0,0,1,6.025,5.876s1.473,27.269,0,36.855C415.195,195.178,412.985,197.848,409.654,197.848Z" transform="translate(37.348 13.271)"/><path d="M387.944,137.76h15.941c1.858,0,5.024,2.381,5.5,4.128l2.847,11a3.871,3.871,0,0,1-.758,3.381,4.085,4.085,0,0,1-3.2,1.5h-25.7a4.071,4.071,0,0,1-3.261-1.57,3.857,3.857,0,0,1-.642-3.492l3.738-11.8C382.931,139.261,386.141,137.76,387.944,137.76Z" transform="translate(37.62 12.775)"/><rect class="t" width="45.165" height="16.842" transform="matrix(1, -0.006, 0.006, 1, 414.085, 206.394)"/><path class="t" d="M427.059,198.644a8.511,8.511,0,1,1-8.553-8.364A8.409,8.409,0,0,1,427.059,198.644Z" transform="translate(40.755 15.843)"/><path class="t" d="M384.749,198.895a8.511,8.511,0,1,1-8.553-8.375,8.675,8.675,0,0,1,6.057,2.458A8.25,8.25,0,0,1,384.749,198.895Z" transform="translate(36.55 15.857)"/><g class="u" transform="translate(452.411 207.816)"><path class="q" d="M425.3,198.54a6.9,6.9,0,1,1-6.926-6.68A6.807,6.807,0,0,1,425.3,198.54Z" transform="translate(-411.51 -191.86)"/></g><path class="t" d="M423.484,198.441a5.224,5.224,0,1,1-5.255-5.061A5.157,5.157,0,0,1,423.484,198.441Z" transform="translate(41.053 16.066)"/><g class="u" transform="translate(456.457 211.763)"><path class="q" d="M420.885,198.3a2.776,2.776,0,0,1-1.74,2.58,2.9,2.9,0,0,1-3.109-.583,2.728,2.728,0,0,1-.634-3.026,2.89,2.89,0,0,1,4.641-.928A2.733,2.733,0,0,1,420.885,198.3Z" transform="translate(-415.19 -195.54)"/></g><path class="e" d="M391.565,144.235s1.968-5.115-2.2-7.045a14.667,14.667,0,0,1-6.343-5.908c-1.737.987-1.9-2.627-2.2-4.772a12.662,12.662,0,0,1-.154-2.145v-.836c.495-7.678,7.531-12.771,15.512-12.428,8.85.375,12.907,6,13.193,12.76.143,3.646-.242,7.506-1.825,7.109a21.725,21.725,0,0,1-6.6,6.434c-2.408,1.34-1.891,4.525-1.726,6.434A1.3,1.3,0,0,0,400.261,145s4.617,1.351,4.4,2.488c-.583,3.657-2.023,6.2-8.85,6.434-7.641.225-8.311-4.171-8.96-6.187a1.279,1.279,0,0,1,.1-1.049,1.338,1.338,0,0,1,.864-.634S391.565,144.793,391.565,144.235Z" transform="translate(37.836 11.129)"/><path class="y" d="M390.305,130.175c-.418.375,1.44,2.263,3.793,2.327,2.65.064,4.079-1.973,3.749-2.284s-1.33.2-3.529.268C391.91,130.561,390.646,129.875,390.305,130.175Z" transform="translate(38.788 12.413)"/><path class="z" d="M391.37,130.22a4.04,4.04,0,0,0,2.518,1.072,3.019,3.019,0,0,0,2.924-1.072A20.1,20.1,0,0,1,391.37,130.22Z" transform="translate(38.899 12.426)"/><path d="M390.071,125.341a.922.922,0,0,1-.579.861.963.963,0,0,1-1.035-.2.906.906,0,0,1-.2-1.01.946.946,0,0,1,.882-.564A.923.923,0,0,1,390.071,125.341Z" transform="translate(38.582 12.083)"/><path d="M399.515,125.294a.968.968,0,1,1-.967-.944A.956.956,0,0,1,399.515,125.294Z" transform="translate(39.517 12.078)"/><ellipse class="c" cx="0.363" cy="0.354" rx="0.363" ry="0.354" transform="translate(426.938 136.825)"/><path class="c" d="M398.478,125.025a.374.374,0,1,1-.374-.365.369.369,0,0,1,.374.365Z" transform="translate(39.532 12.101)"/><path class="j" d="M393,129.449l1.869-.193a.825.825,0,0,0,.648-.428.787.787,0,0,0-.01-.763,1.241,1.241,0,0,1-.649.6,2.338,2.338,0,0,1-2.078.086c-.352-.3.242-2.048.792-3.442-.363,0-.9,1.072-1.011,1.448l-.462,1.694a.79.79,0,0,0,.18.731A.836.836,0,0,0,393,129.449Z" transform="translate(38.97 12.125)"/><path d="M391.675,120.549c3.3-2.22,6.838-4.547,8.8-3.281s6.6,10.723,6.6,10.723.572-3.1,2.2-2.531c.836-2.541.484-7.088-3.9-11.12-3.012-2.767-7.7-3.485-10.521-3.217s-7.63.611-10.675,4.086a12.49,12.49,0,0,0-3.562,9.844c1.594-.418,2.694.847,2.551,2.96a51.986,51.986,0,0,1,8.52-7.463Z" transform="translate(37.825 11.241)"/><path class="e" d="M394.684,275.706h-3.3l-.726-5.126h3.727Z" transform="translate(38.829 20.613)"/><path class="e" d="M411.614,275.374l-3.21.043-.484-5.447h4.035Z" transform="translate(40.544 20.575)"/><path class="aa" d="M382.283,191.061a106.512,106.512,0,0,0-3.111,21.9c-.517,11.9,8.8,53.712,12.093,64.617,4.321.247,4.606.279,4.606.279l1.451-63.577,15.194-23.709-12.709-5.458Z" transform="translate(37.685 14.919)"/><path class="aa" d="M396.216,218.035S405.6,268.09,409.1,279.156a53.367,53.367,0,0,1,5.5-.4s.682-52.6-.924-63.416-2.485-18.465-2.485-18.465L393.83,187.86Z" transform="translate(39.144 15.084)"/><path class="ab" d="M413.725,138.639l3.914,15.7s-1.517-6.08-6.388-8.75c-2-1.072-8.07-3.153-7.927-3.153.429,10.262-14.479,9.329-12.555.139,0,0-5.662,2.777-6.3,3.045-3.551,1.491-3.859,8.718-3.859,8.718l2.935-15.4s-4.013-.075-4.694-1.641c-17.194,24.009-18.349,43.965-7.5,44.447,6.75.268,11.818-17.747,11.818-17.747l-2.2,40.147h33.455L410.966,163.4s7.542,25.617,17.678,17.908c9.895-7.506-10.873-45.477-10.873-45.477Z" transform="translate(36.212 12.388)"/><rect class="r" width="14.809" height="8.611" transform="translate(425.674 138.738)"/><path class="s" d="M394.273,127a3.808,3.808,0,1,0,3.9,3.8A3.856,3.856,0,0,0,394.273,127Zm0,6.434a2.682,2.682,0,1,1,2.748-2.681,2.645,2.645,0,0,1-.777,1.944,2.783,2.783,0,0,1-1.971.812Z" transform="translate(38.8 12.209)"/><path class="c" d="M393.725,129.6a.512.512,0,0,1-.276.519.538.538,0,0,1-.6-.067.506.506,0,0,1-.147-.566.527.527,0,0,1,.491-.336.5.5,0,0,1,.36.118A.478.478,0,0,1,393.725,129.6Z" transform="translate(39.029 12.363)"/><rect class="s" width="1.693" height="1.137" transform="translate(427.037 137.638)"/><path class="e" d="M377.54,137.969c.363-1.072,3.474-6.327,5.783-7.849s6.19-3.56,6.19-3.56A2.827,2.827,0,0,1,391,128.3a2.75,2.75,0,0,1-.319,2.245c-1.55,2.541-3.386,3.506-4.859,5.63s-2.573,3.431-4.925,3.817a2.951,2.951,0,0,1-3.353-2.027Z" transform="translate(37.525 12.157)"/><path class="e" d="M377.54,137.969c.363-1.072,3.474-6.327,5.783-7.849s6.19-3.56,6.19-3.56A2.827,2.827,0,0,1,391,128.3a2.75,2.75,0,0,1-.319,2.245c-1.55,2.541-3.386,3.506-4.859,5.63s-2.573,3.431-4.925,3.817a2.951,2.951,0,0,1-3.353-2.027Z" transform="translate(37.525 12.157)"/><path class="e" d="M414.23,137.29c-.363-1.072-3.474-6.327-5.783-7.849s-6.19-3.571-6.19-3.571a2.84,2.84,0,0,0-1.517,1.737,2.759,2.759,0,0,0,.3,2.263c1.55,2.531,3.4,3.506,4.859,5.619s2.584,3.442,4.925,3.817A2.941,2.941,0,0,0,414.23,137.29Z" transform="translate(39.819 12.116)"/><path class="p" d="M392.679,274.73h3.144l.957,7.013s-16.282,2.831-16.788,1.072a1.436,1.436,0,0,1-.055-1.072c2.2-2.145,11.269-4.632,11.269-4.632Z" transform="translate(37.755 20.823)"/><path d="M392.567,274h3.155l.957,7.024s-16.293,2.831-16.788,1.126c-.44-1.48,11.214-5.715,11.214-5.715Z" transform="translate(37.757 20.78)"/><path class="c" d="M388.439,279.665l-.517.225-1.022-2.348.517-.182Z" transform="translate(38.455 21.034)"/><path class="c" d="M389.4,279.288l-.517.236-1.022-2.359.517-.225Z" transform="translate(38.551 21.009)"/><path class="c" d="M390.39,278.918l-.517.225L388.84,276.8l.517-.225Z" transform="translate(38.648 20.987)"/><path class="p" d="M411.492,275.79h-3.144l-.967,7.024s16.293,2.831,16.8,1.072a1.5,1.5,0,0,0,0-1.072c-2.2-2.145-11.269-4.632-11.269-4.632Z" transform="translate(40.491 20.885)"/><path d="M411.582,275.07h-3.144l-.968,7.013s16.293,2.842,16.8,1.137c.44-1.491-11.225-5.715-11.225-5.715Z" transform="translate(40.5 20.842)"/><path class="c" d="M414.33,280.725l.517.225,1.033-2.348-.517-.182Z" transform="translate(41.182 21.096)"/><path class="c" d="M413.37,280.348l.517.225,1.033-2.348L414.4,278Z" transform="translate(41.086 21.071)"/><path class="c" d="M412.39,279.978l.517.225,1.033-2.348-.517-.225Z" transform="translate(40.989 21.049)"/><path d="M388.029,142.262s-2.2-1.415-3.386,0-7.443,23.462-7.1,25.9a9.846,9.846,0,0,0,1.759,4.289Z" transform="translate(37.524 12.942)"/><path d="M401.71,142.788s1.7-1.694,3.078-.987c1.726.89,7.7,23.2,7.311,26.164a14.688,14.688,0,0,1-1.935,5.362Z" transform="translate(39.927 12.937)"/><path d="M386.34,124.555c0-.708.9-1.34,2.034-1.673a3.743,3.743,0,0,1,2.979.3c.242.15.737,1.072-.572,1a5.624,5.624,0,0,0-3.078.375C386.626,125.166,386.34,124.555,386.34,124.555Z" transform="translate(38.4 11.981)"/><path d="M401.63,124.555c0-.708-.9-1.34-2.034-1.673a3.743,3.743,0,0,0-2.979.3c-.242.15-.737,1.072.572,1a5.625,5.625,0,0,1,3.078.375C401.344,125.166,401.63,124.555,401.63,124.555Z" transform="translate(39.392 11.981)"/><path class="ac" d="M162.324,165.388c1.528,13.211,1.275,13.94,1.781,20.578.55,7.131.462,14.8,1.275,16.256,1.957,3.528,6.19,1.619,9.136,1.276,3.177-.386,6.036.386,7.256-2.091,1.033-2.07,1.33-5.286.869-10.616-1.022-11.688-2.935-32.555-7.113-45.734,5.9,3.817,2.474-3.217-2.287-6.863-5.574-4.289-13.49-1.072-19.2.461A8.313,8.313,0,0,0,149.34,142C153.935,141.5,160.807,152.177,162.324,165.388Z" transform="translate(14.843 12.401)"/><path class="p" d="M160.254,154.931a84.694,84.694,0,0,0,8.8-.922A72.547,72.547,0,0,0,177.173,152a1.068,1.068,0,0,0,.66-1.147.8.8,0,0,0-.436-.6.832.832,0,0,0-.751.006c-5.255,2.2-16.656,2.863-16.656,2.863Z" transform="translate(15.902 13.576)"/><path class="p" d="M160.967,158.745a82.821,82.821,0,0,0,9.169-.879,73.959,73.959,0,0,0,8.125-1.994,1.068,1.068,0,0,0,.671-1.147c-.055-.515-.55-.826-1.286-.558-5.4,1.973-16.975,2.842-16.975,2.842Z" transform="translate(15.97 13.804)"/><path class="p" d="M164.064,135.228c-7.289,1.415-10.818,6.723-10.411,7.506.242.45,1.1.847,1.264.633,1.473-2.756,7.234-7.41,11.873-6.927,5.5.568,8.476,5.565,10.389,9.533,1.165,2.434,2.693,1.716,1.462-.836a39.681,39.681,0,0,0-2.276-4.289C174.486,137.737,170.913,133.93,164.064,135.228Z" transform="translate(15.269 12.65)"/><path class="p" d="M163.077,188a91.627,91.627,0,0,0,9.741-.965,81.792,81.792,0,0,0,8.685-2.091,1.07,1.07,0,0,0,.715-1.147c0-.515-.55-.847-.8-.751-5.5,2.145-18.415,3.217-18.415,3.217Z" transform="translate(16.201 15.496)"/><path class="p" d="M162.908,184.523a98.548,98.548,0,0,0,9.895-1.072,81.8,81.8,0,0,0,8.685-2.091,1.07,1.07,0,0,0,.715-1.147c0-.525-.55-.858-.8-.761-5.5,2.145-18.69,3.217-18.69,3.217Z" transform="translate(16.172 15.285)"/><path class="ab" d="M0,0,18.723.011l.028,50.231L.028,50.231Z" transform="translate(141.02 160.114) rotate(-88.71)"/><path class="ab" d="M184.461,139.7a9.467,9.467,0,1,1-9.246-9.565A9.37,9.37,0,0,1,184.461,139.7Z" transform="translate(16.453 12.341)"/><path class="ab" d="M137.4,138.646a9.456,9.456,0,1,1-9.246-9.576A9.361,9.361,0,0,1,137.4,138.646Z" transform="translate(11.778 12.279)"/><g class="ad" transform="translate(180.74 141.12)"><path class="q" d="M7.478,0A7.8,7.8,0,0,1,15.144,7.66,7.345,7.345,0,0,1,7.667,15.13,7.8,7.8,0,0,1,0,7.471,7.345,7.345,0,0,1,7.478,0Z" transform="matrix(0.72, -0.694, 0.694, 0.72, 0, 10.511)"/></g><path class="ab" d="M180.481,139.391a5.818,5.818,0,1,1-5.684-5.79,5.753,5.753,0,0,1,5.684,5.79Z" transform="translate(16.783 12.576)"/><g class="ad" transform="translate(188.261 148.729)"><path class="q" d="M177.572,139.143a3.167,3.167,0,1,1-3.089-3.153,3.193,3.193,0,0,1,2.216.951A3.036,3.036,0,0,1,177.572,139.143Z" transform="translate(-171.241 -135.989)"/></g><path class="e" d="M110.57,184.716a19.228,19.228,0,0,0-4.4.547c-4.2.954-5.706-2.692-6.86-1.844a23.225,23.225,0,0,0-3.3,2.616.913.913,0,0,0-.023.975.963.963,0,0,0,.88.462c-.66.2-.286,1.812.7,1.662a.906.906,0,0,0-.217,1.022.947.947,0,0,0,.9.565c-.385.708.671,1.244,1.528,1.287,1.77.075,6.893-2.316,8.168-3.667a16.925,16.925,0,0,1,4.156-1.072Z" transform="translate(9.528 15.488)"/><path class="ae" d="M154.409,274.911l1.66-1.051L97.46,181.61l-1.66,1.051Z" transform="translate(9.522 14.721)"/><path class="af" d="M139.342,279.026l-8.037-1.265s-3.7-19.055-.561-36.1c4.244-23.012,14.457-49.326,14.457-49.326l16.216,4.289s-10.257,24.234-15.611,40.748S139.342,279.026,139.342,279.026Z" transform="translate(12.869 15.377)"/><path class="q" d="M139.342,279.026l-8.037-1.265s-3.7-19.055-.561-36.1c4.244-23.012,14.457-49.326,14.457-49.326l16.216,4.289s-10.257,24.234-15.611,40.748S139.342,279.026,139.342,279.026Z" transform="translate(12.869 15.377)"/><path class="t" d="M134.97,148.43c-1.022,1.222-2.2,3.935-2.8,8.16-.934,6.745.22,9.49-5.959,17.779-6.728,9.018-19.558,13.211-19.558,13.211l.737,3.431a147.262,147.262,0,0,0,23.769-10.037c14.358-7.924,20.427-26.475,15.908-31.279S135.619,147.7,134.97,148.43Z" transform="translate(10.6 13.17)"/><path class="t" d="M166.6,196.847h0c-7.806,1.33-23.516,3.7-23.648,3.217-1.693-6.638-5.5-25.178-7.344-30.529-.583-1.737-6.42-19.3-2.606-21.157a42.038,42.038,0,0,1,6.124-1.876c3.3-1.072,6.212-2.992,9.554-3.807,7.146-1.726,10.565-.247,12.907,5.469C165.867,158.673,166.472,170.951,166.6,196.847Z" transform="translate(13.092 12.802)"/><path class="e" d="M154.381,127.243c-1.176,2.874-2.781,5.126-8.8,9.072-1.253.826,1.781,6.2,2.891,9.05.616,1.587-.726,3.378-1.429,4-1.462,1.308-5.5,2.091-6.915-.365s-2.814-7.206-3.1-7.442c-.671-.558-3.661-.161-6.6-1.651a7.6,7.6,0,0,1-4.529-5.769c-.55-2.145-1.363-5.9-.726-8.825s2.386-5.962,4.4-10.112c3.067-6.144,11.236-5.7,17.865-1.3C154.832,118.815,155.271,125.045,154.381,127.243Z" transform="translate(12.419 11.114)"/><path class="t" d="M144.088,110.019c6.75,1.566,11.28,5.866,11.61,13.468.407,9.651-2.5,12.3-7.245,16.61-.077.064-4.859-5.533-3.628-6.552,5.552-4.622,1.418-7.506.308-6.134-1.3,1.651-2.474,2.048-3.3,1.812-.407-.118,1.407-1.158,1.176-1.491-.132-.172-1.858,1.18-1.924.976a10.4,10.4,0,0,1-.11-1.984c-.231-2.809-1.979-3.078-4.475-4.214-1.8-.815-4.606-4.772-4.947-4.815s4.189,5.211,4.123,5.19a21.885,21.885,0,0,1-4.76-1.491c-1.693-.8-1.88-3.078-2.2-3.067-.165,0,1.693,3.571,1.473,3.517-1.286-.343-5.277.665-5.222.257C126.157,111.617,138.635,108.733,144.088,110.019Z" transform="translate(12.421 11.108)"/><path class="f" d="M133.381,126.8a.621.621,0,0,0,.137.5.654.654,0,0,0,.468.234.743.743,0,0,0,.781-.633.643.643,0,0,0-.148-.493.676.676,0,0,0-.467-.236A.742.742,0,0,0,133.381,126.8Z" transform="translate(13.256 12.187)"/><path class="f" d="M126.811,126.285a.664.664,0,0,0,.146.522.7.7,0,0,0,.492.25.787.787,0,0,0,.825-.665.675.675,0,0,0-.154-.522.71.71,0,0,0-.5-.25.764.764,0,0,0-.814.665Z" transform="translate(12.603 12.155)"/><path class="ag" d="M127.73,132.85c1.979.718,4.54,1.072,6.08.29a4.21,4.21,0,0,1-.473,1.619,2.4,2.4,0,0,1-2.639,1.072,2.626,2.626,0,0,1-2.386-1.18,4.467,4.467,0,0,1-.583-1.8Z" transform="translate(12.695 12.571)"/><path class="h" d="M129.465,132.632a9.858,9.858,0,0,0,2.595.2c.572,0,1.385.4,1.407.654a3.475,3.475,0,0,1-.253.493,2.343,2.343,0,0,1-2.551,1.072,2.583,2.583,0,0,1-2.3-1.126,3.065,3.065,0,0,1-.385-.8C127.882,132.793,128.882,132.514,129.465,132.632Z" transform="translate(12.72 12.559)"/><path class="i" d="M132.954,133.291c-.462.987-1.407.944-2.606.858s-1.748-.139-2.2-1.169A14.971,14.971,0,0,0,132.954,133.291Z" transform="translate(12.737 12.587)"/><path class="ag" d="M127.68,132.867c.7-.933,1.165-.4,2.65-.354a6.366,6.366,0,0,1,3.507.7,8.549,8.549,0,0,1-3.3.193,12.713,12.713,0,0,1-2.858-.536Z" transform="translate(12.691 12.548)"/><path class="ah" d="M128.814,131.4a10.135,10.135,0,0,0,1.913.182.959.959,0,0,0,.693-.428.913.913,0,0,0,.1-.795,1.438,1.438,0,0,1-.792.708c-.715.193-1.957,0-2.2-.4s-.132-1.137-.231-.847l-.088.257a.912.912,0,0,0-.018.8.95.95,0,0,0,.623.52Z" transform="translate(12.733 12.395)"/><path class="c" d="M134.07,126.7a.274.274,0,0,0,.051.211.287.287,0,0,0,.19.111.294.294,0,0,0,.3-.279.263.263,0,0,0-.052-.206.277.277,0,0,0-.19-.1.29.29,0,0,0-.205.074.276.276,0,0,0-.091.194Z" transform="translate(13.325 12.206)"/><path class="c" d="M127.53,126.209a.274.274,0,0,0,.055.214.288.288,0,0,0,.2.108.316.316,0,0,0,.319-.279.291.291,0,0,0-.253-.322A.305.305,0,0,0,127.53,126.209Z" transform="translate(12.675 12.176)"/><path class="t" d="M132.54,125.248c0,.2.143.354.693.386h1.1a8.973,8.973,0,0,1,.989.182c.572.086.792,0,.8-.247a.91.91,0,0,0-.715-.751,13.832,13.832,0,0,0-2-.139C132.848,124.734,132.551,125.023,132.54,125.248Z" transform="translate(13.174 12.101)"/><path class="t" d="M125.58,124.748c0,.2.154.354.7.386h1.1a9.177,9.177,0,0,1,1,.182c.561.075.792-.064.8-.247a.91.91,0,0,0-.715-.751,13.948,13.948,0,0,0-2-.139A.891.891,0,0,0,125.58,124.748Z" transform="translate(12.482 12.071)"/><path class="ai" d="M142.563,130.37c.473.236,1.1-1,1.99-.622a2.7,2.7,0,0,0,.781-1.759c0-1.222-.682-1.651-1.1-1.63-.8,0-1.385,1.426-1.1,2.488C142.541,129.127,142.211,130.2,142.563,130.37Z" transform="translate(14.155 12.187)"/><path class="q" d="M165.379,193.14c0,4.064,1.022,2.027,0,13.715s-12.181,20.835,0,38.11c10.169,14.412,21.328,27.44,21.328,27.44l-4.573,4.568s-28.892-23.419-35.027-38.6c-6.86-16.964.374-42.3.374-42.3Z" transform="translate(14.328 15.45)"/><path class="p" d="M152.572,142.277a3.445,3.445,0,0,0-3.661,2.284c-2.463,8.3,2.056,20.02,2.056,20.02s-7.784-8.31-5-19C147.9,138.159,152.572,142.277,152.572,142.277Z" transform="translate(14.448 12.953)"/><path class="p" d="M157.565,170.86,156.4,177a19.661,19.661,0,0,0,7.7,8.1c0-.761-.187-5.458-.187-5.458s-1.825.118-3.859-2.681a15.721,15.721,0,0,1-2.485-6.1Z" transform="translate(15.545 14.729)"/><path class="p" d="M138.721,146.533s-1.726,2.048-2.672,9.651a100.929,100.929,0,0,0-.572,13.136,28.964,28.964,0,0,1-2.485-16.085c.66-3.9,1.792-6.091,3.562-7.356S138.721,146.533,138.721,146.533Z" transform="translate(13.194 13.2)"/><path class="c" d="M155.447,194.59s-9.191,27.687-4.705,40.9,32.828,39.418,32.828,39.418l.594-.59s-29.936-28.159-32.575-39.611c-2.2-9.415-.869-15.538.616-24.277a126.936,126.936,0,0,1,4.046-15.731Z" transform="translate(14.86 15.565)"/><path class="p" d="M134.057,272.88l3.43.547v7.957s-18.184.418-18.481-1.566a1.635,1.635,0,0,1,.1-1.212c2.683-2.048,12.962-3.217,12.962-3.217Z" transform="translate(11.821 20.716)"/><path class="q" d="M134.051,272.06l3.43.547v7.957S119.3,280.982,119,279c-.264-1.716,13.061-4.472,13.061-4.472Z" transform="translate(11.827 20.668)"/><path class="c" d="M128.635,277.814l-.594.172-.792-2.788.594-.107Z" transform="translate(12.648 20.897)"/><path class="c" d="M129.735,277.568l-.594.172-.792-2.788.6-.172Z" transform="translate(12.757 20.879)"/><path class="c" d="M130.865,277.328l-.6.161-.781-2.788.594-.161Z" transform="translate(12.869 20.865)"/><path class="p" d="M179.589,271.224l2.946-1.844,5.244,5.983s-13.457,12.256-14.985,10.948a1.61,1.61,0,0,1-.715-.976c.693-3.313,7.7-10.97,7.7-10.97Z" transform="translate(17.104 20.432)"/><path class="q" d="M179.017,270.6l2.946-1.844,5.244,5.983S173.751,287,172.223,285.7c-1.33-1.137,6.937-11.956,6.937-11.956Z" transform="translate(17.103 20.396)"/><path class="c" d="M179.039,277.6l-.33.515-2.43-1.587.374-.472Z" transform="translate(17.521 20.962)"/><path class="c" d="M179.719,276.677l-.341.515L176.96,275.6l.33-.515Z" transform="translate(17.589 20.905)"/><path class="c" d="M180.409,275.738l-.341.515-2.419-1.587.341-.525Z" transform="translate(17.657 20.849)"/><path class="t" d="M153.292,218.821c-.825.172-2.628-1.319-4.288-1.919.429-2.584,2.2-14.423,2.507-16.664,1.8-13.275,1.2-27.4-3.243-49.637-1.253-6.305,1.517-8.922,5.574-8.578,5.024.44,9.752,15.548,9.378,32.373C162.988,184.689,158.833,206.511,153.292,218.821Z" transform="translate(14.707 12.674)"/><path class="e" d="M150.5,212.39a16.918,16.918,0,0,0-4.464,5.64,26.362,26.362,0,0,0-1.1,3.056c-.121.408.748.268,1.341-.365a9.337,9.337,0,0,0,1.363-2.316,11.033,11.033,0,0,1-.286,3.367c-.495,2.96-4.09,6.134-.539,5.168,4.024-1.072,5.4-3.045,5.618-4.75a79.966,79.966,0,0,0,.583-8.578Z" transform="translate(14.405 17.141)"/><path class="e" d="M101.823,185.177a2.577,2.577,0,0,0-2.833-.868,2.45,2.45,0,0,0-.047,4.674A17.942,17.942,0,0,1,101.823,185.177Z" transform="translate(9.666 15.564)"/><path class="ag" d="M279.17,185.216a19.461,19.461,0,0,0-4.4.536c-4.2.965-5.706-2.681-6.86-1.834a24.159,24.159,0,0,0-3.3,2.606.913.913,0,0,0-.032.983.963.963,0,0,0,.889.464c-.66.2-.3,1.8.7,1.662a.906.906,0,0,0-.217,1.021.947.947,0,0,0,.9.565c-.4.7.66,1.244,1.517,1.276,1.781.086,6.9-2.305,8.18-3.667a16.656,16.656,0,0,1,4.145-1.072Z" transform="translate(26.285 15.517)"/><path class="ae" d="M234.75,284.244l1.869.654,39.8-101.344-1.858-.654Z" transform="translate(23.333 14.703)"/><path class="aj" d="M.145.38,50.246,0,50.1,18.772,0,19.152Z" transform="translate(344.369 201.931) rotate(18.95)"/><path class="aj" d="M363.419,213.543a9.52,9.52,0,0,1-12.054,5.565,9.165,9.165,0,0,1-5.768-11.729,9.515,9.515,0,0,1,17.427-.939A9.077,9.077,0,0,1,363.419,213.543Z" transform="translate(34.297 16.463)"/><path class="aj" d="M9.315,0a9.59,9.59,0,0,1,9.458,9.514,9.242,9.242,0,0,1-9.315,9.369A9.59,9.59,0,0,1,0,9.369,9.242,9.242,0,0,1,9.315,0Z" transform="translate(327.835 216.623) rotate(-71.05)"/><g class="u" transform="translate(381.039 219.52)"><path class="q" d="M361.575,212.849a7.77,7.77,0,0,1-14.2.885,7.362,7.362,0,0,1,1.156-8.276,7.825,7.825,0,0,1,8.286-2.11,7.463,7.463,0,0,1,4.76,9.5Z" transform="translate(-346.591 -202.931)"/></g><path class="aj" d="M5.76,0A5.848,5.848,0,0,1,11.6,5.729a5.644,5.644,0,0,1-5.76,5.644A5.848,5.848,0,0,1,0,5.644,5.644,5.644,0,0,1,5.76,0Z" transform="translate(381.482 223.419) rotate(-18.06)"/><g class="u" transform="translate(385.619 223.935)"><path class="q" d="M356.895,211.125a3.175,3.175,0,0,1-4.011,1.906,3.06,3.06,0,0,1-1.956-3.911,3.175,3.175,0,0,1,4.009-1.909,3.131,3.131,0,0,1,1.81,1.561,3.008,3.008,0,0,1,.147,2.353Z" transform="translate(-350.756 -207.043)"/></g><path class="c" d="M324.453,137.257c-7.278,1.415-10.807,6.734-10.4,7.506.242.461,1.1.858,1.264.633,1.473-2.745,7.234-7.4,11.873-6.916,5.5.568,6.7,3.335,8.949,6.67,3.991,5.908,5.706,4.193,1.33-1.909C335.37,140.313,331.313,135.927,324.453,137.257Z" transform="translate(31.212 12.773)"/><path class="ak" d="M290.44,238.052c.737-11.624,24.11-45.262,24.11-45.262l16.216,4.289s-19.58,24.438-24.934,40.973Z" transform="translate(28.868 15.775)"/><path class="q" d="M303.56,148.93c-1.022,1.222-2.2,3.935-2.8,8.15-.934,6.756.22,9.5-5.97,17.79-6.728,9.018-19.547,13.211-19.547,13.211l.737,3.421a146.775,146.775,0,0,0,23.758-10.026C314.1,173.539,320.172,155,315.643,150.2S304.187,148.2,303.56,148.93Z" transform="translate(27.357 13.198)"/><path class="q" d="M335.2,197.347h0c-7.817,1.33-23.516,3.7-23.648,3.217-1.7-6.638-5.563-25.189-7.344-30.529-.583-1.737-6.42-19.3-2.617-21.157A42.884,42.884,0,0,1,307.719,147c3.3-1.072,6.223-3,9.554-3.807,7.157-1.726,10.565-.247,12.918,5.458C334.456,159.173,335.072,171.462,335.2,197.347Z" transform="translate(29.849 12.83)"/><path class="ag" d="M322.971,127.743c-1.165,2.874-2.781,5.126-8.8,9.072-1.264.826,1.781,6.2,2.891,9.05.616,1.587-.726,3.367-1.429,4-1.473,1.308-5.5,2.091-6.915-.375s-2.814-7.2-3.111-7.431c-.671-.558-3.661-.172-6.6-1.651a7.578,7.578,0,0,1-4.53-5.78c-.539-2.145-1.352-5.9-.726-8.814s2.386-5.962,4.464-10.112c3.056-6.155,11.225-5.7,17.865-1.3C323.433,119.315,323.862,125.545,322.971,127.743Z" transform="translate(29.175 11.142)"/><path class="f" d="M312.729,110.5c6.761,1.566,10.741,7.613,10.631,15.216-.121,8.2-9.2,13.715-9.389,12.342-.2-1.544-1.165-3.485-.506-4.032,5.552-4.622,1.429-7.506.308-6.134-1.286,1.641-2.463,2.037-3.3,1.8-.407-.107,1.4-1.147,1.165-1.48s-1.847,1.18-1.913.976a8.907,8.907,0,0,1-.11-1.984c-.231-2.809-1.979-3.078-4.485-4.214-1.792-.815-4.6-4.772-4.936-4.815s4.178,5.211,4.112,5.19a22.387,22.387,0,0,1-4.749-1.5c-1.693-.793-1.88-3.067-2.2-3.056-.165,0,1.693,3.571,1.462,3.506-1.275-.332-5.266.676-5.222.268C294.743,112.129,307.233,109.233,312.729,110.5Z" transform="translate(29.182 11.146)"/><path class="f" d="M302,127.3a.643.643,0,0,0,.148.493.676.676,0,0,0,.467.236.732.732,0,0,0,.77-.633.621.621,0,0,0-.137-.5.654.654,0,0,0-.468-.234A.754.754,0,0,0,302,127.3Z" transform="translate(30.016 12.217)"/><path class="f" d="M295.4,126.785a.674.674,0,0,0,.154.522.71.71,0,0,0,.495.25.786.786,0,0,0,.814-.676.654.654,0,0,0-.146-.518.688.688,0,0,0-.491-.243A.776.776,0,0,0,295.4,126.785Z" transform="translate(29.36 12.184)"/><path class="ag" d="M296.32,133.35c1.99.708,4.552,1.008,6.091.29a4.211,4.211,0,0,1-.484,1.619,2.377,2.377,0,0,1-2.628,1.072,2.637,2.637,0,0,1-2.386-1.18,4.321,4.321,0,0,1-.594-1.8Z" transform="translate(29.452 12.6)"/><path class="h" d="M298.065,133.122a9.394,9.394,0,0,0,2.584.214c.572,0,1.4.4,1.418.643a2.723,2.723,0,0,1-.264.5,2.332,2.332,0,0,1-2.54,1.072,2.574,2.574,0,0,1-2.309-1.072,3.675,3.675,0,0,1-.374-.8C296.482,133.283,297.482,132.993,298.065,133.122Z" transform="translate(29.477 12.587)"/><path class="i" d="M301.549,133.792c-.462.976-1.407.933-2.606.847s-1.748-.129-2.144-1.169A14.644,14.644,0,0,0,301.549,133.792Z" transform="translate(29.5 12.616)"/><path class="ag" d="M296.27,133.367c.715-.933,1.176-.4,2.661-.354a6.332,6.332,0,0,1,3.5.7,8.549,8.549,0,0,1-3.3.182A12.8,12.8,0,0,1,296.27,133.367Z" transform="translate(29.447 12.578)"/><path class="ah" d="M297.413,131.9a11.259,11.259,0,0,0,1.913.182.959.959,0,0,0,.686-.432.913.913,0,0,0,.095-.791,1.406,1.406,0,0,1-.781.7c-.726.2-1.957.054-2.2-.386s-.121-1.137-.231-.858l-.077.268a.9.9,0,0,0-.028.8A.939.939,0,0,0,297.413,131.9Z" transform="translate(29.491 12.424)"/><path class="c" d="M302.66,127.2a.28.28,0,0,0,.242.311.294.294,0,0,0,.308-.268.28.28,0,0,0-.242-.311.294.294,0,0,0-.308.268Z" transform="translate(30.082 12.235)"/><path class="c" d="M296.13,126.7a.273.273,0,0,0,.051.221.288.288,0,0,0,.2.111.3.3,0,0,0,.308-.279.284.284,0,0,0-.055-.218.3.3,0,0,0-.2-.114A.3.3,0,0,0,296.13,126.7Z" transform="translate(29.433 12.205)"/><path class="f" d="M301.13,125.749c0,.2.154.354.7.375h1.1a6.475,6.475,0,0,1,.989.182c.572.075.792-.064.814-.247a.91.91,0,0,0-.715-.751,12.7,12.7,0,0,0-2.012-.139A.868.868,0,0,0,301.13,125.749Z" transform="translate(29.93 12.129)"/><path class="f" d="M294.18,125.238c0,.214.154.365.7.386h1.1a6.733,6.733,0,0,1,.989.182c.572.075.792-.064.814-.247a.943.943,0,0,0-.715-.751,12.7,12.7,0,0,0-2.012-.139.869.869,0,0,0-.879.568Z" transform="translate(29.239 12.1)"/><path class="ai" d="M311.163,130.871c.473.225,1.1-1,1.99-.622a2.7,2.7,0,0,0,.781-1.759c0-1.222-.682-1.662-1.1-1.63-.792,0-1.385,1.415-1.1,2.488C311.13,129.627,310.811,130.7,311.163,130.871Z" transform="translate(30.913 12.216)"/><path class="ak" d="M333.979,193.63c0,4.064,1.011,2.037,0,13.726-.956,10.948-10.829,19.677-2.023,34.957l-11.181,6.949a66.712,66.712,0,0,1-5.079-10.4c-6.849-16.964.385-42.3.385-42.3Z" transform="translate(31.085 15.737)"/><path class="t" d="M330.924,165.878c1.528,13.211,1.264,13.94,1.781,20.578.55,7.142.451,14.809,1.264,16.267,1.957,3.517,6.2,1.619,9.136,1.265,3.177-.375,6.036.386,7.267-2.08,1.033-2.07,1.33-5.286.857-10.616-1.011-11.688-2.924-32.555-7.1-45.734,5.9,3.807,2.474-3.217-2.287-6.863-5.585-4.289-13.5-1.072-19.2.461a8.313,8.313,0,0,0-4.705,3.346C322.535,142,329.4,152.667,330.924,165.878Z" transform="translate(31.601 12.429)"/><path class="p" d="M328.843,155.431a86.108,86.108,0,0,0,8.8-.933,73.964,73.964,0,0,0,8.125-1.995,1.069,1.069,0,0,0,.671-1.147.8.8,0,0,0-.44-.6.832.832,0,0,0-.758.013c-5.255,2.2-16.645,2.863-16.645,2.863Z" transform="translate(32.66 13.605)"/><path class="p" d="M329.567,159.246a82.813,82.813,0,0,0,9.169-.879,72.549,72.549,0,0,0,8.124-2.005,1.068,1.068,0,0,0,.66-1.137c-.055-.525-.55-.836-1.275-.568-5.4,1.973-16.975,2.852-16.975,2.852Z" transform="translate(32.727 13.833)"/><path class="p" d="M332.654,135.718c-7.278,1.415-10.807,6.734-10.411,7.506.253.461,1.154.858,1.275.633,1.473-2.745,7.223-7.4,11.873-6.916,5.5.568,8.476,5.565,10.378,9.522,1.176,2.445,2.7,1.726,1.473-.826a38.062,38.062,0,0,0-2.287-4.289C343.087,138.185,339.569,134.389,332.654,135.718Z" transform="translate(32.026 12.678)"/><path class="p" d="M331.666,188.5a91.645,91.645,0,0,0,9.741-.965,81.808,81.808,0,0,0,8.685-2.091,1.071,1.071,0,0,0,.726-1.147c-.055-.525-.561-.858-.8-.761-5.5,2.145-18.415,3.217-18.415,3.217Z" transform="translate(32.959 15.524)"/><path class="p" d="M331.5,185.023s6-.354,9.895-1.072a85.009,85.009,0,0,0,8.685-2.091,1.134,1.134,0,0,0,.726-1.158c-.055-.515-.561-.847-.8-.751-5.5,2.145-18.69,3.217-18.69,3.217Z" transform="translate(32.93 15.314)"/><path class="p" d="M321.161,142.767a3.456,3.456,0,0,0-3.661,2.284c-2.463,8.3,2.056,20.031,2.056,20.031s-7.784-8.31-4.991-19.012C316.5,138.649,321.161,142.767,321.161,142.767Z" transform="translate(31.205 12.981)"/><path class="p" d="M326.165,171.36,325,177.5a18.891,18.891,0,0,0,3.452,4.782c2.287,2.284,3.8,3.56,3.8,2.8S331.75,180,331.75,180s-1.012.247-3.045-2.541a15.729,15.729,0,0,1-2.54-6.1Z" transform="translate(32.303 14.76)"/><path class="p" d="M307.315,147.074s-1.715,2.048-2.661,9.651a100.885,100.885,0,0,0-.572,13.136s-3.892-7.667-2.485-16.085c.66-3.9,1.781-6.091,3.562-7.367S307.315,147.074,307.315,147.074Z" transform="translate(29.946 13.23)"/><path class="c" d="M326.07,245.8c-3.012-4.075-5.244-7.806-5.882-10.552-2.2-9.426-.869-15.548.616-24.277a126.941,126.941,0,0,1,4.046-15.731l-.8-.15s-9.191,27.687-4.716,40.887a41.631,41.631,0,0,0,5.86,10.166A7.812,7.812,0,0,1,326.07,245.8Z" transform="translate(31.617 15.858)"/><path class="q" d="M321.892,219.321c-.824.161-2.628-1.33-4.288-1.919.418-2.595,2.2-14.433,2.5-16.664,1.8-13.275,1.2-27.4-3.232-49.637-1.264-6.316,1.506-8.922,5.574-8.578,5.024.44,9.741,15.548,9.378,32.373C331.589,185.178,327.433,207.011,321.892,219.321Z" transform="translate(31.464 12.702)"/><path class="ag" d="M319.054,212.88a17.024,17.024,0,0,0-4.464,5.651,25.018,25.018,0,0,0-1.1,3.056c-.132.408.737.268,1.341-.375a9.164,9.164,0,0,0,1.418-2.348,11.107,11.107,0,0,1-.286,3.378c-.506,2.96-4.09,6.134-.55,5.158,4.035-1.072,5.409-3.045,5.618-4.75a81.608,81.608,0,0,0,.594-8.578Z" transform="translate(31.158 17.169)"/><path class="o" d="M296.34,116.529s6.6-10.573,16.656-7.174c9.081,3.067,12.885,7.045,11.84,15.57-.846,6.97-17.206-5.469-17.151-5.469s-1.165,2.649-9.565.536c-5.5-1.383-7.9-.611-7.751-3.056C290.481,115.092,296.34,116.529,296.34,116.529Z" transform="translate(28.86 11.097)"/><path class="p" d="M313.365,263.3l3.133-1.48,4.738,6.487s-14.622,10.562-16.04,9.1a1.621,1.621,0,0,1-.627-1.072c.979-3.217,8.663-9.951,8.663-9.951Z" transform="translate(30.272 20.005)"/><path d="M312.849,262.63l3.133-1.48,4.727,6.487s-14.611,10.562-16.029,9.1c-1.231-1.255,8.037-10.991,8.037-10.991Z" transform="translate(30.272 19.966)"/><path class="c" d="M312.141,269.621l-.385.472-2.287-1.834.407-.429Z" transform="translate(30.759 20.478)"/><path class="c" d="M312.9,268.774l-.4.483-2.287-1.844.385-.472Z" transform="translate(30.834 20.425)"/><path class="c" d="M313.672,267.934l-.385.472L311,266.573l.385-.483Z" transform="translate(30.911 20.376)"/><path class="ag" d="M317.276,263.041,303.094,235H292.1a41.653,41.653,0,0,0,2.067,4.665c3.716,6.584,19.866,24.878,19.866,24.878Z" transform="translate(29.033 18.327)"/><path class="ac" d="M306.48,258.257l5.651,5.951,4.881-2.949-3.7-7.7Z" transform="translate(30.462 19.57)"/><path class="p" d="M338.189,274.659l3.4-.869,3.089,7.281s-16.678,7.6-17.711,5.9a1.583,1.583,0,0,1-.374-1.147c1.693-2.938,10.752-8.128,10.752-8.128Z" transform="translate(32.46 20.723)"/><path d="M337.86,273.909l3.386-.869,3.089,7.27s-16.667,7.6-17.711,5.908c-.9-1.469,10.378-9.276,10.378-9.276Z" transform="translate(32.459 20.679)"/><path class="c" d="M335.267,280.8l-.484.4-1.8-2.241.506-.343Z" transform="translate(33.096 21.106)"/><path class="c" d="M336.2,280.12l-.495.4-1.792-2.241.484-.386Z" transform="translate(33.188 21.064)"/><path class="c" d="M337.136,279.441l-.484.386-1.792-2.23.484-.4Z" transform="translate(33.283 21.023)"/><path class="ag" d="M320.88,245.386c1.55,3.9,17.59,30.958,17.59,30.958l3.386-.869L330.17,239.66Z" transform="translate(31.893 18.529)"/><path class="ac" d="M332.34,268.926l7.432-2.616,1.561,7.27-5.717,1.34Z" transform="translate(33.032 20.332)"/><path class="ag" d="M272.248,186.806c0,.869-.967,1.576-2.2,1.576s-2.2-.708-2.2-1.576.968-1.576,2.2-1.576S272.248,185.938,272.248,186.806Z" transform="translate(26.622 15.636)"/><path d="M170.528,387.87h0a.413.413,0,0,1-.418-.407V376.267a.424.424,0,0,1,.418-.407.435.435,0,0,1,.44.407v10.723h5.893a.435.435,0,0,1,.314.122.413.413,0,0,1,.125.307.4.4,0,0,1-.13.3.424.424,0,0,1-.31.112Z" transform="translate(16.908 26.637)"/><path d="M178.35,383.436a4.182,4.182,0,0,1,8.344-.311v.064a.393.393,0,0,1-.131.281.413.413,0,0,1-.3.1H179.2a3.3,3.3,0,0,0,6.08,1.694.424.424,0,0,1,.561-.139.444.444,0,0,1,.143.59,4.146,4.146,0,0,1-7.63-2.284Zm.89-.676h6.53a3.273,3.273,0,0,0-3.232-2.724A3.341,3.341,0,0,0,179.241,382.76Z" transform="translate(17.727 26.889)"/><path d="M191.744,379.865a.445.445,0,0,1-.418.418h-1.1v6.123a.662.662,0,0,0,.627.622.478.478,0,0,1,.44.429.457.457,0,0,1-.44.408,1.482,1.482,0,0,1-1.074-.413,1.408,1.408,0,0,1-.432-1.045v-6.112h-1.1c-.418,0-.418-.2-.418-.418s0-.407.418-.407h1.1v-3.12a.456.456,0,0,1,.418-.418.479.479,0,0,1,.462.418v3.12h1.1a.446.446,0,0,1,.418.4Z" transform="translate(18.669 26.642)"/><path d="M194.658,378.655a1.263,1.263,0,0,0,.825-1.319.582.582,0,0,1-.473-.6v-.365a.56.56,0,0,1,.2-.646.6.6,0,0,1,.692,0,.56.56,0,0,1,.2.646v.429a2.379,2.379,0,0,1-.473,1.791,2.01,2.01,0,0,1-.913.547.261.261,0,0,1-.264-.257A.281.281,0,0,1,194.658,378.655Z" transform="translate(19.328 26.619)"/><path d="M198.2,385.883a.425.425,0,0,1,.594-.054,4.709,4.709,0,0,0,2.638.976,2.7,2.7,0,0,0,1.638-.5,1.26,1.26,0,0,0,.649-1.072,1.323,1.323,0,0,0-.616-1.072,4.473,4.473,0,0,0-1.825-.611h0a5.031,5.031,0,0,1-1.957-.654,1.732,1.732,0,0,1-.934-1.5,2.068,2.068,0,0,1,.934-1.651,3.764,3.764,0,0,1,2.111-.568,4.667,4.667,0,0,1,2.573.911.433.433,0,0,1,.121.579.406.406,0,0,1-.265.183.415.415,0,0,1-.318-.065,3.823,3.823,0,0,0-2.111-.836,2.664,2.664,0,0,0-1.638.483,1.226,1.226,0,0,0-.539.965,1,1,0,0,0,.484.836,4.474,4.474,0,0,0,1.759.579h0a6.34,6.34,0,0,1,2.089.686,1.99,1.99,0,0,1-.011,3.421,3.614,3.614,0,0,1-2.2.665,5.276,5.276,0,0,1-3.177-1.2A.379.379,0,0,1,198.2,385.883Z" transform="translate(19.69 26.876)"/><path d="M218.978,386.965a3.9,3.9,0,0,1-1.189,2.794,4.1,4.1,0,0,1-2.868,1.152,4.489,4.489,0,0,1-1.8-.4.444.444,0,0,1-.176-.547.4.4,0,0,1,.242-.221.416.416,0,0,1,.33.028,3.076,3.076,0,0,0,1.407.311,3.231,3.231,0,0,0,2.28-.9,3.071,3.071,0,0,0,.941-2.217v-1.072a3.954,3.954,0,0,1-3.221,1.651,4.187,4.187,0,0,1,0-8.364,3.988,3.988,0,0,1,3.221,1.651v-1.2a.424.424,0,0,1,.44-.407.412.412,0,0,1,.4.407Zm-.836-3.571a3.22,3.22,0,1,0-3.221,3.378,3.336,3.336,0,0,0,2.342-1.025,3.171,3.171,0,0,0,.879-2.353Z" transform="translate(20.965 26.877)"/><path d="M225.679,379.22a4.336,4.336,0,0,1,4.161,2.434,4.136,4.136,0,0,1-.781,4.671,4.4,4.4,0,0,1-4.738,1.018,4.216,4.216,0,0,1-2.72-3.919A4.153,4.153,0,0,1,225.679,379.22Zm0,7.581a3.394,3.394,0,1,0-3.209-3.388A3.435,3.435,0,0,0,225.679,386.8Z" transform="translate(22.025 26.879)"/><path d="M239.854,379.865a.445.445,0,0,1-.418.418h-1.1v6.123a.662.662,0,0,0,.627.622.478.478,0,0,1,.44.429.457.457,0,0,1-.44.408,1.482,1.482,0,0,1-1.074-.413,1.408,1.408,0,0,1-.432-1.045v-6.112h-1.1c-.418,0-.418-.2-.418-.418s0-.407.418-.407h1.1v-3.12a.456.456,0,0,1,.418-.418.479.479,0,0,1,.462.418v3.12h1.1a.446.446,0,0,1,.418.4Z" transform="translate(23.451 26.642)"/><path d="M243.16,379.648a.4.4,0,0,1,.13-.3.424.424,0,0,1,.31-.112.412.412,0,0,1,.292.12.391.391,0,0,1,.115.288V381.5l.121-.2a4.192,4.192,0,0,1,3.452-2.059.423.423,0,0,1,.3.115.4.4,0,0,1,.126.292.424.424,0,0,1-.429.407,3.117,3.117,0,0,0-2.5,1.383,7.708,7.708,0,0,0-1.044,1.952.273.273,0,0,0,0,.139v3.689a.392.392,0,0,1-.115.288.412.412,0,0,1-.292.12.424.424,0,0,1-.31-.112.4.4,0,0,1-.13-.3Z" transform="translate(24.168 26.881)"/><path d="M257.5,379.627v7.592a.424.424,0,0,1-.429.408.413.413,0,0,1-.418-.408v-1.255a4.054,4.054,0,0,1-3.243,1.662,4.208,4.208,0,0,1,0-8.407,4.044,4.044,0,0,1,3.243,1.651v-1.244a.392.392,0,0,1,.119-.291.412.412,0,0,1,.3-.116.424.424,0,0,1,.3.115A.4.4,0,0,1,257.5,379.627Zm-.847,3.8a3.3,3.3,0,1,0-3.243,3.378,3.328,3.328,0,0,0,3.243-3.378Z" transform="translate(24.789 26.879)"/><path d="M262.924,387.557a.526.526,0,0,1-.143-.193l-3.3-7.506a.414.414,0,0,1,.209-.525.427.427,0,0,1,.32,0,.413.413,0,0,1,.229.219l2.869,6.627,2.869-6.627a.415.415,0,0,1,.539-.215.4.4,0,0,1,.22.525l-3.221,7.453a.616.616,0,0,1-.11.2.378.378,0,0,1-.275.118h-.143a.119.119,0,0,1-.066-.075Z" transform="translate(25.788 26.885)"/><path d="M268.84,383.436a4.182,4.182,0,0,1,8.344-.311v.064a.4.4,0,0,1-.418.386h-7.08a3.3,3.3,0,0,0,6.08,1.694.424.424,0,0,1,.561-.139.433.433,0,0,1,.143.59,4.125,4.125,0,0,1-3.485,1.9A4.188,4.188,0,0,1,268.84,383.436Zm.9-.676h6.53a3.311,3.311,0,0,0-6.53,0Z" transform="translate(26.721 26.889)"/><path d="M279.26,376.268a.429.429,0,0,1,.857,0v11.195a.429.429,0,0,1-.858,0Z" transform="translate(27.757 26.636)"/><path d="M108.189,361.888h-7.982l-1.616,4.182a1.848,1.848,0,0,1-1.715,1.126,1.968,1.968,0,0,1-.627-.1,1.811,1.811,0,0,1-1.1-2.316l7.289-18.948a1.849,1.849,0,0,1,1.748-1.126,1.815,1.815,0,0,1,1.748,1.126l7.289,18.948a1.81,1.81,0,0,1-1.1,2.316,1.86,1.86,0,0,1-2.309-1.072Zm-1.352-3.539-2.639-6.895-2.672,6.916Z" transform="translate(9.446 24.384)"/><path d="M115.7,365.4v-18.98a1.726,1.726,0,0,1,.525-1.258,1.816,1.816,0,0,1,1.289-.512h3.892a11.263,11.263,0,1,1,0,22.518h-3.892A1.792,1.792,0,0,1,115.7,365.4Zm3.661-1.8h2.045a7.691,7.691,0,1,0,0-15.377h-2.078Z" transform="translate(11.5 24.38)"/><path d="M144.9,366.86a1.4,1.4,0,0,0-.231-.161s0,0,0-.1a.863.863,0,0,1-.165-.193h0a1.123,1.123,0,0,0-.165-.257l-8.08-18.787a1.677,1.677,0,0,1-.006-1.348,1.74,1.74,0,0,1,.995-.936,1.822,1.822,0,0,1,1.37-.009,1.76,1.76,0,0,1,.972.942l6.431,14.894,6.431-14.894a1.835,1.835,0,0,1,2.375-.965,1.759,1.759,0,0,1,.989,2.316l-8.147,18.787a.956.956,0,0,1-.132.257h0a1.234,1.234,0,0,0-.165.193.247.247,0,0,1-.066.1l-.2.161h-.066a1.843,1.843,0,0,1-.264.161h-.066a.8.8,0,0,0-.264.064h-.066a1.275,1.275,0,0,1-.33,0,1.125,1.125,0,0,1-.33,0h-.066a.8.8,0,0,0-.264-.064h0l-.3-.193Z" transform="translate(13.529 24.399)"/><path d="M159.77,365.4v-18.98a1.726,1.726,0,0,1,.525-1.258,1.816,1.816,0,0,1,1.289-.512h10.785a1.8,1.8,0,0,1,1.814,1.769,1.835,1.835,0,0,1-1.814,1.8h-8.938v5.887h7.7a1.788,1.788,0,0,1,0,3.571h-7.7V363.6h8.938a1.788,1.788,0,0,1,0,3.571H161.617a1.839,1.839,0,0,1-1.3-.507A1.748,1.748,0,0,1,159.77,365.4Z" transform="translate(15.88 24.38)"/><path d="M181.186,365.382a1.746,1.746,0,0,1-.856,1.637,1.842,1.842,0,0,1-1.884,0,1.746,1.746,0,0,1-.856-1.637v-18.69a1.722,1.722,0,0,1,.726-1.48,1.844,1.844,0,0,1,2.507.386l10.653,14.423v-13.3a1.77,1.77,0,0,1,1.781-1.737,1.8,1.8,0,0,1,1.814,1.737v18.658a1.791,1.791,0,0,1-3.166,1.126.86.86,0,0,1-.165-.193l-10.554-14.283Z" transform="translate(17.651 24.397)"/><path d="M214.967,348.241h-5.244V365.4a1.726,1.726,0,0,1-.525,1.258,1.816,1.816,0,0,1-1.289.512A1.792,1.792,0,0,1,206.1,365.4V348.241h-5.211a1.813,1.813,0,0,1-1.814-1.8,1.726,1.726,0,0,1,.525-1.257,1.816,1.816,0,0,1,1.289-.512h14.083a1.792,1.792,0,0,1,1.814,1.769,1.834,1.834,0,0,1-1.814,1.8Z" transform="translate(19.786 24.381)"/><path d="M229.692,367.2a9.645,9.645,0,0,1-6.743-2.72,9.172,9.172,0,0,1-2.789-6.577V346.449a1.726,1.726,0,0,1,.525-1.258,1.858,1.858,0,0,1,3.136,1.257v11.442a5.873,5.873,0,0,0,11.742,0V346.449a1.748,1.748,0,0,1,.543-1.263,1.838,1.838,0,0,1,1.3-.506,1.816,1.816,0,0,1,1.289.512,1.726,1.726,0,0,1,.525,1.258v11.441a9.182,9.182,0,0,1-2.788,6.581,9.655,9.655,0,0,1-6.744,2.727Z" transform="translate(21.882 24.382)"/><path d="M259.863,364.531a1.771,1.771,0,0,1-1.154,2.252,2.969,2.969,0,0,1-.726.1h0a2.441,2.441,0,0,1-1.286-.354,3.253,3.253,0,0,1-1.1-1.126,8.454,8.454,0,0,1-.693-3.86,2.663,2.663,0,0,0-.4-1.383,3.023,3.023,0,0,0-.99-.933,6.361,6.361,0,0,0-1.847-.772h-3.892V365.4a1.815,1.815,0,0,1-1.847,1.769,1.792,1.792,0,0,1-1.814-1.769v-18.98a1.726,1.726,0,0,1,.525-1.258,1.816,1.816,0,0,1,1.289-.512h5.9a7.051,7.051,0,0,1,6.634,4.559,6.778,6.778,0,0,1-2.149,7.633,5.033,5.033,0,0,1,1.1,1.19,5.985,5.985,0,0,1,1.1,3.474,7.922,7.922,0,0,0,.132,1.9,1.762,1.762,0,0,1,1.209,1.126ZM255.246,351.6a3.271,3.271,0,0,0-.983-2.364,3.441,3.441,0,0,0-2.414-.982h-4.057v6.627h4.057A3.346,3.346,0,0,0,255.246,351.6Z" transform="translate(24.264 24.38)"/><path d="M263.3,365.4v-18.98a1.726,1.726,0,0,1,.525-1.258,1.816,1.816,0,0,1,1.289-.512H275.9a1.8,1.8,0,0,1,1.814,1.769,1.834,1.834,0,0,1-1.814,1.8h-8.938v5.887h7.7a1.788,1.788,0,0,1,0,3.571h-7.7V363.6H275.9a1.788,1.788,0,0,1,0,3.571H265.1A1.792,1.792,0,0,1,263.3,365.4Z" transform="translate(26.17 24.38)"/><path class="al" d="M290.09,365.4v-18.98a1.726,1.726,0,0,1,.525-1.258,1.816,1.816,0,0,1,1.289-.512,1.838,1.838,0,0,1,1.3.507,1.748,1.748,0,0,1,.543,1.263v7.721h8.542v-7.721a1.726,1.726,0,0,1,.525-1.258,1.816,1.816,0,0,1,1.289-.512,1.839,1.839,0,0,1,1.3.507,1.748,1.748,0,0,1,.543,1.263V365.4a1.748,1.748,0,0,1-.543,1.263,1.838,1.838,0,0,1-1.3.507,1.816,1.816,0,0,1-1.289-.512,1.726,1.726,0,0,1-.525-1.257v-7.721h-8.542V365.4a1.748,1.748,0,0,1-.543,1.263,1.838,1.838,0,0,1-1.3.507,1.816,1.816,0,0,1-1.289-.512,1.726,1.726,0,0,1-.525-1.257Z" transform="translate(28.833 24.38)"/><path class="al" d="M311.57,346.449a1.726,1.726,0,0,1,.525-1.258,1.858,1.858,0,0,1,3.136,1.258V365.4a1.858,1.858,0,0,1-3.136,1.258,1.726,1.726,0,0,1-.525-1.258Z" transform="translate(30.968 24.382)"/><path class="al" d="M320.51,365.386V346.6a1.815,1.815,0,0,1,3.628,0v9.233l10.686-10.455a1.824,1.824,0,0,1,2.573,0,1.77,1.77,0,0,1,0,2.509l-7.256,7.045,7.322,9.361a1.7,1.7,0,0,1,.409,1.293,1.716,1.716,0,0,1-.673,1.184,1.7,1.7,0,0,1-1.154.418,1.8,1.8,0,0,1-1.352-.643l-7.124-9.1-3.43,3.41v4.536a1.815,1.815,0,0,1-3.628,0Z" transform="translate(31.857 24.393)"/><path class="al" d="M342,365.4v-18.98a1.726,1.726,0,0,1,.525-1.258,1.816,1.816,0,0,1,1.289-.512H354.6a1.8,1.8,0,0,1,1.814,1.769,1.835,1.835,0,0,1-1.814,1.8h-8.938v5.887h7.7a1.788,1.788,0,0,1,0,3.571h-7.7V363.6H354.6a1.788,1.788,0,0,1,0,3.571H343.8A1.792,1.792,0,0,1,342,365.4Z" transform="translate(33.992 24.38)"/></g></g><rect class="am" width="495" height="66" transform="translate(247 403.732)"/></g></svg>