<svg xmlns="http://www.w3.org/2000/svg" viewBox="0 0 890.02 283.32"><title>coach_img</title><g id="Layer_2" data-name="Layer 2"><g id="Layer_1-2" data-name="Layer 1"><path d="M37.41,248.79l4.45,18.77,6.68,0,.25-18.73Z" style="fill:#ffb27d"/><path d="M93.57,249.59l12.68,18,5-6.34-7.64-14.1Z" style="fill:#ffb27d"/><path d="M60.6,2.09a12.86,12.86,0,0,0-7-1.34,3.34,3.34,0,0,1,1.47-.7c-1.2-.18-3.87,1-3.87,1C34.53-5.36,31.91,19.18,32.26,24.88S26.66,32.44,18,36.94C1.45,45.51,0,57,0,57l.41.26c.82-1.39,2.51-4,3.93-4.4a59,59,0,0,0-2.29,5.59c4.88,3.71,14,11.94,20.37,17.77a9.47,9.47,0,0,1,.44-3.62l.78,4.74c3.41,3.13,5.75,5.33,5.75,5.33C29,78,50.23,53.72,61.31,46.44c2.7-4,3.66-11,3.74-11.54-.47,5.56-1.42,8.69-2.27,10.44C72.17,36.7,66.7,5.56,60.6,2.09Z" style="fill:#163560"/><path d="M60.67,46.81s-5.36,2.83-9.43,1.72c-3.82-1-6.33-6-6.27-6C46.59,42.19,47.06,40,47,30.39l.73.15L60.08,33s-.29,3.87-.29,7.53C59.78,43.57,60,46.48,60.67,46.81Z" style="fill:#ffb27d"/><path d="M46.73,6.1s6.08-6.47,13.71-.34C60.44,5.76,56,5,46.73,6.1Z" style="fill:#e37970"/><path d="M60.07,33s-.28,3.88-.29,7.53c-6.89-.19-10.53-6.48-12-10Z" style="fill:#d68d5d"/><path d="M46.48,29.19S42.87,23.48,42,18.6c-.62-3.48,1.15-16.4,14.13-14.54a17.56,17.56,0,0,1,7.32,2.77c2.82,1.9,6.88,6,2.34,17.29L64.6,27.93Z" style="fill:#163560"/><path d="M109.18,256.29l-6.52.2-7.07.22S79.26,238.52,70.1,209.38c-.22-.68-.44-1.37-.68-2.06-5-14.62-15.41-33-20.88-49.57-.87-2.65-1.66-5.14-2.36-7.49L45.53,148A176.27,176.27,0,0,1,39.25,115l39.55.31S85.17,182.45,109.18,256.29Z" style="fill:#80bdcc"/><path d="M73.25,92.55c-.1,18.82,2.76,26.9,2.76,26.9A53.12,53.12,0,0,1,39,121.72c-.24-.08-16.66-3.83-16.66-3.83.33-.76,3.33-13.44,3.65-14.13,4.25-9.13,7.47-13.13,8-15.93a59.51,59.51,0,0,0,.49-15.77A125.89,125.89,0,0,0,29.54,47.3C35,46,40.3,43.9,46,41.77c1.31,1.64,5.19,3.29,8.67,3.2,4-.08,5.26-1.78,5.11-3.69,4.27,2.38,7.67,4.64,7.67,4.64C71.09,52.23,78.45,58.35,79,68,79.12,70.41,73.26,92,73.25,92.55Z" style="fill:#e7f1fd"/><path d="M39.24,94.65C37.52,97.1,34.2,112,26,113.84c4.25-10.6,7.47-15.25,8-18.5A80.2,80.2,0,0,0,34.42,77c2.76-4.83,4.82-8.15,4.82-8.15.22-.78,4.39-13.68,5.72-2.15S41.17,91.92,39.24,94.65Z" style="fill:#5f9aa8"/><path d="M62.38,36.44s-16.31.27-16.33-9.89S43.92,9.58,54.35,9s12.44,3.28,13.27,6.67S66.62,36.1,62.38,36.44Z" style="fill:#ffb27d"/><path d="M67.13,10c-2.52-3.05-4.42-2.4-5.49-1.47C58.11,3.24,47,10.86,47,10.86a19.39,19.39,0,0,1-6.35,11.47s3,1.84,9.83.08c5.4-1.39,9.31-9.07,10.73-12.27,1,.86,3,2.85,3.63,4.8.8,2.58,1.18,7.91,2.73,7.73C67.54,22.67,70.92,14.57,67.13,10Z" style="fill:#163560"/><path d="M41.64,266.51a18,18,0,0,1-.85,7.7s-1.09,5,3.81,5.07,6.11-.38,5.55-3.43-1.6-8.33-1.6-8.33Z" style="fill:#ffb27d"/><path d="M50.62,281.72H40.45c-.56-2.6.35-7.51.35-7.51,5.55,5.31,9-.13,9-.13C50.72,276.35,50.62,281.72,50.62,281.72Z" style="fill:#c45446"/><path d="M123,276.59s-9-10.27-11.81-15.38l-6.73,3.45,15,14.11,3.52-.46Z" style="fill:#ffb27d"/><path d="M128.56,281.71H116c-1.1-1-2.15-3-3.45-5.63a6.08,6.08,0,0,0-4.09-2.8v8.43h-2.6l-2.4-9c-1.6-3-.4-5.75.73-8.12,1.31,0,5.11.94,11.78,8.61a8.72,8.72,0,0,0,7,3.35l.1.05C126.93,278.38,128.16,280.53,128.56,281.71Z" style="fill:#c45446"/><path d="M128,53.3s-10.71,6-14.53,7.71c-1.36.62-3.83,1.76-6.35,2.94L102.68,66a5.53,5.53,0,0,1-6.54-1.42c-5.8-6.77-20.8-21.44-36.3-23.28l-.05,0h0l.09.17c.87,2.17,9.36,23.39,9.63,27.87.26,4.72,1.11,77.17,1.11,77.17s-.56,3.33,5.83,1.94,8-2.78,8-2.78S78.39,101,80,85.44a34.76,34.76,0,0,0-.65-10A79.94,79.94,0,0,0,100,83.69a92.43,92.43,0,0,0,10.6-5.81,65,65,0,0,0,8.93-7.2C123.23,67.26,129.65,59,129.65,59Z" style="fill:#e37970"/><path d="M102.66,256.49l-7.07.22S79.26,238.52,70.1,209.38c-.21-.68-.44-1.37-.68-2.06-5-14.61-15.4-33-20.88-49.57-.87-2.65-1.65-5.14-2.36-7.49L45.53,148l5.82-4.42s17.49,28.31,22.9,54.95C79,221.71,97.78,249.55,102.66,256.49Z" style="fill:#5f9aa8"/><path d="M52,201.05c.1,13-.55,42.75-2.24,55.08H43.44c-3.46,0-5.18-.05-5.18-.05C34,234.64,31,216.89,28.82,201.61c-1.8-12.54-3.4-23.3-4.63-32.57s-2.1-17.12-2.4-23.71c-.05-1-.08-2.05-.1-3s0-1.94,0-2.87l34.17-3.33C55.41,158.8,51.9,193.52,52,201.05Z" style="fill:#80bdcc"/><path d="M43.44,256.13c-3.46,0-5.19-.05-5.19-.05C34,234.64,31,216.89,28.82,201.6c-1.8-12.53-3.4-23.3-4.63-32.56s-2.1-17.12-2.4-23.71l12.53,7.37s-8,2.83-4.95,24.2S39.2,253.1,43.44,256.13Z" style="fill:#5f9aa8"/><path d="M45.07,145.12s-2.4,8.7-10.74,7.58-20.17-6.1-20.17-6.1,3.56-11.25,8-26c5.35-17.88,12-40.94,15.11-55.48A89.75,89.75,0,0,0,39,55.18l7-13.41s10.16,23.13,10.71,29S45.07,145.12,45.07,145.12Z" style="fill:#e37970"/><path d="M74.81,77.25c-4,.53-5.55,2.66-6,5.53A12.13,12.13,0,0,1,67,86.94c-4,.22-13.5.74-21.49,1.24l-.65,10.48A119.6,119.6,0,0,0,68.78,93a6.31,6.31,0,0,0,2.72-1.48c5.75-4.72,9-12.61,9-13.74S78.81,76.71,74.81,77.25Z" style="fill:#ffb27d"/><path d="M44.7,82.94c-.38,9.44-2.6,27.76-22.4,37.57l-.15.07c5.35-17.88,12-40.94,15.11-55.48C40.9,70.53,44.9,77.75,44.7,82.94Z" style="fill:#c45446"/><path d="M46,41.77S29.07,43,25,52s-5.36,39.23-.18,48.11c0,0,7.13,2,19.74-.32l.46-.09s4-9.87.42-11.8c0,0-10.64.55-9.53-3S46,41.77,46,41.77Z" style="fill:#e37970"/><path d="M139.43,46.18C130.32,45,128,53.3,128,53.3l1.7,5.69c2.81.39,5.27-.34,7.53-3.58s2.89-2,4.33-4.41C143.53,47.73,140.48,46.51,139.43,46.18Z" style="fill:#ffb27d"/><path d="M113.41,61c-1.36.61-3.82,1.76-6.34,2.94,1.35,2.4,3,6.74,3.48,13.92a58,58,0,0,0,9.2-7.41A124.11,124.11,0,0,0,129.65,59L128,53.3S117.24,59.29,113.41,61Z" style="fill:#ffb27d"/><path d="M642.11,127s-6.48,1.67-10.6.43-11.2.8-12.35,2.3-.72,2.1,1.31,2.62,9.26,3.6,14,1.81a38,38,0,0,1,10.94-1.85Z" style="fill:#e49963"/><path d="M701.66,70.75s-7.28,51.73-19.35,56.37c-5.94,2.29-32.23,7.47-40,8,0,0-1.9-1.54-1.44-7.83,0,0,27.54-10.11,31.45-15.61,5.82-8.18-3.61-33.42,3.69-41.11S695.63,59.57,701.66,70.75Z" style="fill:#4a75cb"/><path d="M702.76,270.09V258.81h17.76a.87.87,0,0,0,.87-.87v-1.81a.87.87,0,0,0-.87-.87H702.76V191a3.29,3.29,0,0,0-3.27-3.28H696A3.29,3.29,0,0,0,692.7,191v64.21H674.94a.87.87,0,0,0-.87.87v1.8a.88.88,0,0,0,.87.88H692.7v11.28c-12.85,1-23.14,5.6-26,11.58H728.8C725.92,275.69,715.62,271.05,702.76,270.09Z" style="fill:#2b478b"/><path d="M699.37,179.74a90.78,90.78,0,0,1-7.11,10.17c-7.83,9.87-16.34,18-17.83,25.72a34,34,0,0,1-1.37,4.93c-.62,1.76-1.39,3.61-2.27,5.53a171.76,171.76,0,0,1-13.24,22.63C649,261.42,640.92,272,640.92,272l-14.77-.63c.59-1.48,7-19,15.65-40.44l10.82-26.87,1.43-3.55,3.23-8,14.55-36.13s32.35-12.27,35.71-4.32C710.31,158.6,708.06,165,699.37,179.74Z" style="fill:#163560"/><path d="M636,269.33s-.75,12.19-3.11,12.37c-.32,0-12,0-12,0L606,281.64s.1-3.59,4.45-4.35,11.62-3.81,14.25-9.56C627.51,261.69,636,269.33,636,269.33Z" style="fill:#163560"/><path d="M673.9,234.49s10.28,6.61,9.28,8.76c-.13.28-5.81,10.45-5.81,10.45L670,266.65s-3.08-1.83-1.62-6,2.34-12-1.4-17.11C663.09,238.18,673.9,234.49,673.9,234.49Z" style="fill:#163560"/><path d="M660.57,150.54s-40.61,25.3-45.15,42.3,54,53.27,54,53.27,6.42-5.67,7.55-9.82c0,0-26.47-31.72-32.21-38.82-3.53-4.37,52.14-15.12,59-25.69s4.36-19.48,4.36-19.48Z" style="fill:#1c468a"/><rect x="653.87" y="183.03" width="89.16" height="22.67" rx="11.33" style="fill:#ee9849"/><path d="M679.8,61.88a22.82,22.82,0,0,0-6.19,5.6C683.34,70,699.48,61,699.48,61a23.87,23.87,0,0,1-8.58-13.45c-.12-.47-.22-1-.32-1.44a29.66,29.66,0,0,1-.53-5.07l-4.47,4-7.43,6.67a61.38,61.38,0,0,0,1.1,7.52C679.41,60,679.59,60.94,679.8,61.88Z" style="fill:#e49963"/><path d="M710.15,107.78c-1.39,18.75,1,47.24-.63,52.18-1.36,4.27-17.42,1.74-23.62.31-2.3-.53-5.07-1.27-7.95-2.16-8-2.48-16.75-6-17.69-8.66a1.32,1.32,0,0,1-.09-.3,2.41,2.41,0,0,1,0-1.1c.31-1.33,1.52-2.79,1.66-6.11.16-3.7.13-8.07.27-12.76a12.86,12.86,0,0,1,.07-1.64v-.49c.13-5.23.41-10.74.72-16.2.2-3.42.44-6.82.7-10.07.7-8.4,1.64-15.87,2.89-20.59,2-7.7,6.53-12.71,10.62-16.39l3-2.53a17.2,17.2,0,0,0,10.73-1.43c3.82-1.82,5.14-3.12,5.8-2.63C705.45,64,711.8,84.87,710.15,107.78Z" style="fill:#739af0"/><path d="M676.88,158.14c-8-2.48-16.75-6-17.69-8.65l-.09-.3c0-.37,0-.73,0-1.1.32-1.33,1.52-2.79,1.66-6.11.16-3.7.14-8.07.27-12.77a12.7,12.7,0,0,1,.07-1.63v-.48l30.27-13.73S693.15,137.75,676.88,158.14Z" style="fill:#4a75cb"/><path d="M677.73,51.7a65.5,65.5,0,0,0,1.1,7.52c7.26-2.35,10.55-8.9,11.65-11.68.31-.8.45-1.27.45-1.27l-.77-.16-5-1.07Z" style="fill:#d68d5d"/><path d="M674.79,51.64s15.94,1.8,16.91-8.15,3.68-16.42-6.46-18-12.48,2-13.61,5.28S670.67,50.9,674.79,51.64Z" style="fill:#e49963"/><path d="M691.87,44.18s-1-13.2-15.52-14.57c-9.94-.94-4.4-9.49-3.34-10.86,0,0,7.62,1.05,15.42,2.33C704.82,23.78,693.49,42.11,691.87,44.18Z" style="fill:#2b478b"/><rect x="601.16" y="102.75" width="1.47" height="38.42" transform="translate(-8.23 191.97) rotate(-18)" style="fill:#4a75cb"/><rect x="609.51" y="137.65" width="40.32" height="2.41" transform="translate(-2.81 13.44) rotate(-1.22)" style="fill:#4a75cb"/><path d="M645.75,135s-6.25,2.37-10.48,1.6-11.06,2-12,3.64-.48,2.17,1.6,2.46,9.61,2.56,14.12.27a37.78,37.78,0,0,1,10.67-3Z" style="fill:#e49963"/><path d="M698.3,72.87s-1.53,52.22-13,58.15c-5.65,2.93-31.2,11-38.88,12.35,0,0-2.06-1.33-2.29-7.63,0,0,26.25-13.07,29.53-19,4.89-8.77-7.27-32.82-.86-41.26S691.08,62.42,698.3,72.87Z" style="fill:#739af0"/><path d="M889.16,283.32H8.65a.84.84,0,0,1-.86-.8h0a.83.83,0,0,1,.86-.8H889.16a.82.82,0,0,1,.86.8h0A.84.84,0,0,1,889.16,283.32Z" style="fill:none"/></g></g></svg>