<svg xmlns="http://www.w3.org/2000/svg" xmlns:xlink="http://www.w3.org/1999/xlink" viewBox="0 0 16 16"><defs><linearGradient id="a" x1="11.21" y1="11.21" x2="2.7" y2="2.62" gradientUnits="userSpaceOnUse"><stop offset="0" stop-color="#e2a325"/><stop offset="0.09" stop-color="#c6954f"/><stop offset="0.17" stop-color="#b28b6e"/><stop offset="0.24" stop-color="#a58480"/><stop offset="0.28" stop-color="#a18287"/><stop offset="0.8" stop-color="#0e8f9d"/><stop offset="0.97" stop-color="#426286"/></linearGradient><linearGradient id="b" x1="12" y1="1.07" x2="4" y2="14.93" gradientUnits="userSpaceOnUse"><stop offset="0" stop-color="#465881"/><stop offset="1" stop-color="#0e8f9d"/></linearGradient></defs><title>favicon-rg</title><path d="M12.58,10.45a3.09,3.09,0,0,0-.37.17,7.3,7.3,0,0,1,.27,1,7.81,7.81,0,0,0,.53-.75C12.81,10.59,12.64,10.42,12.58,10.45Z" style="fill:#302d2f"/><path d="M12.43,11.63c-.18-.17-.68-.85-.68-.85s-.45.35-.48.26.1-1.41-.06-1.53,0-.48-.58.05-.62.79-.88.53-.27-.28-.35-.22-.83.56-.88.86.07.43.21.33.8-.62.93-.56a6.4,6.4,0,0,1,.8,1.08c.2.29.42,1,.26.94s-.4-.5-.71-.91-.48-.61-.61-.46.24.64.23.79,0,.2-.26,0-.27-.45-.46-.33-.34.35-.53.32-.82-1.8-1.23-1.54S5.7,11.73,5.4,11.75s-.91-.89-1.26-.62a4.45,4.45,0,0,0-.58.66,5.92,5.92,0,0,0,8.88-.15Z" style="fill:#302d2f"/><path d="M4.62,10.57c.15,0,.55.5.69.55a.3.3,0,0,0,.4,0A16.43,16.43,0,0,1,7.43,9.76c.09,0,.57.63.67.64s1.19-1,1.35-1,.35.37.45.35,1.24-1.18,1.39-1,.52,1.33.62,1.36.45-.26.62-.24.49.4.61.6A5.65,5.65,0,1,0,2.37,8.05a5.58,5.58,0,0,0,1,3.26C3.69,11.17,4.49,10.57,4.62,10.57Z" style="fill:url(#a)"/><path d="M6,7.42,5.54,6.7c-.07-.11-.63-.84-.62-1.07A12.4,12.4,0,0,1,5,4.31a3.58,3.58,0,0,1,.62,1c0,.21.44.61.51.73a1.41,1.41,0,0,0,.47.42,4.34,4.34,0,0,1,.8.15c.09.07-.12.35-.09.48s.26.44.34.63a3.3,3.3,0,0,0,.21.51c.08.12.08.25.21.34s.46.32.28.32A3.74,3.74,0,0,1,7.2,8.5c-.1-.12-.6-.61-.76-.43s-.3.37-.27.49-.28,0-.53-.32-.32-.43-.09-.49A1,1,0,0,0,6,7.42Z" style="fill:#302d2f"/><path d="M15.46,10.88A7.92,7.92,0,0,0,16,8,8,8,0,0,0,0,8a8.13,8.13,0,0,0,.53,2.88,7.79,7.79,0,0,0,.89,1.66,8,8,0,0,0,13.16,0A7.33,7.33,0,0,0,15.46,10.88ZM.71,8l1-.86A6.36,6.36,0,0,1,7.14,1.7L8,.71l.86,1A6.36,6.36,0,0,1,14.3,7.14l1,.86-1,.86c0,.19-.06.37-.1.55A6.36,6.36,0,0,1,8.86,14.3l-.86,1-.86-1A6.36,6.36,0,0,1,1.8,9.41c0-.18-.07-.36-.1-.55Z" style="fill:url(#b)"/></svg>