<?xml version="1.0" encoding="utf-8"?>
<!-- Generator: Adobe Illustrator 24.0.2, SVG Export Plug-In . SVG Version: 6.00 Build 0)  -->
<svg version="1.1" id="Layer_1" xmlns="http://www.w3.org/2000/svg" xmlns:xlink="http://www.w3.org/1999/xlink" x="0px" y="0px"
	 viewBox="0 0 50 50" style="enable-background:new 0 0 50 50;" xml:space="preserve">
<style type="text/css">
	.st0{fill:#FFFFFF;}
</style>
<path class="st0" d="M30.1,2c-3.3,0-6.1,1-8.1,3S19,9.8,19,13.4V18h-6c-0.6,0-1,0.4-1,1v8c0,0.6,0.4,1,1,1h6v19c0,0.6,0.4,1,1,1h8
	c0.6,0,1-0.4,1-1V28h7c0.5,0,0.9-0.4,1-0.9l1-8c0.1-0.5-0.3-1-0.9-1.1c0,0-0.1,0-0.1,0h-8v-4c0-1.1,0.9-2,2-2h6c0.6,0,1-0.4,1-1V3.3
	c0-0.5-0.4-0.9-0.9-1C36.2,2.2,33.1,2,30.1,2z M29.7,4.2c2.2,0,4.3,0.2,5.3,0.3v5.6h-4.5c-2,0-3.6,1.8-3.6,3.9v4.9
	c0,0.5,0.4,1,0.9,1h7.1l-0.7,5.9h-6.4c-0.5,0-0.9,0.4-0.9,1v18.7h-5.4V26.8c0-0.5-0.4-1-0.9-1h-5.4v-5.9h5.4c0.5,0,0.9-0.4,0.9-1
	v-5.5c0-3.1,0.8-5.3,2.2-6.9C25.1,5,27.1,4.2,29.7,4.2z"/>
</svg>
