<svg xmlns="http://www.w3.org/2000/svg" xmlns:xlink="http://www.w3.org/1999/xlink" viewBox="0 0 272.48 273.08"><defs><style>.cls-1{fill:#302e2f;}.cls-2{fill:url(#linear-gradient);}</style><linearGradient id="linear-gradient" x1="213.07" y1="212.53" x2="8.07" y2="5.43" gradientUnits="userSpaceOnUse"><stop offset="0.05" stop-color="#e3b127"/><stop offset="0.07" stop-color="#dcaa33"/><stop offset="0.15" stop-color="#c99658"/><stop offset="0.23" stop-color="#bb8772"/><stop offset="0.3" stop-color="#b37e82"/><stop offset="0.36" stop-color="#b07b88"/><stop offset="0.69" stop-color="#0e909e"/><stop offset="0.72" stop-color="#17889a"/><stop offset="0.82" stop-color="#2f7390"/><stop offset="0.92" stop-color="#3d6689"/><stop offset="1" stop-color="#426287"/></linearGradient></defs><title>Asset 3</title><g id="Layer_2" data-name="Layer 2"><g id="Layer_2-2" data-name="Layer 2"><path class="cls-1" d="M246,194.22a81,81,0,0,0-8.81,4.06s6.33,18.66,6.43,23.59a142.87,142.87,0,0,0,12.93-18.16C251.58,197.58,247.61,193.56,246,194.22Z"/><path class="cls-1" d="M242.46,222.64c-4.41-4.18-16.31-20.49-16.31-20.49s-10.8,8.37-11.68,6.17,2.43-33.93-1.32-36.8-.44-11.46-14.1,1.32-15,18.95-21.16,12.56-6.61-6.61-8.37-5.29-20.05,13.67-21.16,20.72,1.55,10.36,4.85,7.93S172.6,194,175.69,195.32s14.54,19,19.39,26,10.14,23.8,6.17,22.7-9.7-12.12-17-21.82S172.6,207.44,169.52,211s5.73,15.43,5.51,19.18-.22,4.84-6.39-.44-6.39-11-11-8.16-8.15,8.6-12.78,7.71-19.61-43.19-29.53-37-35,32.84-42.31,33.28-21.81-21.38-30.19-15c-4.2,3.21-9.47,10.21-14.08,16a142.62,142.62,0,0,0,214-3.69A1.78,1.78,0,0,1,242.46,222.64Z"/><path class="cls-2" d="M54.3,197.17c3.58.21,13.26,12,16.63,13.05a7.21,7.21,0,0,0,9.68-1.05c4.84-4.84,39.35-31.78,41.45-31.57s13.68,15.15,16,15.36,28.83-23.77,32.62-24.19,8.42,9,10.94,8.41,29.88-28.19,33.46-24.62,12.41,32,14.94,32.62,10.73-6.1,14.94-5.68c4,.4,11.77,9.6,14.71,14.45a136.26,136.26,0,1,0-234.6,21C31.82,211.43,51.12,197,54.3,197.17Z"/><path class="cls-1" d="M87.28,121.19s-9-14.67-10.76-17.36S61.36,83.53,61.6,77.91s1.23-31.79,2.2-31.79S78.23,65.93,78.72,71.06,89.23,85.73,91,88.67s8.8,9.53,11.24,10,17.12,2,19.32,3.67-2.93,8.56-2.2,11.49,6.36,10.65,8.31,15.23,2.94,9.71,4.89,12.4,2,5.87,5.14,8.07,11,7.83,6.85,7.83-25.68-7.34-28.12-10.27S102,132.44,98,136.84s-7.09,8.8-6.36,11.73-6.85,0-12.72-7.58-7.82-10.37-2.2-11.91S87.28,121.19,87.28,121.19Z"/></g></g></svg>